  0
SECTION
  2
HEADER
  9
$ACADVER
  1
AC1009
  9
$INSBASE
 10
0.0
 20
0.0
 30
0.0
  9
$EXTMIN
 10
5.2912512141595371
 20
18.412646854211221
 30
0.0
  9
$EXTMAX
 10
381.26135872802831
 20
172.11133680220499
 30
0.0
  9
$LIMMIN
 10
0.0
 20
0.0
  9
$LIMMAX
 10
12.0
 20
9.0
  9
$ORTHOMODE
 70
     0
  9
$REGENMODE
 70
     1
  9
$FILLMODE
 70
     1
  9
$QTEXTMODE
 70
     0
  9
$MIRRTEXT
 70
     0
  9
$DRAGMODE
 70
     2
  9
$LTSCALE
 40
1.0
  9
$OSMODE
 70
    37
  9
$ATTMODE
 70
     1
  9
$TEXTSIZE
 40
0.2
  9
$TRACEWID
 40
0.05
  9
$TEXTSTYLE
  7
STANDARD
  9
$CLAYER
  8
0
  9
$CELTYPE
  6
BYLAYER
  9
$CECOLOR
 62
   256
  9
$DIMSCALE
 40
1.0
  9
$DIMASZ
 40
0.18
  9
$DIMEXO
 40
0.0625
  9
$DIMDLI
 40
0.38
  9
$DIMRND
 40
0.0
  9
$DIMDLE
 40
0.0
  9
$DIMEXE
 40
0.18
  9
$DIMTP
 40
0.0
  9
$DIMTM
 40
0.0
  9
$DIMTXT
 40
0.18
  9
$DIMCEN
 40
0.09
  9
$DIMTSZ
 40
0.0
  9
$DIMTOL
 70
     0
  9
$DIMLIM
 70
     0
  9
$DIMTIH
 70
     1
  9
$DIMTOH
 70
     1
  9
$DIMSE1
 70
     0
  9
$DIMSE2
 70
     0
  9
$DIMTAD
 70
     0
  9
$DIMZIN
 70
     0
  9
$DIMBLK
  1

  9
$DIMASO
 70
     1
  9
$DIMSHO
 70
     1
  9
$DIMPOST
  1

  9
$DIMAPOST
  1

  9
$DIMALT
 70
     0
  9
$DIMALTD
 70
     2
  9
$DIMALTF
 40
25.399999999999999
  9
$DIMLFAC
 40
1.0
  9
$DIMTOFL
 70
     0
  9
$DIMTVP
 40
0.0
  9
$DIMTIX
 70
     0
  9
$DIMSOXD
 70
     0
  9
$DIMSAH
 70
     0
  9
$DIMBLK1
  1

  9
$DIMBLK2
  1

  9
$DIMSTYLE
  2
STANDARD
  9
$DIMCLRD
 70
     0
  9
$DIMCLRE
 70
     0
  9
$DIMCLRT
 70
     0
  9
$DIMTFAC
 40
1.0
  9
$DIMGAP
 40
0.09
  9
$LUNITS
 70
     2
  9
$LUPREC
 70
     4
  9
$SKETCHINC
 40
0.1
  9
$FILLETRAD
 40
0.0
  9
$AUNITS
 70
     0
  9
$AUPREC
 70
     0
  9
$MENU
  1
.
  9
$ELEVATION
 40
0.0
  9
$PELEVATION
 40
0.0
  9
$THICKNESS
 40
0.0
  9
$LIMCHECK
 70
     0
  9
$BLIPMODE
 70
     0
  9
$CHAMFERA
 40
0.0
  9
$CHAMFERB
 40
0.0
  9
$SKPOLY
 70
     0
  9
$TDCREATE
 40
2456939.8776910878
  9
$TDUPDATE
 40
2456944.9729603818
  9
$TDINDWG
 40
0.1249078935
  9
$TDUSRTIMER
 40
0.124842581
  9
$USRTIMER
 70
     1
  9
$ANGBASE
 50
0.0
  9
$ANGDIR
 70
     0
  9
$PDMODE
 70
     0
  9
$PDSIZE
 40
0.0
  9
$PLINEWID
 40
0.0
  9
$COORDS
 70
     1
  9
$SPLFRAME
 70
     0
  9
$SPLINETYPE
 70
     6
  9
$SPLINESEGS
 70
     8
  9
$ATTDIA
 70
     1
  9
$ATTREQ
 70
     1
  9
$HANDLING
 70
     1
  9
$HANDSEED
  5
C0F
  9
$SURFTAB1
 70
     6
  9
$SURFTAB2
 70
     6
  9
$SURFTYPE
 70
     6
  9
$SURFU
 70
     6
  9
$SURFV
 70
     6
  9
$UCSNAME
  2

  9
$UCSORG
 10
0.0
 20
0.0
 30
0.0
  9
$UCSXDIR
 10
1.0
 20
0.0
 30
0.0
  9
$UCSYDIR
 10
0.0
 20
1.0
 30
0.0
  9
$PUCSNAME
  2

  9
$PUCSORG
 10
0.0
 20
0.0
 30
0.0
  9
$PUCSXDIR
 10
1.0
 20
0.0
 30
0.0
  9
$PUCSYDIR
 10
0.0
 20
1.0
 30
0.0
  9
$USERI1
 70
     0
  9
$USERI2
 70
     0
  9
$USERI3
 70
     0
  9
$USERI4
 70
     0
  9
$USERI5
 70
     0
  9
$USERR1
 40
0.0
  9
$USERR2
 40
0.0
  9
$USERR3
 40
0.0
  9
$USERR4
 40
0.0
  9
$USERR5
 40
0.0
  9
$WORLDVIEW
 70
     1
  9
$SHADEDGE
 70
     3
  9
$SHADEDIF
 70
    70
  9
$TILEMODE
 70
     1
  9
$MAXACTVP
 70
    64
  9
$PLIMCHECK
 70
     0
  9
$PEXTMIN
 10
0.0
 20
0.0
 30
0.0
  9
$PEXTMAX
 10
0.0
 20
0.0
 30
0.0
  9
$PLIMMIN
 10
0.0
 20
0.0
  9
$PLIMMAX
 10
12.0
 20
9.0
  9
$UNITMODE
 70
     0
  9
$VISRETAIN
 70
     1
  9
$PLINEGEN
 70
     0
  9
$PSLTSCALE
 70
     1
  0
ENDSEC
  0
SECTION
  2
TABLES
  0
TABLE
  2
VPORT
 70
     1
  0
VPORT
  2
*ACTIVE
 70
     0
 10
0.0
 20
0.0
 11
1.0
 21
1.0
 12
-176.8985371841861
 22
-30.290254369512571
 13
0.0
 23
0.0
 14
0.5
 24
0.5
 15
0.5
 25
0.5
 16
0.0
 26
0.0
 36
596.73944533616827
 17
358.12005517112902
 27
138.4335397533419
 37
0.0
 40
234.50959213349211
 41
2.0042598509052181
 42
50.0
 43
0.0
 44
0.0
 50
0.0
 51
359.79373519375292
 71
     0
 72
  1000
 73
     1
 74
     3
 75
     0
 76
     1
 77
     0
 78
     0
  0
ENDTAB
  0
TABLE
  2
LTYPE
 70
    16
  0
LTYPE
  2
CONTINUOUS
 70
     0
  3
Solid line
 72
    65
 73
     0
 40
0.0
  0
LTYPE
  2
HIDDEN
 70
     0
  3
Hidden __ __ __ __ __ __ __ __ __ __ __ __ __ _
 72
    65
 73
     2
 40
0.375
 49
0.25
 49
-0.125
  0
LTYPE
  2
PHANTOM2
 70
     0
  3
Phantom (.5x) ___ _ _ ___ _ _ ___ _ _ ___ _ _
 72
    65
 73
     6
 40
1.25
 49
0.625
 49
-0.125
 49
0.125
 49
-0.125
 49
0.125
 49
-0.125
  0
LTYPE
  2
CENTER
 70
     0
  3
Center ____ _ ____ _ ____ _ ____ _ ____ _ ____
 72
    65
 73
     4
 40
2.0
 49
1.25
 49
-0.25
 49
0.25
 49
-0.25
  0
LTYPE
  2
AM_ISO02W050
 70
     0
  3
__ __ __ __ __ __ __ __ __ __ __ __ __ __ __
 72
    65
 73
     2
 40
7.5
 49
6.0
 49
-1.5
  0
LTYPE
  2
AM_ISO08W050
 70
     0
  3
____ . ____ . ____ . ____ . ____ . ____ . ____
 72
    65
 73
     4
 40
18.0
 49
12.0
 49
-1.5
 49
3.0
 49
-1.5
  0
LTYPE
  2
AM_ISO09W050
 70
     0
  3
_____ . . _____ . . _____ . . ____ .. ____
 72
    65
 73
     6
 40
22.5
 49
12.0
 49
-1.5
 49
3.0
 49
-1.5
 49
3.0
 49
-1.5
  0
LTYPE
  2
AMCONSTR
 70
     0
  3
_______________________
 72
    65
 73
     2
 40
9999.0
 49
9999.0
 49
0.0
  0
LTYPE
  2
AM_ISO08W050X2
 70
     0
  3
__ . __ . __ . __ . __ . __
 72
    65
 73
     4
 40
9.0
 49
6.0
 49
-0.75
 49
1.5
 49
-0.75
  0
LTYPE
  2
AM_ISO02W050X2
 70
     0
  3
 _ _ _ _ _ _ _ _ _ _ _ _
 72
    65
 73
     2
 40
3.75
 49
3.0
 49
-0.75
  0
LTYPE
  2
AMZIGZAG
 70
     0
  3
/\/-/\/-/\/-/\/-/\/-/\/
 72
    65
 73
     2
 40
11.0001
 49
0.0001
 49
-11.0
  0
LTYPE
  2
CENTER2
 70
     0
  3
Center (.5x) ___ _ ___ _ ___ _ ___ _ ___ _ ___
 72
    65
 73
     4
 40
1.125
 49
0.75
 49
-0.125
 49
0.125
 49
-0.125
  0
LTYPE
  2
HIDDEN2
 70
     0
  3
Hidden (.5x) _ _ _ _ _ _ _ _ _ _ _ _ _ _ _ _ _
 72
    65
 73
     2
 40
0.1875
 49
0.125
 49
-0.0625
  0
LTYPE
  2
AMZIGZAG2
 70
     0
  3
/\/-/\/-/\/-/\/-/\/-/\/
 72
    65
 73
     2
 40
0.4401
 49
0.0001
 49
-0.4400000000000001
  0
LTYPE
  2
ACANSTGB
 70
     0
  3
__ . . __ . .
 72
    65
 73
     6
 40
0.35433070866
 49
0.15748031496
 49
-0.03937007874
 49
0.03937007874
 49
-0.03937007874
 49
0.03937007874
 49
-0.03937007874
  0
LTYPE
  2
ACANSTGL
 70
     0
  3
_ _ _ _ _
 72
    65
 73
     2
 40
0.11811023622
 49
0.07874015748
 49
-0.03937007874
  0
ENDTAB
  0
TABLE
  2
LAYER
 70
     4
  0
LAYER
  2
0
 70
     0
 62
     7
  6
CONTINUOUS
  0
LAYER
  2
AM_0
 70
     0
 62
     7
  6
CONTINUOUS
  0
ENDTAB
  0
TABLE
  2
STYLE
 70
     5
  0
STYLE
  2
STANDARD
 70
     0
 40
0.0
 41
1.0
 50
0.0
 71
     0
 42
0.2
  3
txt
  4

  0
STYLE
  2
ANNOTATIVE
 70
     0
 40
0.0
 41
1.0
 50
0.0
 71
     0
 42
0.2
  3
txt
  4

  0
STYLE
  2

 70
     1
 40
0.0
 41
1.0
 50
0.0
 71
     0
 42
0.2
  3
genltshp.shx
  4

  0
STYLE
  2
ACANSTS
 70
     0
 40
0.0
 41
1.0
 50
0.0
 71
     0
 42
0.2
  3
romans.shx
  4

  0
STYLE
  2
ACANSGDT
 70
     0
 40
0.0
 41
1.0
 50
0.0
 71
     0
 42
0.2
  3
amgdt.shx
  4

  0
ENDTAB
  0
TABLE
  2
VIEW
 70
     0
  0
ENDTAB
  0
TABLE
  2
UCS
 70
     0
  0
ENDTAB
  0
TABLE
  2
APPID
 70
    14
  0
APPID
  2
ACAD
 70
     0
  0
APPID
  2
ACADANNOPO
 70
     0
  0
APPID
  2
ACADANNOTATIVE
 70
     0
  0
APPID
  2
ACAD_DSTYLE_DIMJAG
 70
     0
  0
APPID
  2
ACAD_DSTYLE_DIMTALN
 70
     0
  0
APPID
  2
ACAD_MLEADERVER
 70
     0
  0
APPID
  2
ACAD_NAV_VCDISPLAY
 70
     0
  0
APPID
  2
ACAECLAYERSTANDARD
 70
     0
  0
APPID
  2
ACCMTRANSPARENCY
 70
     0
  0
APPID
  2
MCAD_NO_VIS
 70
     0
  0
APPID
  2
ACAD_TEMP_GRAPHIC
 70
     0
  0
APPID
  2
ACATTRIBSERVICES
 70
     0
  0
APPID
  2
DESIGNERASSEMBLIES
 70
     0
  0
APPID
  2
ACAD_DSTYLE_DIMBREAK
 70
     0
  0
ENDTAB
  0
TABLE
  2
DIMSTYLE
 70
     8
  0
DIMSTYLE
  2
STANDARD
 70
     0
  3

  4

  5

  6

  7

 40
1.0
 41
0.18
 42
0.0625
 43
0.38
 44
0.18
 45
0.0
 46
0.0
 47
0.0
 48
0.0
140
0.18
141
0.09
142
0.0
143
25.399999999999999
144
1.0
145
0.0
146
1.0
147
0.09
 71
     0
 72
     0
 73
     1
 74
     1
 75
     0
 76
     0
 77
     0
 78
     0
170
     0
171
     2
172
     0
173
     0
174
     0
175
     0
176
     0
177
     0
178
     0
  0
DIMSTYLE
  2
ANNOTATIVE
 70
     0
  3

  4

  5

  6

  7

 40
0.0
 41
0.18
 42
0.0625
 43
0.38
 44
0.18
 45
0.0
 46
0.0
 47
0.0
 48
0.0
140
0.18
141
0.09
142
0.0
143
25.399999999999999
144
1.0
145
0.0
146
1.0
147
0.09
 71
     0
 72
     0
 73
     1
 74
     1
 75
     0
 76
     0
 77
     0
 78
     0
170
     0
171
     2
172
     0
173
     0
174
     0
175
     0
176
     0
177
     0
178
     0
  0
DIMSTYLE
  2
AM_ANSI
 70
     0
  3

  4
mm
  5

  6

  7

 40
1.0
 41
0.12
 42
0.05
 43
0.5
 44
0.1
 45
0.0
 46
0.0
 47
0.1
 48
0.1
140
0.12
141
0.0
142
0.0
143
25.399999999999999
144
1.0
145
0.0
146
0.71
147
0.06
 71
     0
 72
     0
 73
     1
 74
     1
 75
     0
 76
     0
 77
     0
 78
     7
170
     0
171
     2
172
     0
173
     0
174
     0
175
     0
176
   256
177
   256
178
     2
  0
DIMSTYLE
  2
AM_ANSI$3
 70
     0
  3

  4
mm
  5

  6

  7

 40
1.0
 41
0.12
 42
0.05
 43
0.5
 44
0.1
 45
0.0
 46
0.0
 47
0.1
 48
0.1
140
0.12
141
0.0
142
0.0
143
25.399999999999999
144
1.0
145
0.0
146
0.71
147
0.06
 71
     0
 72
     0
 73
     1
 74
     1
 75
     0
 76
     0
 77
     0
 78
     7
170
     0
171
     2
172
     0
173
     0
174
     0
175
     0
176
   256
177
   256
178
     2
  0
DIMSTYLE
  2
AM_ANSI$4
 70
     0
  3

  4
mm
  5

  6

  7

 40
1.0
 41
0.12
 42
0.05
 43
0.5
 44
0.1
 45
0.0
 46
0.0
 47
0.1
 48
0.1
140
0.12
141
0.0
142
0.0
143
25.399999999999999
144
1.0
145
0.0
146
0.71
147
0.06
 71
     0
 72
     0
 73
     1
 74
     1
 75
     0
 76
     0
 77
     0
 78
     7
170
     0
171
     2
172
     0
173
     0
174
     0
175
     0
176
   256
177
   256
178
     2
  0
DIMSTYLE
  2
AM_ANSI$7
 70
     0
  3

  4
mm
  5

  6

  7

 40
1.0
 41
0.12
 42
0.05
 43
0.5
 44
0.1
 45
0.0
 46
0.0
 47
0.1
 48
0.1
140
0.12
141
0.0
142
0.0
143
25.399999999999999
144
1.0
145
0.0
146
0.71
147
0.06
 71
     0
 72
     0
 73
     1
 74
     1
 75
     0
 76
     0
 77
     0
 78
     7
170
     0
171
     2
172
     0
173
     0
174
     0
175
     0
176
   256
177
   256
178
     2
  0
DIMSTYLE
  2
AM_ANSI$SF
 70
     0
  3

  4
mm
  5

  6

  7

 40
1.0
 41
0.12
 42
0.05
 43
0.5
 44
0.1
 45
0.0
 46
0.0
 47
0.1
 48
0.1
140
0.12
141
0.0
142
0.0
143
25.399999999999999
144
1.0
145
0.0
146
0.71
147
0.06
 71
     0
 72
     0
 73
     1
 74
     1
 75
     1
 76
     1
 77
     0
 78
     7
170
     0
171
     2
172
     0
173
     0
174
     0
175
     0
176
   256
177
   256
178
     2
  0
DIMSTYLE
  2
AM_ANSI$SH
 70
     0
  3

  4
mm
  5

  6
GENAXEH
  7

 40
1.0
 41
0.12
 42
0.05
 43
0.5
 44
0.1
 45
0.0
 46
0.0
 47
0.1
 48
0.1
140
0.12
141
0.0
142
0.0
143
25.399999999999999
144
1.0
145
0.0
146
0.71
147
0.06
 71
     0
 72
     0
 73
     1
 74
     1
 75
     1
 76
     1
 77
     0
 78
     7
170
     0
171
     2
172
     0
173
     1
174
     0
175
     0
176
   256
177
   256
178
     2
  0
ENDTAB
  0
ENDSEC
  0
SECTION
  2
BLOCKS
  0
BLOCK
  8
0
  2
$MODEL_SPACE
 70
     0
 10
0.0
 20
0.0
 30
0.0
  3
$MODEL_SPACE
  1

  0
ENDBLK
  5
21
  8
0
  0
BLOCK
 67
     1
  8
0
  2
$PAPER_SPACE
 70
     0
 10
0.0
 20
0.0
 30
0.0
  3
$PAPER_SPACE
  1

  0
ENDBLK
  5
5B
 67
     1
  8
0
  0
BLOCK
  8
0
  2
A$C18E03D1C
 70
     0
 10
0.0
 20
0.0
 30
0.0
  3
A$C18E03D1C
  1

  0
LINE
  5
741
  8
0
  6
CONTINUOUS
 62
     7
 10
-0.0217771083834748
 20
20.275502708469219
 30
0.0
 11
5.8407228937964808
 21
20.275502708469219
 31
0.0
  0
LINE
  5
742
  8
0
  6
CONTINUOUS
 62
     7
 10
5.8407228937964808
 20
20.275502708469219
 30
0.0
 11
5.8407228937964808
 21
17.275502708989158
 31
0.0
  0
LINE
  5
743
  8
0
  6
CONTINUOUS
 62
     7
 10
5.8407228937964808
 20
17.275502708989158
 30
0.0
 11
4.580722891576527
 21
17.275502708989158
 31
0.0
  0
LINE
  5
744
  8
0
  6
CONTINUOUS
 62
     7
 10
4.580722891576527
 20
17.275502708989158
 30
0.0
 11
4.580722891576527
 21
14.475502708289181
 31
0.0
  0
LINE
  5
745
  8
0
  6
CONTINUOUS
 62
     7
 10
4.580722891576527
 20
14.475502708289181
 30
0.0
 11
5.8407228937964808
 21
14.475502708289181
 31
0.0
  0
LINE
  5
746
  8
0
  6
CONTINUOUS
 62
     7
 10
5.8407228937964808
 20
14.475502708289181
 30
0.0
 11
5.8407228937964808
 21
12.77550270722924
 31
0.0
  0
ARC
  5
747
  8
0
  6
CONTINUOUS
 62
     7
 10
6.3407228920165428
 20
12.77550270722924
 30
0.0
 40
0.5000000000000219
 50
180.0
 51
270.0
  0
LINE
  5
748
  8
0
  6
CONTINUOUS
 62
     7
 10
6.3407228920165428
 20
12.275502709009171
 30
0.0
 11
8.5407228938364881
 21
12.275502709009171
 31
0.0
  0
ARC
  5
749
  8
0
  6
CONTINUOUS
 62
     7
 10
8.5407228938364881
 20
12.77550270722924
 30
0.0
 40
0.4999999999999991
 50
270.0
 51
0.0
  0
LINE
  5
74A
  8
0
  6
CONTINUOUS
 62
     7
 10
9.0407228920565501
 20
12.77550270722924
 30
0.0
 11
9.0407228920565501
 21
14.475502708289181
 31
0.0
  0
LINE
  5
74B
  8
0
  6
CONTINUOUS
 62
     7
 10
9.0407228920565501
 20
14.475502708289181
 30
0.0
 11
10.300722891736511
 21
14.475502708289181
 31
0.0
  0
LINE
  5
74C
  8
0
  6
CONTINUOUS
 62
     7
 10
10.300722891736511
 20
14.475502708289181
 30
0.0
 11
10.300722891736511
 21
17.275502708989158
 31
0.0
  0
LINE
  5
74D
  8
0
  6
CONTINUOUS
 62
     7
 10
10.300722891736511
 20
17.275502708989158
 30
0.0
 11
9.0407228920565501
 21
17.275502708989158
 31
0.0
  0
LINE
  5
74E
  8
0
  6
CONTINUOUS
 62
     7
 10
9.0407228920565501
 20
17.275502708989158
 30
0.0
 11
9.0407228920565501
 21
20.275502708469219
 31
0.0
  0
LINE
  5
74F
  8
0
  6
CONTINUOUS
 62
     7
 10
9.0407228920565501
 20
20.275502708469219
 30
0.0
 11
12.67822289161651
 21
20.275502708469219
 31
0.0
  0
LINE
  5
750
  8
0
  6
CONTINUOUS
 62
     7
 10
12.67822289161651
 20
16.01300270922922
 30
0.0
 11
12.67822289161651
 21
20.275502708469219
 31
0.0
  0
ARC
  5
751
  8
0
  6
CONTINUOUS
 62
     7
 10
17.440722891616499
 20
16.01300270922922
 30
0.0
 40
4.7624999999999993
 50
180.0
 51
0.0
  0
LINE
  5
752
  8
0
  6
CONTINUOUS
 62
     7
 10
22.203222891616491
 20
16.01300270922922
 30
0.0
 11
22.203222891616491
 21
20.275502708469219
 31
0.0
  0
LINE
  5
753
  8
0
  6
CONTINUOUS
 62
     7
 10
22.203222891616491
 20
20.275502708469219
 30
0.0
 11
41.653222891716517
 21
20.275502708469219
 31
0.0
  0
LINE
  5
754
  8
0
  6
CONTINUOUS
 62
     7
 10
41.653222891716517
 20
20.275502708469219
 30
0.0
 11
41.653222891716517
 21
17.275502708989158
 31
0.0
  0
LINE
  5
755
  8
0
  6
CONTINUOUS
 62
     7
 10
41.653222891716517
 20
17.275502708989158
 30
0.0
 11
40.393222892036498
 21
17.275502708989158
 31
0.0
  0
LINE
  5
756
  8
0
  6
CONTINUOUS
 62
     7
 10
40.393222892036498
 20
17.275502708989158
 30
0.0
 11
40.393222892036498
 21
14.475502708289181
 31
0.0
  0
LINE
  5
757
  8
0
  6
CONTINUOUS
 62
     7
 10
40.393222892036498
 20
14.475502708289181
 30
0.0
 11
41.653222891716517
 21
14.475502708289181
 31
0.0
  0
LINE
  5
758
  8
0
  6
CONTINUOUS
 62
     7
 10
41.653222891716517
 20
14.475502708289181
 30
0.0
 11
41.653222891716517
 21
12.77550270722924
 31
0.0
  0
ARC
  5
759
  8
0
  6
CONTINUOUS
 62
     7
 10
42.153222892476521
 20
12.77550270722924
 30
0.0
 40
0.5000000000000675
 50
180.0
 51
270.0
  0
LINE
  5
75A
  8
0
  6
CONTINUOUS
 62
     7
 10
42.153222892476521
 20
12.275502709009171
 30
0.0
 11
44.353222891756531
 21
12.275502709009171
 31
0.0
  0
ARC
  5
75B
  8
0
  6
CONTINUOUS
 62
     7
 10
44.353222891756531
 20
12.77550270722924
 30
0.0
 40
0.5000000000000219
 50
270.0
 51
0.0
  0
LINE
  5
75C
  8
0
  6
CONTINUOUS
 62
     7
 10
44.85322289251652
 20
12.77550270722924
 30
0.0
 11
44.85322289251652
 21
14.475502708289181
 31
0.0
  0
LINE
  5
75D
  8
0
  6
CONTINUOUS
 62
     7
 10
44.85322289251652
 20
14.475502708289181
 30
0.0
 11
46.11322289219649
 21
14.475502708289181
 31
0.0
  0
LINE
  5
75E
  8
0
  6
CONTINUOUS
 62
     7
 10
46.11322289219649
 20
14.475502708289181
 30
0.0
 11
46.11322289219649
 21
17.275502708989158
 31
0.0
  0
LINE
  5
75F
  8
0
  6
CONTINUOUS
 62
     7
 10
46.11322289219649
 20
17.275502708989158
 30
0.0
 11
44.85322289251652
 21
17.275502708989158
 31
0.0
  0
LINE
  5
760
  8
0
  6
CONTINUOUS
 62
     7
 10
44.85322289251652
 20
17.275502708989158
 30
0.0
 11
44.85322289251652
 21
20.275502708469219
 31
0.0
  0
LINE
  5
761
  8
0
  6
CONTINUOUS
 62
     7
 10
44.85322289251652
 20
20.275502708469219
 30
0.0
 11
64.303222892616503
 21
20.275502708469219
 31
0.0
  0
LINE
  5
762
  8
0
  6
CONTINUOUS
 62
     7
 10
64.303222892616503
 20
16.01300270922922
 30
0.0
 11
64.303222892616503
 21
20.275502708469219
 31
0.0
  0
ARC
  5
763
  8
0
  6
CONTINUOUS
 62
     7
 10
69.065722892616492
 20
16.01300270922922
 30
0.0
 40
4.7625000000000073
 50
180.0
 51
1.4983976844992499
  0
LINE
  5
764
  8
0
  6
CONTINUOUS
 62
     7
 10
73.826594386856485
 20
16.137537283629229
 30
0.0
 11
73.772483324136516
 21
20.275502708469219
 31
0.0
  0
LINE
  5
765
  8
0
  6
CONTINUOUS
 62
     7
 10
73.772483324136516
 20
20.275502708469219
 30
0.0
 11
77.465722892176501
 21
20.275502708469219
 31
0.0
  0
LINE
  5
766
  8
0
  6
CONTINUOUS
 62
     7
 10
77.465722892176501
 20
20.275502708469219
 30
0.0
 11
77.465722892176501
 21
17.275502708989158
 31
0.0
  0
LINE
  5
767
  8
0
  6
CONTINUOUS
 62
     7
 10
77.465722892176501
 20
17.275502708989158
 30
0.0
 11
76.205722892496539
 21
17.275502708989158
 31
0.0
  0
LINE
  5
768
  8
0
  6
CONTINUOUS
 62
     7
 10
76.205722892496539
 20
17.275502708989158
 30
0.0
 11
76.205722892496539
 21
14.475502708289181
 31
0.0
  0
LINE
  5
769
  8
0
  6
CONTINUOUS
 62
     7
 10
76.205722892496539
 20
14.475502708289181
 30
0.0
 11
77.465722892176501
 21
14.475502708289181
 31
0.0
  0
LINE
  5
76A
  8
0
  6
CONTINUOUS
 62
     7
 10
77.465722892176501
 20
14.475502708289181
 30
0.0
 11
77.465722892176501
 21
12.77550270722924
 31
0.0
  0
ARC
  5
76B
  8
0
  6
CONTINUOUS
 62
     7
 10
77.965722892936554
 20
12.77550270722924
 30
0.0
 40
0.5000000000000219
 50
180.0
 51
270.0
  0
LINE
  5
76C
  8
0
  6
CONTINUOUS
 62
     7
 10
77.965722892936554
 20
12.275502709009171
 30
0.0
 11
80.165722892216507
 21
12.275502709009171
 31
0.0
  0
ARC
  5
76D
  8
0
  6
CONTINUOUS
 62
     7
 10
80.165722892216507
 20
12.77550270722924
 30
0.0
 40
0.5000000000000219
 50
270.0
 51
0.0
  0
LINE
  5
76E
  8
0
  6
CONTINUOUS
 62
     7
 10
80.665722892976561
 20
12.77550270722924
 30
0.0
 11
80.665722892976561
 21
14.475502708289181
 31
0.0
  0
LINE
  5
76F
  8
0
  6
CONTINUOUS
 62
     7
 10
80.665722892976561
 20
14.475502708289181
 30
0.0
 11
81.925722892656523
 21
14.475502708289181
 31
0.0
  0
LINE
  5
770
  8
0
  6
CONTINUOUS
 62
     7
 10
81.925722892656523
 20
14.475502708289181
 30
0.0
 11
81.925722892656523
 21
17.275502708989158
 31
0.0
  0
LINE
  5
771
  8
0
  6
CONTINUOUS
 62
     7
 10
81.925722892656523
 20
17.275502708989158
 30
0.0
 11
80.665722892976561
 21
17.275502708989158
 31
0.0
  0
LINE
  5
772
  8
0
  6
CONTINUOUS
 62
     7
 10
80.665722892976561
 20
17.275502708989158
 30
0.0
 11
80.665722892976561
 21
20.275502708469219
 31
0.0
  0
LINE
  5
773
  8
0
  6
CONTINUOUS
 62
     7
 10
80.665722892976561
 20
20.275502708469219
 30
0.0
 11
86.528222892616526
 21
20.275502708469219
 31
0.0
  0
LINE
  5
774
  8
0
  6
CONTINUOUS
 62
     7
 10
86.528222892616526
 20
20.275502708469219
 30
0.0
 11
86.528222892616526
 21
6.0490054007892118
 31
0.0
  0
LINE
  5
775
  8
0
  6
CONTINUOUS
 62
     7
 10
76.528222892656487
 20
0.2755027085491974
 30
0.0
 11
86.528222892616526
 21
6.0490054007892118
 31
0.0
  0
LINE
  5
776
  8
0
  6
CONTINUOUS
 62
     7
 10
9.9782228915765074
 20
0.2755027085491974
 30
0.0
 11
76.528222892656487
 21
0.2755027085491974
 31
0.0
  0
LINE
  5
777
  8
0
  6
CONTINUOUS
 62
     7
 10
-0.0217771083834748
 20
20.275502708469219
 30
0.0
 11
-0.0217771083834748
 21
6.0490054007892118
 31
0.0
  0
LINE
  5
778
  8
0
  6
CONTINUOUS
 62
     7
 10
-0.0217771083834748
 20
6.0490054007892118
 30
0.0
 11
9.9782228915765074
 21
0.2755027085491974
 31
0.0
  0
ENDBLK
  5
77B
  8
0
  0
BLOCK
  8
0
  2
GENAXEH
 70
     0
 10
0.0
 20
0.0
 30
0.0
  3
GENAXEH
  1

  0
LINE
  5
B8B
  8
0
 10
-1.0
 20
0.0
 30
0.0
 11
1.0
 21
0.0
 31
0.0
  0
ENDBLK
  5
B8D
  8
0
  0
BLOCK
  8
0
  2
_ACMFILLEDHALF
 70
     0
 10
0.0
 20
0.0
 30
0.0
  3
_ACMFILLEDHALF
  1

  0
ENDBLK
  5
B9A
  8
0
  0
ENDSEC
  0
SECTION
  2
ENTITIES
  0
LINE
  5
34C
  8
0
  6
CONTINUOUS
 10
12.085028729695489
 20
46.435606389957911
 30
0.0
 11
12.085028729695489
 21
49.435606389437787
 31
0.0
  0
LINE
  5
34D
  8
0
  6
CONTINUOUS
 10
12.085028729695489
 20
49.435606389437787
 30
0.0
 11
10.825028730015481
 21
49.435606389437787
 31
0.0
  0
LINE
  5
34E
  8
0
  6
CONTINUOUS
 10
10.825028730015481
 20
49.435606389437787
 30
0.0
 11
10.825028730015481
 21
52.235606390137832
 31
0.0
  0
LINE
  5
34F
  8
0
  6
CONTINUOUS
 10
10.825028730015481
 20
52.235606390137832
 30
0.0
 11
12.085028729695489
 21
52.235606390137832
 31
0.0
  0
LINE
  5
350
  8
0
  6
CONTINUOUS
 10
12.085028729695489
 20
52.235606390137832
 30
0.0
 11
12.085028729695489
 21
53.935606388657902
 31
0.0
  0
ARC
  5
351
  8
0
  6
CONTINUOUS
 10
12.58502873045548
 20
53.935606388657902
 30
0.0
 40
0.5000000000000219
 50
90.0
 51
180.0
  0
LINE
  5
352
  8
0
  6
CONTINUOUS
 10
12.58502873045548
 20
54.435606389417892
 30
0.0
 11
14.78502872973548
 21
54.435606389417892
 31
0.0
  0
ARC
  5
353
  8
0
  6
CONTINUOUS
 10
14.78502872973548
 20
53.935606388657902
 30
0.0
 40
0.5000000000000219
 50
0.0
 51
90.0
  0
LINE
  5
354
  8
0
  6
CONTINUOUS
 10
15.28502873049548
 20
53.935606388657902
 30
0.0
 11
15.28502873049548
 21
52.235606390137832
 31
0.0
  0
LINE
  5
355
  8
0
  6
CONTINUOUS
 10
15.28502873049548
 20
52.235606390137832
 30
0.0
 11
16.545028730175471
 21
52.235606390137832
 31
0.0
  0
LINE
  5
356
  8
0
  6
CONTINUOUS
 10
16.545028730175471
 20
52.235606390137832
 30
0.0
 11
16.545028730175471
 21
49.435606389437787
 31
0.0
  0
LINE
  5
357
  8
0
  6
CONTINUOUS
 10
16.545028730175471
 20
49.435606389437787
 30
0.0
 11
15.28502873049548
 21
49.435606389437787
 31
0.0
  0
LINE
  5
358
  8
0
  6
CONTINUOUS
 10
15.28502873049548
 20
49.435606389437787
 30
0.0
 11
15.28502873049548
 21
46.435606389957911
 31
0.0
  0
LINE
  5
359
  8
0
  6
CONTINUOUS
 10
36.760007651200461
 20
46.435606389957911
 30
0.0
 11
36.760007651200461
 21
46.935606388177803
 31
0.0
  0
ARC
  5
35A
  8
0
  6
CONTINUOUS
 10
37.260007649420459
 20
46.935606388177803
 30
0.0
 40
0.4999999999999991
 50
90.0
 51
180.0
  0
LINE
  5
35B
  8
0
  6
CONTINUOUS
 10
37.260007649420459
 20
47.435606388937799
 30
0.0
 11
40.76000764966048
 21
47.435606388937799
 31
0.0
  0
ARC
  5
35C
  8
0
  6
CONTINUOUS
 10
40.76000764966048
 20
46.935606388177803
 30
0.0
 40
0.4999999999999991
 50
0.0
 51
90.0
  0
LINE
  5
35D
  8
0
  6
CONTINUOUS
 10
41.260007650420469
 20
46.935606388177803
 30
0.0
 11
41.260007650420469
 21
46.435606389957911
 31
0.0
  0
LINE
  5
35E
  8
0
  6
CONTINUOUS
 10
53.085028728515439
 20
46.435606389957911
 30
0.0
 11
53.085028728515439
 21
49.435606389437787
 31
0.0
  0
LINE
  5
35F
  8
0
  6
CONTINUOUS
 10
53.085028728515439
 20
49.435606389437787
 30
0.0
 11
51.82502872883542
 21
49.435606389437787
 31
0.0
  0
LINE
  5
360
  8
0
  6
CONTINUOUS
 10
51.82502872883542
 20
49.435606389437787
 30
0.0
 11
51.82502872883542
 21
52.235606390137832
 31
0.0
  0
LINE
  5
361
  8
0
  6
CONTINUOUS
 10
51.82502872883542
 20
52.235606390137832
 30
0.0
 11
53.085028728515439
 21
52.235606390137832
 31
0.0
  0
LINE
  5
362
  8
0
  6
CONTINUOUS
 10
53.085028728515439
 20
52.235606390137832
 30
0.0
 11
53.085028728515439
 21
53.935606388657902
 31
0.0
  0
ARC
  5
363
  8
0
  6
CONTINUOUS
 10
53.585028729275443
 20
53.935606388657902
 30
0.0
 40
0.5000000000000219
 50
90.0
 51
180.0
  0
LINE
  5
364
  8
0
  6
CONTINUOUS
 10
53.585028729275443
 20
54.435606389417892
 30
0.0
 11
55.785028728555439
 21
54.435606389417892
 31
0.0
  0
ARC
  5
365
  8
0
  6
CONTINUOUS
 10
55.785028728555439
 20
53.935606388657902
 30
0.0
 40
0.5000000000000219
 50
0.0
 51
90.0
  0
LINE
  5
366
  8
0
  6
CONTINUOUS
 10
56.285028729315407
 20
53.935606388657902
 30
0.0
 11
56.285028729315407
 21
52.235606390137832
 31
0.0
  0
LINE
  5
367
  8
0
  6
CONTINUOUS
 10
56.285028729315407
 20
52.235606390137832
 30
0.0
 11
57.545028728995433
 21
52.235606390137832
 31
0.0
  0
LINE
  5
368
  8
0
  6
CONTINUOUS
 10
57.545028728995433
 20
52.235606390137832
 30
0.0
 11
57.545028728995433
 21
49.435606389437787
 31
0.0
  0
LINE
  5
369
  8
0
  6
CONTINUOUS
 10
57.545028728995433
 20
49.435606389437787
 30
0.0
 11
56.285028729315407
 21
49.435606389437787
 31
0.0
  0
LINE
  5
36A
  8
0
  6
CONTINUOUS
 10
56.285028729315407
 20
49.435606389437787
 30
0.0
 11
56.285028729315407
 21
46.435606389957911
 31
0.0
  0
LINE
  5
36B
  8
0
  6
CONTINUOUS
 10
191.90833034247819
 20
46.435606389957911
 30
0.0
 11
191.90833034247819
 21
49.435606389437787
 31
0.0
  0
LINE
  5
36C
  8
0
  6
CONTINUOUS
 10
191.90833034247819
 20
49.435606389437787
 30
0.0
 11
190.6483303427982
 21
49.435606389437787
 31
0.0
  0
LINE
  5
36D
  8
0
  6
CONTINUOUS
 10
190.6483303427982
 20
49.435606389437787
 30
0.0
 11
190.6483303427982
 21
52.235606390137832
 31
0.0
  0
LINE
  5
36E
  8
0
  6
CONTINUOUS
 10
190.6483303427982
 20
52.235606390137832
 30
0.0
 11
191.90833034247819
 21
52.235606390137832
 31
0.0
  0
LINE
  5
36F
  8
0
  6
CONTINUOUS
 10
191.90833034247819
 20
52.235606390137832
 30
0.0
 11
191.90833034247819
 21
53.935606388657902
 31
0.0
  0
ARC
  5
370
  8
0
  6
CONTINUOUS
 10
192.40833034323819
 20
53.935606388657902
 30
0.0
 40
0.5000000000000219
 50
90.0
 51
180.0
  0
LINE
  5
371
  8
0
  6
CONTINUOUS
 10
192.40833034323819
 20
54.435606389417892
 30
0.0
 11
194.6083303425182
 21
54.435606389417892
 31
0.0
  0
ARC
  5
372
  8
0
  6
CONTINUOUS
 10
194.6083303425182
 20
53.935606388657902
 30
0.0
 40
0.5000000000000219
 50
0.0
 51
90.0
  0
LINE
  5
373
  8
0
  6
CONTINUOUS
 10
195.1083303432782
 20
53.935606388657902
 30
0.0
 11
195.1083303432782
 21
52.235606390137832
 31
0.0
  0
LINE
  5
374
  8
0
  6
CONTINUOUS
 10
195.1083303432782
 20
52.235606390137832
 30
0.0
 11
196.36833034295819
 21
52.235606390137832
 31
0.0
  0
LINE
  5
375
  8
0
  6
CONTINUOUS
 10
196.36833034295819
 20
52.235606390137832
 30
0.0
 11
196.36833034295819
 21
49.435606389437787
 31
0.0
  0
LINE
  5
376
  8
0
  6
CONTINUOUS
 10
196.36833034295819
 20
49.435606389437787
 30
0.0
 11
195.1083303432782
 21
49.435606389437787
 31
0.0
  0
LINE
  5
377
  8
0
  6
CONTINUOUS
 10
195.1083303432782
 20
49.435606389437787
 30
0.0
 11
195.1083303432782
 21
46.435606389957911
 31
0.0
  0
LINE
  5
378
  8
0
  6
CONTINUOUS
 10
330.809138469895
 20
46.435606389957911
 30
0.0
 11
330.809138469895
 21
49.435606389437787
 31
0.0
  0
LINE
  5
379
  8
0
  6
CONTINUOUS
 10
330.809138469895
 20
49.435606389437787
 30
0.0
 11
329.54913847021493
 21
49.435606389437787
 31
0.0
  0
LINE
  5
37A
  8
0
  6
CONTINUOUS
 10
329.54913847021493
 20
49.435606389437787
 30
0.0
 11
329.54913847021493
 21
52.235606390137832
 31
0.0
  0
LINE
  5
37B
  8
0
  6
CONTINUOUS
 10
329.54913847021493
 20
52.235606390137832
 30
0.0
 11
330.809138469895
 21
52.235606390137832
 31
0.0
  0
LINE
  5
37C
  8
0
  6
CONTINUOUS
 10
330.809138469895
 20
52.235606390137832
 30
0.0
 11
330.809138469895
 21
53.935606388657902
 31
0.0
  0
ARC
  5
37D
  8
0
  6
CONTINUOUS
 10
331.309138470655
 20
53.935606388657902
 30
0.0
 40
0.5000000000000219
 50
90.0
 51
180.0
  0
LINE
  5
37E
  8
0
  6
CONTINUOUS
 10
331.309138470655
 20
54.435606389417892
 30
0.0
 11
333.5091384699349
 21
54.435606389417892
 31
0.0
  0
ARC
  5
37F
  8
0
  6
CONTINUOUS
 10
333.5091384699349
 20
53.935606388657902
 30
0.0
 40
0.5000000000000219
 50
0.0
 51
90.0
  0
LINE
  5
380
  8
0
  6
CONTINUOUS
 10
334.00913847069489
 20
53.935606388657902
 30
0.0
 11
334.00913847069489
 21
52.235606390137832
 31
0.0
  0
LINE
  5
381
  8
0
  6
CONTINUOUS
 10
334.00913847069489
 20
52.235606390137832
 30
0.0
 11
335.26913847037491
 21
52.235606390137832
 31
0.0
  0
LINE
  5
382
  8
0
  6
CONTINUOUS
 10
335.26913847037491
 20
52.235606390137832
 30
0.0
 11
335.26913847037491
 21
49.435606389437787
 31
0.0
  0
LINE
  5
383
  8
0
  6
CONTINUOUS
 10
335.26913847037491
 20
49.435606389437787
 30
0.0
 11
334.00913847069489
 21
49.435606389437787
 31
0.0
  0
LINE
  5
384
  8
0
  6
CONTINUOUS
 10
334.00913847069489
 20
49.435606389437787
 30
0.0
 11
334.00913847069489
 21
46.435606389957911
 31
0.0
  0
LINE
  5
385
  8
0
  6
CONTINUOUS
 10
345.64885872938828
 20
46.435606389957911
 30
0.0
 11
345.64885872938828
 21
46.935606388177803
 31
0.0
  0
ARC
  5
386
  8
0
  6
CONTINUOUS
 10
346.14885872760829
 20
46.935606388177803
 30
0.0
 40
0.4999999999999761
 50
90.0
 51
180.0
  0
LINE
  5
387
  8
0
  6
CONTINUOUS
 10
346.14885872760829
 20
47.435606388937799
 30
0.0
 11
349.64885872784828
 21
47.435606388937799
 31
0.0
  0
ARC
  5
388
  8
0
  6
CONTINUOUS
 10
349.64885872784828
 20
46.935606388177803
 30
0.0
 40
0.5000000000000219
 50
0.0
 51
90.0
  0
LINE
  5
389
  8
0
  6
CONTINUOUS
 10
350.14885872860827
 20
46.935606388177803
 30
0.0
 11
350.14885872860827
 21
46.435606389957911
 31
0.0
  0
LINE
  5
38A
  8
0
  6
CONTINUOUS
 10
372.526448124745
 20
46.435606389957911
 30
0.0
 11
372.526448124745
 21
49.435606389437787
 31
0.0
  0
LINE
  5
38B
  8
0
  6
CONTINUOUS
 10
372.526448124745
 20
49.435606389437787
 30
0.0
 11
371.26644812506498
 21
49.435606389437787
 31
0.0
  0
LINE
  5
38C
  8
0
  6
CONTINUOUS
 10
371.26644812506498
 20
49.435606389437787
 30
0.0
 11
371.26644812506498
 21
52.235606390137832
 31
0.0
  0
LINE
  5
38D
  8
0
  6
CONTINUOUS
 10
371.26644812506498
 20
52.235606390137832
 30
0.0
 11
372.526448124745
 21
52.235606390137832
 31
0.0
  0
LINE
  5
38E
  8
0
  6
CONTINUOUS
 10
372.526448124745
 20
52.235606390137832
 30
0.0
 11
372.526448124745
 21
53.935606388657902
 31
0.0
  0
ARC
  5
38F
  8
0
  6
CONTINUOUS
 10
373.026448125505
 20
53.935606388657902
 30
0.0
 40
0.5000000000000219
 50
90.0
 51
180.0
  0
LINE
  5
390
  8
0
  6
CONTINUOUS
 10
373.026448125505
 20
54.435606389417892
 30
0.0
 11
375.22644812478501
 21
54.435606389417892
 31
0.0
  0
ARC
  5
391
  8
0
  6
CONTINUOUS
 10
375.22644812478501
 20
53.935606388657902
 30
0.0
 40
0.5000000000000219
 50
0.0
 51
90.0
  0
LINE
  5
392
  8
0
  6
CONTINUOUS
 10
375.72644812554501
 20
53.935606388657902
 30
0.0
 11
375.72644812554501
 21
52.235606390137832
 31
0.0
  0
LINE
  5
393
  8
0
  6
CONTINUOUS
 10
375.72644812554501
 20
52.235606390137832
 30
0.0
 11
376.98644812522502
 21
52.235606390137832
 31
0.0
  0
LINE
  5
394
  8
0
  6
CONTINUOUS
 10
376.98644812522502
 20
52.235606390137832
 30
0.0
 11
376.98644812522502
 21
49.435606389437787
 31
0.0
  0
LINE
  5
395
  8
0
  6
CONTINUOUS
 10
376.98644812522502
 20
49.435606389437787
 30
0.0
 11
375.72644812554501
 21
49.435606389437787
 31
0.0
  0
LINE
  5
396
  8
0
  6
CONTINUOUS
 10
375.72644812554501
 20
49.435606389437787
 30
0.0
 11
375.72644812554501
 21
46.435606389957911
 31
0.0
  0
LINE
  5
397
  8
0
  6
CONTINUOUS
 10
364.26135872808828
 20
66.435606389877989
 30
0.0
 11
381.26135872802831
 21
56.620651813065251
 31
0.0
  0
LINE
  5
398
  8
0
  6
CONTINUOUS
 10
5.6475076492404588
 20
56.620651813065251
 30
0.0
 11
22.647507649180461
 21
66.435606389877989
 31
0.0
  0
LINE
  5
399
  8
0
  6
CONTINUOUS
 10
31.210028729555429
 20
50.948106389577902
 30
0.0
 11
31.210028729555429
 21
46.435606389957911
 31
0.0
  0
LINE
  5
39A
  8
0
  6
CONTINUOUS
 10
334.00913847069489
 20
46.435606389957911
 30
0.0
 11
345.64885872938828
 21
46.435606389957911
 31
0.0
  0
LINE
  5
39B
  8
0
  6
CONTINUOUS
 10
355.69883764771328
 20
46.435606389957911
 30
0.0
 11
355.69883764771328
 21
50.948106389577902
 31
0.0
  0
ARC
  5
39C
  8
0
  6
CONTINUOUS
 10
360.46133764771332
 20
50.948106389577902
 30
0.0
 40
4.7624999999999993
 50
0.0
 51
180.0
  0
LINE
  5
39D
  8
0
  6
CONTINUOUS
 10
365.22383764771342
 20
50.948106389577902
 30
0.0
 11
365.22383764771342
 21
46.435606389957911
 31
0.0
  0
LINE
  5
39E
  8
0
  6
CONTINUOUS
 10
375.72644812554501
 20
46.435606389957911
 30
0.0
 11
381.26135872802831
 21
46.435606389957911
 31
0.0
  0
LINE
  5
39F
  8
0
  6
CONTINUOUS
 10
364.26135872808828
 20
66.435606389877989
 30
0.0
 11
22.647507649180461
 21
66.435606389877989
 31
0.0
  0
LINE
  5
3A0
  8
0
  6
CONTINUOUS
 10
15.28502873049548
 20
46.435606389957911
 30
0.0
 11
21.68502872955542
 21
46.435606389957911
 31
0.0
  0
LINE
  5
3A1
  8
0
  6
CONTINUOUS
 10
21.68502872955542
 20
46.435606389957911
 30
0.0
 11
21.68502872955542
 21
50.948106389577902
 31
0.0
  0
ARC
  5
3A2
  8
0
  6
CONTINUOUS
 10
26.447528729555408
 20
50.948106389577902
 30
0.0
 40
4.7625000000000091
 50
0.0
 51
180.0
  0
LINE
  5
3A3
  8
0
  6
CONTINUOUS
 10
31.210028729555429
 20
46.435606389957911
 30
0.0
 11
36.760007651200461
 21
46.435606389957911
 31
0.0
  0
LINE
  5
3A4
  8
0
  6
CONTINUOUS
 10
5.6475076492404588
 20
46.435606389957911
 30
0.0
 11
12.085028729695489
 21
46.435606389957911
 31
0.0
  0
LINE
  5
3A5
  8
0
  6
CONTINUOUS
 10
56.285028729315407
 20
46.435606389957911
 30
0.0
 11
123.0850287285154
 21
46.435606389957911
 31
0.0
  0
LINE
  5
3A6
  8
0
  6
CONTINUOUS
 10
126.2850287293154
 20
46.435606389957911
 30
0.0
 11
191.90833034247819
 21
46.435606389957911
 31
0.0
  0
LINE
  5
3A7
  8
0
  6
CONTINUOUS
 10
195.1083303432782
 20
46.435606389957911
 30
0.0
 11
260.7761297708837
 21
46.435606389957911
 31
0.0
  0
LINE
  5
3A8
  8
0
  6
CONTINUOUS
 10
263.97612977168359
 20
46.435606389957911
 30
0.0
 11
330.809138469895
 21
46.435606389957911
 31
0.0
  0
LINE
  5
3A9
  8
0
  6
CONTINUOUS
 10
365.22383764771342
 20
46.435606389957911
 30
0.0
 11
372.526448124745
 21
46.435606389957911
 31
0.0
  0
LINE
  5
3AA
  8
0
  6
CONTINUOUS
 10
41.260007650420469
 20
46.435606389957911
 30
0.0
 11
53.085028728515439
 21
46.435606389957911
 31
0.0
  0
LINE
  5
3AB
  8
0
  6
CONTINUOUS
 10
350.14885872860827
 20
46.435606389957911
 30
0.0
 11
355.69883764771328
 21
46.435606389957911
 31
0.0
  0
LINE
  5
3AC
  8
0
  6
CONTINUOUS
 10
123.0850287285154
 20
46.435606389957911
 30
0.0
 11
123.0850287285154
 21
49.497067019193651
 31
0.0
  0
LINE
  5
3AD
  8
0
  6
CONTINUOUS
 10
123.0850287285154
 20
49.497067019193651
 30
0.0
 11
121.82502872883541
 21
49.497067019193651
 31
0.0
  0
LINE
  5
3AE
  8
0
  6
CONTINUOUS
 10
121.82502872883541
 20
49.497067019193651
 30
0.0
 11
121.82502872883541
 21
52.297067019893689
 31
0.0
  0
LINE
  5
3AF
  8
0
  6
CONTINUOUS
 10
121.82502872883541
 20
52.297067019893689
 30
0.0
 11
123.0850287285154
 21
52.297067019893689
 31
0.0
  0
LINE
  5
3B0
  8
0
  6
CONTINUOUS
 10
123.0850287285154
 20
52.297067019893689
 30
0.0
 11
123.0850287285154
 21
53.997067018413759
 31
0.0
  0
ARC
  5
3B1
  8
0
  6
CONTINUOUS
 10
123.58502872927539
 20
53.997067018413759
 30
0.0
 40
0.5000000000000219
 50
90.0
 51
180.0
  0
LINE
  5
3B2
  8
0
  6
CONTINUOUS
 10
123.58502872927539
 20
54.497067019173748
 30
0.0
 11
125.7850287285554
 21
54.497067019173748
 31
0.0
  0
ARC
  5
3B3
  8
0
  6
CONTINUOUS
 10
125.7850287285554
 20
53.997067018413759
 30
0.0
 40
0.5000000000000219
 50
0.0
 51
90.0
  0
LINE
  5
3B4
  8
0
  6
CONTINUOUS
 10
126.2850287293154
 20
53.997067018413759
 30
0.0
 11
126.2850287293154
 21
52.297067019893689
 31
0.0
  0
LINE
  5
3B5
  8
0
  6
CONTINUOUS
 10
126.2850287293154
 20
52.297067019893689
 30
0.0
 11
127.5450287289954
 21
52.297067019893689
 31
0.0
  0
LINE
  5
3B6
  8
0
  6
CONTINUOUS
 10
127.5450287289954
 20
52.297067019893689
 30
0.0
 11
127.5450287289954
 21
49.497067019193651
 31
0.0
  0
LINE
  5
3B7
  8
0
  6
CONTINUOUS
 10
127.5450287289954
 20
49.497067019193651
 30
0.0
 11
126.2850287293154
 21
49.497067019193651
 31
0.0
  0
LINE
  5
3B8
  8
0
  6
CONTINUOUS
 10
126.2850287293154
 20
49.497067019193651
 30
0.0
 11
126.2850287293154
 21
46.435606389957911
 31
0.0
  0
LINE
  5
3B9
  8
0
  6
CONTINUOUS
 10
260.7761297708837
 20
46.435606389957911
 30
0.0
 11
260.7761297708837
 21
49.570292538799087
 31
0.0
  0
LINE
  5
3BA
  8
0
  6
CONTINUOUS
 10
260.7761297708837
 20
49.570292538799087
 30
0.0
 11
259.51612977120368
 21
49.570292538799087
 31
0.0
  0
LINE
  5
3BB
  8
0
  6
CONTINUOUS
 10
259.51612977120368
 20
49.570292538799087
 30
0.0
 11
259.51612977120368
 21
52.370292539499133
 31
0.0
  0
LINE
  5
3BC
  8
0
  6
CONTINUOUS
 10
259.51612977120368
 20
52.370292539499133
 30
0.0
 11
260.7761297708837
 21
52.370292539499133
 31
0.0
  0
LINE
  5
3BD
  8
0
  6
CONTINUOUS
 10
260.7761297708837
 20
52.370292539499133
 30
0.0
 11
260.7761297708837
 21
54.070292538019203
 31
0.0
  0
ARC
  5
3BE
  8
0
  6
CONTINUOUS
 10
261.2761297716437
 20
54.070292538019203
 30
0.0
 40
0.5000000000000219
 50
90.0
 51
180.0
  0
LINE
  5
3BF
  8
0
  6
CONTINUOUS
 10
261.2761297716437
 20
54.570292538779192
 30
0.0
 11
263.47612977092382
 21
54.570292538779192
 31
0.0
  0
ARC
  5
3C0
  8
0
  6
CONTINUOUS
 10
263.47612977092382
 20
54.070292538019203
 30
0.0
 40
0.5000000000000219
 50
0.0
 51
90.0
  0
LINE
  5
3C1
  8
0
  6
CONTINUOUS
 10
263.97612977168359
 20
54.070292538019203
 30
0.0
 11
263.97612977168359
 21
52.370292539499133
 31
0.0
  0
LINE
  5
3C2
  8
0
  6
CONTINUOUS
 10
263.97612977168359
 20
52.370292539499133
 30
0.0
 11
265.23612977136372
 21
52.370292539499133
 31
0.0
  0
LINE
  5
3C3
  8
0
  6
CONTINUOUS
 10
265.23612977136372
 20
52.370292539499133
 30
0.0
 11
265.23612977136372
 21
49.570292538799087
 31
0.0
  0
LINE
  5
3C4
  8
0
  6
CONTINUOUS
 10
265.23612977136372
 20
49.570292538799087
 30
0.0
 11
263.97612977168359
 21
49.570292538799087
 31
0.0
  0
LINE
  5
3C5
  8
0
  6
CONTINUOUS
 10
263.97612977168359
 20
49.570292538799087
 30
0.0
 11
263.97612977168359
 21
46.435606389957911
 31
0.0
  0
LINE
  5
3C6
  8
0
 10
381.26135872802831
 20
46.435606389957911
 30
0.0
 11
381.26135872802831
 21
56.620651813065251
 31
0.0
  0
LINE
  5
3C7
  8
0
 10
5.6475076492404588
 20
46.435606389957911
 30
0.0
 11
5.6475076492404588
 21
56.620651813065251
 31
0.0
  0
LINE
  5
630
  8
0
  6
CONTINUOUS
 10
49.293965056666039
 20
84.947926287294649
 30
0.0
 11
47.637110806246042
 21
83.291072036874652
 31
0.0
  0
ARC
  5
631
  8
0
  6
CONTINUOUS
 10
44.808683681806031
 20
86.119499161314707
 30
0.0
 40
4.0000000000000373
 50
270.0
 51
314.99999999999972
  0
LINE
  5
632
  8
0
  6
CONTINUOUS
 10
44.808683681806031
 20
82.119499162854652
 30
0.0
 11
24.46553793180604
 21
82.119499162854652
 31
0.0
  0
ARC
  5
633
  8
0
  6
CONTINUOUS
 10
24.46553793180604
 20
86.119499161314707
 30
0.0
 40
4.0000000000000373
 50
180.0
 51
270.0
  0
LINE
  5
634
  8
0
  6
CONTINUOUS
 10
20.46553793080605
 20
86.119499161314707
 30
0.0
 11
20.46553793080605
 21
93.119499161794636
 31
0.0
  0
ARC
  5
635
  8
0
  6
CONTINUOUS
 10
24.46553793180604
 20
93.119499161794636
 30
0.0
 40
4.0000000000000044
 50
90.0
 51
180.0
  0
LINE
  5
636
  8
0
  6
CONTINUOUS
 10
24.46553793180604
 20
97.119499162794682
 30
0.0
 11
25.082886613286039
 21
97.119499162794682
 31
0.0
  0
ARC
  5
637
  8
0
  6
CONTINUOUS
 10
46.46553792968605
 20
87.776353411734647
 30
0.0
 40
4.0000000000000231
 50
314.99999999999972
 51
0.0
  0
ARC
  5
638
  8
0
  6
CONTINUOUS
 10
25.082886613286039
 20
96.619499162034685
 30
0.0
 40
0.4999999999999812
 50
349.37929342680002
 51
90.0
  0
ARC
  5
639
  8
0
  6
CONTINUOUS
 10
31.815537930786039
 20
95.356999162274619
 30
0.0
 40
6.3500000000000059
 50
169.37929342679999
 51
36.287457085100328
  0
ARC
  5
63A
  8
0
  6
CONTINUOUS
 10
37.740063229286051
 20
99.706999161774604
 30
0.0
 40
1.0000000000000431
 50
90.0
 51
216.2874570851003
  0
LINE
  5
63B
  8
0
  6
CONTINUOUS
 10
37.740063229286051
 20
100.70699916075461
 30
0.0
 11
41.515537931306042
 21
100.70699916075461
 31
0.0
  0
LINE
  5
63C
  8
0
  6
CONTINUOUS
 10
41.515537931306042
 20
100.70699916075461
 30
0.0
 11
41.515537931306042
 21
94.706999161794684
 31
0.0
  0
LINE
  5
63D
  8
0
  6
CONTINUOUS
 10
41.515537931306042
 20
94.706999161794684
 30
0.0
 11
40.25553793162603
 21
94.706999161794684
 31
0.0
  0
LINE
  5
63E
  8
0
  6
CONTINUOUS
 10
40.25553793162603
 20
94.706999161794684
 30
0.0
 11
40.25553793162603
 21
91.906999161094689
 31
0.0
  0
LINE
  5
63F
  8
0
  6
CONTINUOUS
 10
40.25553793162603
 20
91.906999161094689
 30
0.0
 11
41.515537931306042
 21
91.906999161094689
 31
0.0
  0
LINE
  5
640
  8
0
  6
CONTINUOUS
 10
41.515537931306042
 20
91.906999161094689
 30
0.0
 11
41.515537931306042
 21
90.206999162574604
 31
0.0
  0
ARC
  5
641
  8
0
  6
CONTINUOUS
 10
42.015537932066039
 20
90.206999162574604
 30
0.0
 40
0.4999999999999991
 50
180.0
 51
270.0
  0
LINE
  5
642
  8
0
  6
CONTINUOUS
 10
42.015537932066039
 20
89.706999161814679
 30
0.0
 11
44.215537931346049
 21
89.706999161814679
 31
0.0
  0
ARC
  5
643
  8
0
  6
CONTINUOUS
 10
44.215537931346049
 20
90.206999162574604
 30
0.0
 40
0.4999999999999991
 50
270.0
 51
0.0
  0
LINE
  5
644
  8
0
  6
CONTINUOUS
 10
44.715537932106038
 20
90.206999162574604
 30
0.0
 11
44.715537932106038
 21
91.906999161094689
 31
0.0
  0
LINE
  5
645
  8
0
  6
CONTINUOUS
 10
44.715537932106038
 20
91.906999161094689
 30
0.0
 11
45.975537931786043
 21
91.906999161094689
 31
0.0
  0
LINE
  5
646
  8
0
  6
CONTINUOUS
 10
45.975537931786043
 20
91.906999161094689
 30
0.0
 11
45.975537931786043
 21
94.706999161794684
 31
0.0
  0
LINE
  5
647
  8
0
  6
CONTINUOUS
 10
45.975537931786043
 20
94.706999161794684
 30
0.0
 11
44.715537932106038
 21
94.706999161794684
 31
0.0
  0
LINE
  5
648
  8
0
  6
CONTINUOUS
 10
44.715537932106038
 20
94.706999161794684
 30
0.0
 11
44.715537932106038
 21
100.70699916075461
 31
0.0
  0
LINE
  5
649
  8
0
  6
CONTINUOUS
 10
44.715537932106038
 20
100.70699916075461
 30
0.0
 11
47.465537931206043
 21
100.70699916075461
 31
0.0
  0
LINE
  5
64A
  8
0
  6
CONTINUOUS
 10
47.465537931206043
 20
100.70699916075461
 30
0.0
 11
47.465537931206043
 21
101.7069991622746
 31
0.0
  0
LINE
  5
64B
  8
0
  6
CONTINUOUS
 10
47.465537931206043
 20
101.7069991622746
 30
0.0
 11
50.465537930686033
 21
101.7069991622746
 31
0.0
  0
LINE
  5
64C
  8
0
  6
CONTINUOUS
 10
50.465537930686033
 20
101.7069991622746
 30
0.0
 11
50.465537930686033
 21
87.776353411734647
 31
0.0
  0
LINE
  5
66F
  8
0
  6
CONTINUOUS
 10
50.709541373296091
 20
120.424103914497
 30
0.0
 11
49.052687122876087
 21
118.767249664077
 31
0.0
  0
ARC
  5
670
  8
0
  6
CONTINUOUS
 10
46.224259998436082
 20
121.595676788517
 30
0.0
 40
4.0000000000000373
 50
270.0
 51
314.99999999999972
  0
LINE
  5
671
  8
0
  6
CONTINUOUS
 10
46.224259998436082
 20
117.595676790057
 30
0.0
 11
25.881114248436091
 21
117.595676790057
 31
0.0
  0
ARC
  5
672
  8
0
  6
CONTINUOUS
 10
25.881114248436091
 20
121.595676788517
 30
0.0
 40
4.0000000000000373
 50
180.0
 51
270.0
  0
LINE
  5
673
  8
0
  6
CONTINUOUS
 10
21.881114247436098
 20
121.595676788517
 30
0.0
 11
21.881114247436098
 21
128.59567678899691
 31
0.0
  0
ARC
  5
674
  8
0
  6
CONTINUOUS
 10
25.881114248436091
 20
128.59567678899691
 30
0.0
 40
4.0000000000000044
 50
90.0
 51
180.0
  0
LINE
  5
675
  8
0
  6
CONTINUOUS
 10
25.881114248436091
 20
132.59567678999699
 30
0.0
 11
26.498462929916091
 21
132.59567678999699
 31
0.0
  0
ARC
  5
676
  8
0
  6
CONTINUOUS
 10
47.881114246316102
 20
123.25253103893699
 30
0.0
 40
4.0000000000000231
 50
314.99999999999972
 51
0.0
  0
ARC
  5
677
  8
0
  6
CONTINUOUS
 10
26.498462929916091
 20
132.09567678923699
 30
0.0
 40
0.4999999999999812
 50
349.37929342680002
 51
90.0
  0
ARC
  5
678
  8
0
  6
CONTINUOUS
 10
33.231114247416087
 20
130.83317678947691
 30
0.0
 40
6.3500000000000059
 50
169.37929342679999
 51
36.287457085100328
  0
ARC
  5
679
  8
0
  6
CONTINUOUS
 10
39.155639545916102
 20
135.18317678897691
 30
0.0
 40
1.0000000000000431
 50
90.0
 51
216.2874570851003
  0
LINE
  5
67A
  8
0
  6
CONTINUOUS
 10
39.155639545916102
 20
136.183176787957
 30
0.0
 11
42.931114247936087
 21
136.183176787957
 31
0.0
  0
LINE
  5
67B
  8
0
  6
CONTINUOUS
 10
42.931114247936087
 20
136.183176787957
 30
0.0
 11
42.931114247936087
 21
130.183176788997
 31
0.0
  0
LINE
  5
67C
  8
0
  6
CONTINUOUS
 10
42.931114247936087
 20
130.183176788997
 30
0.0
 11
41.671114248256082
 21
130.183176788997
 31
0.0
  0
LINE
  5
67D
  8
0
  6
CONTINUOUS
 10
41.671114248256082
 20
130.183176788997
 30
0.0
 11
41.671114248256082
 21
127.38317678829701
 31
0.0
  0
LINE
  5
67E
  8
0
  6
CONTINUOUS
 10
41.671114248256082
 20
127.38317678829701
 30
0.0
 11
42.931114247936087
 21
127.38317678829701
 31
0.0
  0
LINE
  5
67F
  8
0
  6
CONTINUOUS
 10
42.931114247936087
 20
127.38317678829701
 30
0.0
 11
42.931114247936087
 21
125.68317678977689
 31
0.0
  0
ARC
  5
680
  8
0
  6
CONTINUOUS
 10
43.43111424869609
 20
125.68317678977689
 30
0.0
 40
0.4999999999999991
 50
180.0
 51
270.0
  0
LINE
  5
681
  8
0
  6
CONTINUOUS
 10
43.43111424869609
 20
125.183176789017
 30
0.0
 11
45.6311142479761
 21
125.183176789017
 31
0.0
  0
ARC
  5
682
  8
0
  6
CONTINUOUS
 10
45.6311142479761
 20
125.68317678977689
 30
0.0
 40
0.4999999999999991
 50
270.0
 51
0.0
  0
LINE
  5
683
  8
0
  6
CONTINUOUS
 10
46.131114248736097
 20
125.68317678977689
 30
0.0
 11
46.131114248736097
 21
127.38317678829701
 31
0.0
  0
LINE
  5
684
  8
0
  6
CONTINUOUS
 10
46.131114248736097
 20
127.38317678829701
 30
0.0
 11
47.391114248416088
 21
127.38317678829701
 31
0.0
  0
LINE
  5
685
  8
0
  6
CONTINUOUS
 10
47.391114248416088
 20
127.38317678829701
 30
0.0
 11
47.391114248416088
 21
130.183176788997
 31
0.0
  0
LINE
  5
686
  8
0
  6
CONTINUOUS
 10
47.391114248416088
 20
130.183176788997
 30
0.0
 11
46.131114248736097
 21
130.183176788997
 31
0.0
  0
LINE
  5
687
  8
0
  6
CONTINUOUS
 10
46.131114248736097
 20
130.183176788997
 30
0.0
 11
46.131114248736097
 21
136.183176787957
 31
0.0
  0
LINE
  5
688
  8
0
  6
CONTINUOUS
 10
46.131114248736097
 20
136.183176787957
 30
0.0
 11
48.881114247836088
 21
136.183176787957
 31
0.0
  0
LINE
  5
689
  8
0
  6
CONTINUOUS
 10
48.881114247836088
 20
136.183176787957
 30
0.0
 11
48.881114247836088
 21
137.1831767894769
 31
0.0
  0
LINE
  5
68A
  8
0
  6
CONTINUOUS
 10
48.881114247836088
 20
137.1831767894769
 30
0.0
 11
51.881114247316091
 21
137.1831767894769
 31
0.0
  0
LINE
  5
68B
  8
0
  6
CONTINUOUS
 10
51.881114247316091
 20
137.1831767894769
 30
0.0
 11
51.881114247316091
 21
123.25253103893699
 31
0.0
  0
LINE
  5
6AE
  8
0
  6
CONTINUOUS
 10
51.108371279102137
 20
155.35226392722501
 30
0.0
 11
49.451517028682147
 21
153.69540967680501
 31
0.0
  0
ARC
  5
6AF
  8
0
  6
CONTINUOUS
 10
46.623089904242143
 20
156.5238368012451
 30
0.0
 40
4.0000000000000373
 50
270.0
 51
314.99999999999972
  0
LINE
  5
6B0
  8
0
  6
CONTINUOUS
 10
46.623089904242143
 20
152.52383680278501
 30
0.0
 11
26.279944154242148
 21
152.52383680278501
 31
0.0
  0
ARC
  5
6B1
  8
0
  6
CONTINUOUS
 10
26.279944154242148
 20
156.5238368012451
 30
0.0
 40
4.0000000000000373
 50
180.0
 51
270.0
  0
LINE
  5
6B2
  8
0
  6
CONTINUOUS
 10
22.279944153242159
 20
156.5238368012451
 30
0.0
 11
22.279944153242159
 21
163.523836801725
 31
0.0
  0
ARC
  5
6B3
  8
0
  6
CONTINUOUS
 10
26.279944154242148
 20
163.523836801725
 30
0.0
 40
4.0000000000000044
 50
90.0
 51
180.0
  0
LINE
  5
6B4
  8
0
  6
CONTINUOUS
 10
26.279944154242148
 20
167.52383680272499
 30
0.0
 11
26.897292835722141
 21
167.52383680272499
 31
0.0
  0
ARC
  5
6B5
  8
0
  6
CONTINUOUS
 10
48.279944152122162
 20
158.18069105166501
 30
0.0
 40
4.0000000000000231
 50
314.99999999999972
 51
0.0
  0
ARC
  5
6B6
  8
0
  6
CONTINUOUS
 10
26.897292835722141
 20
167.0238368019651
 30
0.0
 40
0.4999999999999812
 50
349.37929342680002
 51
90.0
  0
ARC
  5
6B7
  8
0
  6
CONTINUOUS
 10
33.629944153222141
 20
165.76133680220499
 30
0.0
 40
6.3500000000000059
 50
169.37929342679999
 51
36.287457085100328
  0
ARC
  5
6B8
  8
0
  6
CONTINUOUS
 10
39.554469451722163
 20
170.11133680170499
 30
0.0
 40
1.0000000000000431
 50
90.0
 51
216.2874570851003
  0
LINE
  5
6B9
  8
0
  6
CONTINUOUS
 10
39.554469451722163
 20
171.111336800685
 30
0.0
 11
43.329944153742147
 21
171.111336800685
 31
0.0
  0
LINE
  5
6BA
  8
0
  6
CONTINUOUS
 10
43.329944153742147
 20
171.111336800685
 30
0.0
 11
43.329944153742147
 21
165.111336801725
 31
0.0
  0
LINE
  5
6BB
  8
0
  6
CONTINUOUS
 10
43.329944153742147
 20
165.111336801725
 30
0.0
 11
42.069944154062142
 21
165.111336801725
 31
0.0
  0
LINE
  5
6BC
  8
0
  6
CONTINUOUS
 10
42.069944154062142
 20
165.111336801725
 30
0.0
 11
42.069944154062142
 21
162.31133680102499
 31
0.0
  0
LINE
  5
6BD
  8
0
  6
CONTINUOUS
 10
42.069944154062142
 20
162.31133680102499
 30
0.0
 11
43.329944153742147
 21
162.31133680102499
 31
0.0
  0
LINE
  5
6BE
  8
0
  6
CONTINUOUS
 10
43.329944153742147
 20
162.31133680102499
 30
0.0
 11
43.329944153742147
 21
160.61133680250501
 31
0.0
  0
ARC
  5
6BF
  8
0
  6
CONTINUOUS
 10
43.829944154502137
 20
160.61133680250501
 30
0.0
 40
0.4999999999999991
 50
180.0
 51
270.0
  0
LINE
  5
6C0
  8
0
  6
CONTINUOUS
 10
43.829944154502137
 20
160.11133680174501
 30
0.0
 11
46.029944153782147
 21
160.11133680174501
 31
0.0
  0
ARC
  5
6C1
  8
0
  6
CONTINUOUS
 10
46.029944153782147
 20
160.61133680250501
 30
0.0
 40
0.4999999999999991
 50
270.0
 51
0.0
  0
LINE
  5
6C2
  8
0
  6
CONTINUOUS
 10
46.52994415454215
 20
160.61133680250501
 30
0.0
 11
46.52994415454215
 21
162.31133680102499
 31
0.0
  0
LINE
  5
6C3
  8
0
  6
CONTINUOUS
 10
46.52994415454215
 20
162.31133680102499
 30
0.0
 11
47.789944154222127
 21
162.31133680102499
 31
0.0
  0
LINE
  5
6C4
  8
0
  6
CONTINUOUS
 10
47.789944154222127
 20
162.31133680102499
 30
0.0
 11
47.789944154222127
 21
165.111336801725
 31
0.0
  0
LINE
  5
6C5
  8
0
  6
CONTINUOUS
 10
47.789944154222127
 20
165.111336801725
 30
0.0
 11
46.52994415454215
 21
165.111336801725
 31
0.0
  0
LINE
  5
6C6
  8
0
  6
CONTINUOUS
 10
46.52994415454215
 20
165.111336801725
 30
0.0
 11
46.52994415454215
 21
171.111336800685
 31
0.0
  0
LINE
  5
6C7
  8
0
  6
CONTINUOUS
 10
46.52994415454215
 20
171.111336800685
 30
0.0
 11
49.279944153642148
 21
171.111336800685
 31
0.0
  0
LINE
  5
6C8
  8
0
  6
CONTINUOUS
 10
49.279944153642148
 20
171.111336800685
 30
0.0
 11
49.279944153642148
 21
172.11133680220499
 31
0.0
  0
LINE
  5
6C9
  8
0
  6
CONTINUOUS
 10
49.279944153642148
 20
172.11133680220499
 30
0.0
 11
52.279944153122138
 21
172.11133680220499
 31
0.0
  0
LINE
  5
6CA
  8
0
  6
CONTINUOUS
 10
52.279944153122138
 20
172.11133680220499
 30
0.0
 11
52.279944153122138
 21
158.18069105166501
 31
0.0
  0
LINE
  5
7F1
  8
0
  6
CONTINUOUS
 10
77.16362236658037
 20
165.6047486425696
 30
0.0
 11
83.026122368760326
 21
165.6047486425696
 31
0.0
  0
LINE
  5
7F2
  8
0
  6
CONTINUOUS
 10
83.026122368760326
 20
165.6047486425696
 30
0.0
 11
83.026122368760326
 21
162.60474864308961
 31
0.0
  0
LINE
  5
7F3
  8
0
  6
CONTINUOUS
 10
83.026122368760326
 20
162.60474864308961
 30
0.0
 11
81.766122366540372
 21
162.60474864308961
 31
0.0
  0
LINE
  5
7F4
  8
0
  6
CONTINUOUS
 10
81.766122366540372
 20
162.60474864308961
 30
0.0
 11
81.766122366540372
 21
159.8047486423896
 31
0.0
  0
LINE
  5
7F5
  8
0
  6
CONTINUOUS
 10
81.766122366540372
 20
159.8047486423896
 30
0.0
 11
83.026122368760326
 21
159.8047486423896
 31
0.0
  0
LINE
  5
7F6
  8
0
  6
CONTINUOUS
 10
83.026122368760326
 20
159.8047486423896
 30
0.0
 11
83.026122368760326
 21
158.10474864132959
 31
0.0
  0
ARC
  5
7F7
  8
0
  6
CONTINUOUS
 10
83.526122366980388
 20
158.10474864132959
 30
0.0
 40
0.5000000000000219
 50
180.0
 51
270.0
  0
LINE
  5
7F8
  8
0
  6
CONTINUOUS
 10
83.526122366980388
 20
157.60474864310959
 30
0.0
 11
85.726122368800333
 21
157.60474864310959
 31
0.0
  0
ARC
  5
7F9
  8
0
  6
CONTINUOUS
 10
85.726122368800333
 20
158.10474864132959
 30
0.0
 40
0.4999999999999991
 50
270.0
 51
0.0
  0
LINE
  5
7FA
  8
0
  6
CONTINUOUS
 10
86.226122367020395
 20
158.10474864132959
 30
0.0
 11
86.226122367020395
 21
159.8047486423896
 31
0.0
  0
LINE
  5
7FB
  8
0
  6
CONTINUOUS
 10
86.226122367020395
 20
159.8047486423896
 30
0.0
 11
87.486122366700357
 21
159.8047486423896
 31
0.0
  0
LINE
  5
7FC
  8
0
  6
CONTINUOUS
 10
87.486122366700357
 20
159.8047486423896
 30
0.0
 11
87.486122366700357
 21
162.60474864308961
 31
0.0
  0
LINE
  5
7FD
  8
0
  6
CONTINUOUS
 10
87.486122366700357
 20
162.60474864308961
 30
0.0
 11
86.226122367020395
 21
162.60474864308961
 31
0.0
  0
LINE
  5
7FE
  8
0
  6
CONTINUOUS
 10
86.226122367020395
 20
162.60474864308961
 30
0.0
 11
86.226122367020395
 21
165.6047486425696
 31
0.0
  0
LINE
  5
7FF
  8
0
  6
CONTINUOUS
 10
86.226122367020395
 20
165.6047486425696
 30
0.0
 11
89.863622366580358
 21
165.6047486425696
 31
0.0
  0
LINE
  5
800
  8
0
  6
CONTINUOUS
 10
89.863622366580358
 20
161.34224864332961
 30
0.0
 11
89.863622366580358
 21
165.6047486425696
 31
0.0
  0
ARC
  5
801
  8
0
  6
CONTINUOUS
 10
94.626122366580347
 20
161.34224864332961
 30
0.0
 40
4.7624999999999993
 50
180.0
 51
0.0
  0
LINE
  5
802
  8
0
  6
CONTINUOUS
 10
99.388622366580336
 20
161.34224864332961
 30
0.0
 11
99.388622366580336
 21
165.6047486425696
 31
0.0
  0
LINE
  5
803
  8
0
  6
CONTINUOUS
 10
99.388622366580336
 20
165.6047486425696
 30
0.0
 11
118.8386223666803
 21
165.6047486425696
 31
0.0
  0
LINE
  5
804
  8
0
  6
CONTINUOUS
 10
118.8386223666803
 20
165.6047486425696
 30
0.0
 11
118.8386223666803
 21
162.60474864308961
 31
0.0
  0
LINE
  5
805
  8
0
  6
CONTINUOUS
 10
118.8386223666803
 20
162.60474864308961
 30
0.0
 11
117.57862236700031
 21
162.60474864308961
 31
0.0
  0
LINE
  5
806
  8
0
  6
CONTINUOUS
 10
117.57862236700031
 20
162.60474864308961
 30
0.0
 11
117.57862236700031
 21
159.8047486423896
 31
0.0
  0
LINE
  5
807
  8
0
  6
CONTINUOUS
 10
117.57862236700031
 20
159.8047486423896
 30
0.0
 11
118.8386223666803
 21
159.8047486423896
 31
0.0
  0
LINE
  5
808
  8
0
  6
CONTINUOUS
 10
118.8386223666803
 20
159.8047486423896
 30
0.0
 11
118.8386223666803
 21
158.10474864132959
 31
0.0
  0
ARC
  5
809
  8
0
  6
CONTINUOUS
 10
119.33862236744029
 20
158.10474864132959
 30
0.0
 40
0.5000000000000675
 50
180.0
 51
270.0
  0
LINE
  5
80A
  8
0
  6
CONTINUOUS
 10
119.33862236744029
 20
157.60474864310959
 30
0.0
 11
121.5386223667203
 21
157.60474864310959
 31
0.0
  0
ARC
  5
80B
  8
0
  6
CONTINUOUS
 10
121.5386223667203
 20
158.10474864132959
 30
0.0
 40
0.5000000000000219
 50
270.0
 51
0.0
  0
LINE
  5
80C
  8
0
  6
CONTINUOUS
 10
122.0386223674803
 20
158.10474864132959
 30
0.0
 11
122.0386223674803
 21
159.8047486423896
 31
0.0
  0
LINE
  5
80D
  8
0
  6
CONTINUOUS
 10
122.0386223674803
 20
159.8047486423896
 30
0.0
 11
123.29862236716031
 21
159.8047486423896
 31
0.0
  0
LINE
  5
80E
  8
0
  6
CONTINUOUS
 10
123.29862236716031
 20
159.8047486423896
 30
0.0
 11
123.29862236716031
 21
162.60474864308961
 31
0.0
  0
LINE
  5
80F
  8
0
  6
CONTINUOUS
 10
123.29862236716031
 20
162.60474864308961
 30
0.0
 11
122.0386223674803
 21
162.60474864308961
 31
0.0
  0
LINE
  5
810
  8
0
  6
CONTINUOUS
 10
122.0386223674803
 20
162.60474864308961
 30
0.0
 11
122.0386223674803
 21
165.6047486425696
 31
0.0
  0
LINE
  5
811
  8
0
  6
CONTINUOUS
 10
122.0386223674803
 20
165.6047486425696
 30
0.0
 11
141.48862236758029
 21
165.6047486425696
 31
0.0
  0
LINE
  5
812
  8
0
  6
CONTINUOUS
 10
141.48862236758029
 20
161.34224864332961
 30
0.0
 11
141.48862236758029
 21
165.6047486425696
 31
0.0
  0
ARC
  5
813
  8
0
  6
CONTINUOUS
 10
146.25112236758031
 20
161.34224864332961
 30
0.0
 40
4.7625000000000073
 50
180.0
 51
1.4983976844992499
  0
LINE
  5
814
  8
0
  6
CONTINUOUS
 10
151.01199386182029
 20
161.46678321772961
 30
0.0
 11
150.9578827991003
 21
165.6047486425696
 31
0.0
  0
LINE
  5
815
  8
0
  6
CONTINUOUS
 10
150.9578827991003
 20
165.6047486425696
 30
0.0
 11
154.65112236714029
 21
165.6047486425696
 31
0.0
  0
LINE
  5
816
  8
0
  6
CONTINUOUS
 10
154.65112236714029
 20
165.6047486425696
 30
0.0
 11
154.65112236714029
 21
162.60474864308961
 31
0.0
  0
LINE
  5
817
  8
0
  6
CONTINUOUS
 10
154.65112236714029
 20
162.60474864308961
 30
0.0
 11
153.39112236746041
 21
162.60474864308961
 31
0.0
  0
LINE
  5
818
  8
0
  6
CONTINUOUS
 10
153.39112236746041
 20
162.60474864308961
 30
0.0
 11
153.39112236746041
 21
159.8047486423896
 31
0.0
  0
LINE
  5
819
  8
0
  6
CONTINUOUS
 10
153.39112236746041
 20
159.8047486423896
 30
0.0
 11
154.65112236714029
 21
159.8047486423896
 31
0.0
  0
LINE
  5
81A
  8
0
  6
CONTINUOUS
 10
154.65112236714029
 20
159.8047486423896
 30
0.0
 11
154.65112236714029
 21
158.10474864132959
 31
0.0
  0
ARC
  5
81B
  8
0
  6
CONTINUOUS
 10
155.1511223679004
 20
158.10474864132959
 30
0.0
 40
0.5000000000000219
 50
180.0
 51
270.0
  0
LINE
  5
81C
  8
0
  6
CONTINUOUS
 10
155.1511223679004
 20
157.60474864310959
 30
0.0
 11
157.3511223671803
 21
157.60474864310959
 31
0.0
  0
ARC
  5
81D
  8
0
  6
CONTINUOUS
 10
157.3511223671803
 20
158.10474864132959
 30
0.0
 40
0.5000000000000219
 50
270.0
 51
0.0
  0
LINE
  5
81E
  8
0
  6
CONTINUOUS
 10
157.85112236794041
 20
158.10474864132959
 30
0.0
 11
157.85112236794041
 21
159.8047486423896
 31
0.0
  0
LINE
  5
81F
  8
0
  6
CONTINUOUS
 10
157.85112236794041
 20
159.8047486423896
 30
0.0
 11
159.11112236762031
 21
159.8047486423896
 31
0.0
  0
LINE
  5
820
  8
0
  6
CONTINUOUS
 10
159.11112236762031
 20
159.8047486423896
 30
0.0
 11
159.11112236762031
 21
162.60474864308961
 31
0.0
  0
LINE
  5
821
  8
0
  6
CONTINUOUS
 10
159.11112236762031
 20
162.60474864308961
 30
0.0
 11
157.85112236794041
 21
162.60474864308961
 31
0.0
  0
LINE
  5
822
  8
0
  6
CONTINUOUS
 10
157.85112236794041
 20
162.60474864308961
 30
0.0
 11
157.85112236794041
 21
165.6047486425696
 31
0.0
  0
LINE
  5
823
  8
0
  6
CONTINUOUS
 10
157.85112236794041
 20
165.6047486425696
 30
0.0
 11
163.7136223675804
 21
165.6047486425696
 31
0.0
  0
LINE
  5
824
  8
0
  6
CONTINUOUS
 10
163.7136223675804
 20
165.6047486425696
 30
0.0
 11
163.7136223675804
 21
151.3782513348896
 31
0.0
  0
LINE
  5
825
  8
0
  6
CONTINUOUS
 10
153.7136223676203
 20
145.60474864264961
 30
0.0
 11
163.7136223675804
 21
151.3782513348896
 31
0.0
  0
LINE
  5
826
  8
0
  6
CONTINUOUS
 10
87.163622366540352
 20
145.60474864264961
 30
0.0
 11
153.7136223676203
 21
145.60474864264961
 31
0.0
  0
LINE
  5
827
  8
0
  6
CONTINUOUS
 10
77.16362236658037
 20
165.6047486425696
 30
0.0
 11
77.16362236658037
 21
151.3782513348896
 31
0.0
  0
LINE
  5
828
  8
0
  6
CONTINUOUS
 10
77.16362236658037
 20
151.3782513348896
 30
0.0
 11
87.163622366540352
 21
145.60474864264961
 31
0.0
  0
LINE
  5
829
  8
0
  6
CONTINUOUS
 10
78.717468742807057
 20
119.9694793483976
 30
0.0
 11
84.579968744987013
 21
119.9694793483976
 31
0.0
  0
LINE
  5
82A
  8
0
  6
CONTINUOUS
 10
84.579968744987013
 20
119.9694793483976
 30
0.0
 11
84.579968744987013
 21
116.9694793489175
 31
0.0
  0
LINE
  5
82B
  8
0
  6
CONTINUOUS
 10
84.579968744987013
 20
116.9694793489175
 30
0.0
 11
83.31996874276706
 21
116.9694793489175
 31
0.0
  0
LINE
  5
82C
  8
0
  6
CONTINUOUS
 10
83.31996874276706
 20
116.9694793489175
 30
0.0
 11
83.31996874276706
 21
114.16947934821749
 31
0.0
  0
LINE
  5
82D
  8
0
  6
CONTINUOUS
 10
83.31996874276706
 20
114.16947934821749
 30
0.0
 11
84.579968744987013
 21
114.16947934821749
 31
0.0
  0
LINE
  5
82E
  8
0
  6
CONTINUOUS
 10
84.579968744987013
 20
114.16947934821749
 30
0.0
 11
84.579968744987013
 21
112.4694793471576
 31
0.0
  0
ARC
  5
82F
  8
0
  6
CONTINUOUS
 10
85.079968743207075
 20
112.4694793471576
 30
0.0
 40
0.5000000000000219
 50
180.0
 51
270.0
  0
LINE
  5
830
  8
0
  6
CONTINUOUS
 10
85.079968743207075
 20
111.9694793489375
 30
0.0
 11
87.27996874502702
 21
111.9694793489375
 31
0.0
  0
ARC
  5
831
  8
0
  6
CONTINUOUS
 10
87.27996874502702
 20
112.4694793471576
 30
0.0
 40
0.4999999999999991
 50
270.0
 51
0.0
  0
LINE
  5
832
  8
0
  6
CONTINUOUS
 10
87.779968743247082
 20
112.4694793471576
 30
0.0
 11
87.779968743247082
 21
114.16947934821749
 31
0.0
  0
LINE
  5
833
  8
0
  6
CONTINUOUS
 10
87.779968743247082
 20
114.16947934821749
 30
0.0
 11
89.039968742927044
 21
114.16947934821749
 31
0.0
  0
LINE
  5
834
  8
0
  6
CONTINUOUS
 10
89.039968742927044
 20
114.16947934821749
 30
0.0
 11
89.039968742927044
 21
116.9694793489175
 31
0.0
  0
LINE
  5
835
  8
0
  6
CONTINUOUS
 10
89.039968742927044
 20
116.9694793489175
 30
0.0
 11
87.779968743247082
 21
116.9694793489175
 31
0.0
  0
LINE
  5
836
  8
0
  6
CONTINUOUS
 10
87.779968743247082
 20
116.9694793489175
 30
0.0
 11
87.779968743247082
 21
119.9694793483976
 31
0.0
  0
LINE
  5
837
  8
0
  6
CONTINUOUS
 10
87.779968743247082
 20
119.9694793483976
 30
0.0
 11
91.417468742807046
 21
119.9694793483976
 31
0.0
  0
LINE
  5
838
  8
0
  6
CONTINUOUS
 10
91.417468742807046
 20
115.70697934915761
 30
0.0
 11
91.417468742807046
 21
119.9694793483976
 31
0.0
  0
ARC
  5
839
  8
0
  6
CONTINUOUS
 10
96.179968742807034
 20
115.70697934915761
 30
0.0
 40
4.7624999999999993
 50
180.0
 51
0.0
  0
LINE
  5
83A
  8
0
  6
CONTINUOUS
 10
100.94246874280699
 20
115.70697934915761
 30
0.0
 11
100.94246874280699
 21
119.9694793483976
 31
0.0
  0
LINE
  5
83B
  8
0
  6
CONTINUOUS
 10
100.94246874280699
 20
119.9694793483976
 30
0.0
 11
120.392468742907
 21
119.9694793483976
 31
0.0
  0
LINE
  5
83C
  8
0
  6
CONTINUOUS
 10
120.392468742907
 20
119.9694793483976
 30
0.0
 11
120.392468742907
 21
116.9694793489175
 31
0.0
  0
LINE
  5
83D
  8
0
  6
CONTINUOUS
 10
120.392468742907
 20
116.9694793489175
 30
0.0
 11
119.13246874322699
 21
116.9694793489175
 31
0.0
  0
LINE
  5
83E
  8
0
  6
CONTINUOUS
 10
119.13246874322699
 20
116.9694793489175
 30
0.0
 11
119.13246874322699
 21
114.16947934821749
 31
0.0
  0
LINE
  5
83F
  8
0
  6
CONTINUOUS
 10
119.13246874322699
 20
114.16947934821749
 30
0.0
 11
120.392468742907
 21
114.16947934821749
 31
0.0
  0
LINE
  5
840
  8
0
  6
CONTINUOUS
 10
120.392468742907
 20
114.16947934821749
 30
0.0
 11
120.392468742907
 21
112.4694793471576
 31
0.0
  0
ARC
  5
841
  8
0
  6
CONTINUOUS
 10
120.892468743667
 20
112.4694793471576
 30
0.0
 40
0.5000000000000675
 50
180.0
 51
270.0
  0
LINE
  5
842
  8
0
  6
CONTINUOUS
 10
120.892468743667
 20
111.9694793489375
 30
0.0
 11
123.09246874294701
 21
111.9694793489375
 31
0.0
  0
ARC
  5
843
  8
0
  6
CONTINUOUS
 10
123.09246874294701
 20
112.4694793471576
 30
0.0
 40
0.5000000000000219
 50
270.0
 51
0.0
  0
LINE
  5
844
  8
0
  6
CONTINUOUS
 10
123.592468743707
 20
112.4694793471576
 30
0.0
 11
123.592468743707
 21
114.16947934821749
 31
0.0
  0
LINE
  5
845
  8
0
  6
CONTINUOUS
 10
123.592468743707
 20
114.16947934821749
 30
0.0
 11
124.85246874338701
 21
114.16947934821749
 31
0.0
  0
LINE
  5
846
  8
0
  6
CONTINUOUS
 10
124.85246874338701
 20
114.16947934821749
 30
0.0
 11
124.85246874338701
 21
116.9694793489175
 31
0.0
  0
LINE
  5
847
  8
0
  6
CONTINUOUS
 10
124.85246874338701
 20
116.9694793489175
 30
0.0
 11
123.592468743707
 21
116.9694793489175
 31
0.0
  0
LINE
  5
848
  8
0
  6
CONTINUOUS
 10
123.592468743707
 20
116.9694793489175
 30
0.0
 11
123.592468743707
 21
119.9694793483976
 31
0.0
  0
LINE
  5
849
  8
0
  6
CONTINUOUS
 10
123.592468743707
 20
119.9694793483976
 30
0.0
 11
143.04246874380701
 21
119.9694793483976
 31
0.0
  0
LINE
  5
84A
  8
0
  6
CONTINUOUS
 10
143.04246874380701
 20
115.70697934915761
 30
0.0
 11
143.04246874380701
 21
119.9694793483976
 31
0.0
  0
ARC
  5
84B
  8
0
  6
CONTINUOUS
 10
147.804968743807
 20
115.70697934915761
 30
0.0
 40
4.7625000000000073
 50
180.0
 51
1.4983976844992499
  0
LINE
  5
84C
  8
0
  6
CONTINUOUS
 10
152.565840238047
 20
115.83151392355759
 30
0.0
 11
152.51172917532699
 21
119.9694793483976
 31
0.0
  0
LINE
  5
84D
  8
0
  6
CONTINUOUS
 10
152.51172917532699
 20
119.9694793483976
 30
0.0
 11
156.204968743367
 21
119.9694793483976
 31
0.0
  0
LINE
  5
84E
  8
0
  6
CONTINUOUS
 10
156.204968743367
 20
119.9694793483976
 30
0.0
 11
156.204968743367
 21
116.9694793489175
 31
0.0
  0
LINE
  5
84F
  8
0
  6
CONTINUOUS
 10
156.204968743367
 20
116.9694793489175
 30
0.0
 11
154.9449687436871
 21
116.9694793489175
 31
0.0
  0
LINE
  5
850
  8
0
  6
CONTINUOUS
 10
154.9449687436871
 20
116.9694793489175
 30
0.0
 11
154.9449687436871
 21
114.16947934821749
 31
0.0
  0
LINE
  5
851
  8
0
  6
CONTINUOUS
 10
154.9449687436871
 20
114.16947934821749
 30
0.0
 11
156.204968743367
 21
114.16947934821749
 31
0.0
  0
LINE
  5
852
  8
0
  6
CONTINUOUS
 10
156.204968743367
 20
114.16947934821749
 30
0.0
 11
156.204968743367
 21
112.4694793471576
 31
0.0
  0
ARC
  5
853
  8
0
  6
CONTINUOUS
 10
156.70496874412709
 20
112.4694793471576
 30
0.0
 40
0.5000000000000219
 50
180.0
 51
270.0
  0
LINE
  5
854
  8
0
  6
CONTINUOUS
 10
156.70496874412709
 20
111.9694793489375
 30
0.0
 11
158.90496874340701
 21
111.9694793489375
 31
0.0
  0
ARC
  5
855
  8
0
  6
CONTINUOUS
 10
158.90496874340701
 20
112.4694793471576
 30
0.0
 40
0.5000000000000219
 50
270.0
 51
0.0
  0
LINE
  5
856
  8
0
  6
CONTINUOUS
 10
159.40496874416709
 20
112.4694793471576
 30
0.0
 11
159.40496874416709
 21
114.16947934821749
 31
0.0
  0
LINE
  5
857
  8
0
  6
CONTINUOUS
 10
159.40496874416709
 20
114.16947934821749
 30
0.0
 11
160.664968743847
 21
114.16947934821749
 31
0.0
  0
LINE
  5
858
  8
0
  6
CONTINUOUS
 10
160.664968743847
 20
114.16947934821749
 30
0.0
 11
160.664968743847
 21
116.9694793489175
 31
0.0
  0
LINE
  5
859
  8
0
  6
CONTINUOUS
 10
160.664968743847
 20
116.9694793489175
 30
0.0
 11
159.40496874416709
 21
116.9694793489175
 31
0.0
  0
LINE
  5
85A
  8
0
  6
CONTINUOUS
 10
159.40496874416709
 20
116.9694793489175
 30
0.0
 11
159.40496874416709
 21
119.9694793483976
 31
0.0
  0
LINE
  5
85B
  8
0
  6
CONTINUOUS
 10
159.40496874416709
 20
119.9694793483976
 30
0.0
 11
165.267468743807
 21
119.9694793483976
 31
0.0
  0
LINE
  5
85C
  8
0
  6
CONTINUOUS
 10
165.267468743807
 20
119.9694793483976
 30
0.0
 11
165.267468743807
 21
105.74298204071761
 31
0.0
  0
LINE
  5
85D
  8
0
  6
CONTINUOUS
 10
155.26746874384699
 20
99.969479348477577
 30
0.0
 11
165.267468743807
 21
105.74298204071761
 31
0.0
  0
LINE
  5
85E
  8
0
  6
CONTINUOUS
 10
88.717468742767039
 20
99.969479348477577
 30
0.0
 11
155.26746874384699
 21
99.969479348477577
 31
0.0
  0
LINE
  5
85F
  8
0
  6
CONTINUOUS
 10
78.717468742807057
 20
119.9694793483976
 30
0.0
 11
78.717468742807057
 21
105.74298204071761
 31
0.0
  0
LINE
  5
860
  8
0
  6
CONTINUOUS
 10
78.717468742807057
 20
105.74298204071761
 30
0.0
 11
88.717468742767039
 21
99.969479348477577
 31
0.0
  0
LINE
  5
926
  8
0
  6
CONTINUOUS
 10
192.9225048331528
 20
98.350300102197437
 30
0.0
 11
192.9225048331528
 21
112.63104702705741
 31
0.0
  0
ARC
  5
927
  8
0
  6
CONTINUOUS
 10
187.5772654576127
 20
105.3903001014174
 30
0.0
 40
9.0000000000000302
 50
53.564641874800607
 51
90.0
  0
LINE
  5
928
  8
0
  6
CONTINUOUS
 10
187.5772654576127
 20
114.3903001023974
 30
0.0
 11
181.11765221735271
 21
114.3903001023974
 31
0.0
  0
ARC
  5
929
  8
0
  6
CONTINUOUS
 10
181.11765221735271
 20
119.3903001023774
 30
0.0
 40
4.999999999999992
 50
216.86989764580039
 51
270.0
  0
LINE
  5
92A
  8
0
  6
CONTINUOUS
 10
177.1176522163527
 20
116.3903001028974
 30
0.0
 11
192.9225048331528
 21
116.3903001028974
 31
0.0
  0
LINE
  5
92B
  8
0
  6
CONTINUOUS
 10
192.9225048331528
 20
116.3903001028974
 30
0.0
 11
192.9225048331528
 21
117.1403001014974
 31
0.0
  0
LINE
  5
92C
  8
0
  6
CONTINUOUS
 10
192.9225048331528
 20
117.1403001014974
 30
0.0
 11
192.75507852335269
 21
117.60030010097741
 31
0.0
  0
LINE
  5
92D
  8
0
  6
CONTINUOUS
 10
192.75507852335269
 20
117.60030010097741
 30
0.0
 11
191.9950785244327
 21
117.60030010097741
 31
0.0
  0
LINE
  5
92E
  8
0
  6
CONTINUOUS
 10
191.9950785244327
 20
117.60030010097741
 30
0.0
 11
191.82765221717281
 21
117.1403001014974
 31
0.0
  0
LINE
  5
92F
  8
0
  6
CONTINUOUS
 10
191.82765221717281
 20
117.1403001014974
 30
0.0
 11
190.89250483169269
 21
117.1403001014974
 31
0.0
  0
LINE
  5
930
  8
0
  6
CONTINUOUS
 10
190.89250483169269
 20
117.1403001014974
 30
0.0
 11
190.72507852443269
 21
117.60030010097741
 31
0.0
  0
LINE
  5
931
  8
0
  6
CONTINUOUS
 10
190.72507852443269
 20
117.60030010097741
 30
0.0
 11
189.96507852551269
 21
117.60030010097741
 31
0.0
  0
LINE
  5
932
  8
0
  6
CONTINUOUS
 10
189.96507852551269
 20
117.60030010097741
 30
0.0
 11
189.7976522157127
 21
117.1403001014974
 31
0.0
  0
LINE
  5
933
  8
0
  6
CONTINUOUS
 10
189.7976522157127
 20
117.1403001014974
 30
0.0
 11
188.86250483277269
 21
117.1403001014974
 31
0.0
  0
LINE
  5
934
  8
0
  6
CONTINUOUS
 10
188.86250483277269
 20
117.1403001014974
 30
0.0
 11
188.69507852551271
 21
117.60030010097741
 31
0.0
  0
LINE
  5
935
  8
0
  6
CONTINUOUS
 10
188.69507852551271
 20
117.60030010097741
 30
0.0
 11
187.9350785240527
 21
117.60030010097741
 31
0.0
  0
LINE
  5
936
  8
0
  6
CONTINUOUS
 10
187.9350785240527
 20
117.60030010097741
 30
0.0
 11
187.7676522167927
 21
117.1403001014974
 31
0.0
  0
LINE
  5
937
  8
0
  6
CONTINUOUS
 10
187.7676522167927
 20
117.1403001014974
 30
0.0
 11
186.83250483131269
 21
117.1403001014974
 31
0.0
  0
LINE
  5
938
  8
0
  6
CONTINUOUS
 10
186.83250483131269
 20
117.1403001014974
 30
0.0
 11
186.66507852405269
 21
117.60030010097741
 31
0.0
  0
LINE
  5
939
  8
0
  6
CONTINUOUS
 10
186.66507852405269
 20
117.60030010097741
 30
0.0
 11
185.90507852513281
 21
117.60030010097741
 31
0.0
  0
LINE
  5
93A
  8
0
  6
CONTINUOUS
 10
185.90507852513281
 20
117.60030010097741
 30
0.0
 11
185.7376522153327
 21
117.1403001014974
 31
0.0
  0
LINE
  5
93B
  8
0
  6
CONTINUOUS
 10
185.7376522153327
 20
117.1403001014974
 30
0.0
 11
184.80250483239271
 21
117.1403001014974
 31
0.0
  0
LINE
  5
93C
  8
0
  6
CONTINUOUS
 10
184.80250483239271
 20
117.1403001014974
 30
0.0
 11
184.6350785251328
 21
117.60030010097741
 31
0.0
  0
LINE
  5
93D
  8
0
  6
CONTINUOUS
 10
184.6350785251328
 20
117.60030010097741
 30
0.0
 11
183.87507852367281
 21
117.60030010097741
 31
0.0
  0
LINE
  5
93E
  8
0
  6
CONTINUOUS
 10
183.87507852367281
 20
117.60030010097741
 30
0.0
 11
183.7076522164127
 21
117.1403001014974
 31
0.0
  0
LINE
  5
93F
  8
0
  6
CONTINUOUS
 10
183.7076522164127
 20
117.1403001014974
 30
0.0
 11
182.77250483093269
 21
117.1403001014974
 31
0.0
  0
LINE
  5
940
  8
0
  6
CONTINUOUS
 10
182.77250483093269
 20
117.1403001014974
 30
0.0
 11
182.60507852367269
 21
117.60030010097741
 31
0.0
  0
LINE
  5
941
  8
0
  6
CONTINUOUS
 10
182.60507852367269
 20
117.60030010097741
 30
0.0
 11
181.84507852475269
 21
117.60030010097741
 31
0.0
  0
LINE
  5
942
  8
0
  6
CONTINUOUS
 10
181.84507852475269
 20
117.60030010097741
 30
0.0
 11
181.67765221749269
 21
117.1403001014974
 31
0.0
  0
LINE
  5
943
  8
0
  6
CONTINUOUS
 10
181.67765221749269
 20
117.1403001014974
 30
0.0
 11
180.74250483201271
 21
117.1403001014974
 31
0.0
  0
LINE
  5
944
  8
0
  6
CONTINUOUS
 10
180.74250483201271
 20
117.1403001014974
 30
0.0
 11
180.57507852475271
 21
117.60030010097741
 31
0.0
  0
LINE
  5
945
  8
0
  6
CONTINUOUS
 10
180.57507852475271
 20
117.60030010097741
 30
0.0
 11
179.8150785232927
 21
117.60030010097741
 31
0.0
  0
LINE
  5
946
  8
0
  6
CONTINUOUS
 10
179.8150785232927
 20
117.60030010097741
 30
0.0
 11
179.6476522160327
 21
117.1403001014974
 31
0.0
  0
LINE
  5
947
  8
0
  6
CONTINUOUS
 10
179.6476522160327
 20
117.1403001014974
 30
0.0
 11
178.71250483309279
 21
117.1403001014974
 31
0.0
  0
LINE
  5
948
  8
0
  6
CONTINUOUS
 10
178.71250483309279
 20
117.1403001014974
 30
0.0
 11
178.54507852329269
 21
117.60030010097741
 31
0.0
  0
LINE
  5
949
  8
0
  6
CONTINUOUS
 10
178.54507852329269
 20
117.60030010097741
 30
0.0
 11
177.78507852437269
 21
117.60030010097741
 31
0.0
  0
LINE
  5
94A
  8
0
  6
CONTINUOUS
 10
177.78507852437269
 20
117.60030010097741
 30
0.0
 11
177.61765221711269
 21
117.1403001014974
 31
0.0
  0
LINE
  5
94B
  8
0
  6
CONTINUOUS
 10
177.61765221711269
 20
117.1403001014974
 30
0.0
 11
177.1176522163527
 21
117.1403001014974
 31
0.0
  0
LINE
  5
94C
  8
0
  6
CONTINUOUS
 10
177.1176522163527
 20
117.1403001014974
 30
0.0
 11
177.1176522163527
 21
118.6003001024974
 31
0.0
  0
ARC
  5
94D
  8
0
  6
CONTINUOUS
 10
182.11765221633269
 20
118.6003001024974
 30
0.0
 40
4.9999999999999458
 50
90.0
 51
180.0
  0
LINE
  5
94E
  8
0
  6
CONTINUOUS
 10
182.11765221633269
 20
123.60030010247731
 30
0.0
 11
191.12162064981271
 21
123.60030010247731
 31
0.0
  0
POLYLINE
  5
94F
  8
0
  6
CONTINUOUS
 66
     1
 10
0.0
 20
0.0
 30
0.0
  0
VERTEX
  5
BFF
  8
0
  6
CONTINUOUS
 10
191.12162064981271
 20
123.60030010247731
 30
0.0
  0
VERTEX
  5
C00
  8
0
  6
CONTINUOUS
 10
192.02206273767271
 20
123.6315082442774
 30
0.0
  0
VERTEX
  5
C01
  8
0
  6
CONTINUOUS
 10
192.9225048280727
 20
123.8226483115774
 30
0.0
  0
SEQEND
  5
C02
  8
0
  6
CONTINUOUS
  0
LINE
  5
950
  8
0
  6
CONTINUOUS
 10
192.9225048306127
 20
123.8226483115774
 30
0.0
 11
192.9225048331528
 21
161.85030010219739
 31
0.0
  0
LINE
  5
951
  8
0
  6
CONTINUOUS
 10
192.9225048331528
 20
161.85030010219739
 30
0.0
 11
256.4225048331528
 21
161.85030010219739
 31
0.0
  0
LINE
  5
952
  8
0
  6
CONTINUOUS
 10
256.4225048331528
 20
161.85030010219739
 30
0.0
 11
256.4225048331528
 21
148.8226483140175
 31
0.0
  0
POLYLINE
  5
953
  8
0
  6
CONTINUOUS
 66
     1
 10
0.0
 20
0.0
 30
0.0
  0
VERTEX
  5
C03
  8
0
  6
CONTINUOUS
 10
256.4225048331528
 20
148.8226483140175
 30
0.0
  0
VERTEX
  5
C04
  8
0
  6
CONTINUOUS
 10
257.2959551080927
 20
148.63425638955749
 30
0.0
  0
VERTEX
  5
C05
  8
0
  6
CONTINUOUS
 10
258.22338901395278
 20
148.60030010237739
 30
0.0
  0
SEQEND
  5
C06
  8
0
  6
CONTINUOUS
  0
LINE
  5
954
  8
0
  6
CONTINUOUS
 10
258.22338901395278
 20
148.60030010237739
 30
0.0
 11
267.22735744743272
 21
148.60030010237739
 31
0.0
  0
ARC
  5
955
  8
0
  6
CONTINUOUS
 10
267.22735744743272
 20
143.6003001023974
 30
0.0
 40
4.999999999999992
 50
0.0
 51
90.0
  0
LINE
  5
956
  8
0
  6
CONTINUOUS
 10
272.22735744741271
 20
143.6003001023974
 30
0.0
 11
272.22735744741271
 21
142.1403001013974
 31
0.0
  0
LINE
  5
957
  8
0
  6
CONTINUOUS
 10
272.22735744741271
 20
142.1403001013974
 30
0.0
 11
271.72735744665272
 21
142.1403001013974
 31
0.0
  0
LINE
  5
958
  8
0
  6
CONTINUOUS
 10
271.72735744665272
 20
142.1403001013974
 30
0.0
 11
271.55993113939269
 21
142.6003001034174
 31
0.0
  0
LINE
  5
959
  8
0
  6
CONTINUOUS
 10
271.55993113939269
 20
142.6003001034174
 30
0.0
 11
270.79993114047272
 21
142.6003001034174
 31
0.0
  0
LINE
  5
95A
  8
0
  6
CONTINUOUS
 10
270.79993114047272
 20
142.6003001034174
 30
0.0
 11
270.63250483321281
 21
142.1403001013974
 31
0.0
  0
LINE
  5
95B
  8
0
  6
CONTINUOUS
 10
270.63250483321281
 20
142.1403001013974
 30
0.0
 11
269.69735744773283
 21
142.1403001013974
 31
0.0
  0
LINE
  5
95C
  8
0
  6
CONTINUOUS
 10
269.69735744773283
 20
142.1403001013974
 30
0.0
 11
269.5299311404728
 21
142.6003001034174
 31
0.0
  0
LINE
  5
95D
  8
0
  6
CONTINUOUS
 10
269.5299311404728
 20
142.6003001034174
 30
0.0
 11
268.76993113901278
 21
142.6003001034174
 31
0.0
  0
LINE
  5
95E
  8
0
  6
CONTINUOUS
 10
268.76993113901278
 20
142.6003001034174
 30
0.0
 11
268.60250483175281
 21
142.1403001013974
 31
0.0
  0
LINE
  5
95F
  8
0
  6
CONTINUOUS
 10
268.60250483175281
 20
142.1403001013974
 30
0.0
 11
267.66735744627272
 21
142.1403001013974
 31
0.0
  0
LINE
  5
960
  8
0
  6
CONTINUOUS
 10
267.66735744627272
 20
142.1403001013974
 30
0.0
 11
267.49993113901269
 21
142.6003001034174
 31
0.0
  0
LINE
  5
961
  8
0
  6
CONTINUOUS
 10
267.49993113901269
 20
142.6003001034174
 30
0.0
 11
266.73993114009272
 21
142.6003001034174
 31
0.0
  0
LINE
  5
962
  8
0
  6
CONTINUOUS
 10
266.73993114009272
 20
142.6003001034174
 30
0.0
 11
266.57250483283269
 21
142.1403001013974
 31
0.0
  0
LINE
  5
963
  8
0
  6
CONTINUOUS
 10
266.57250483283269
 20
142.1403001013974
 30
0.0
 11
265.63735744735283
 21
142.1403001013974
 31
0.0
  0
LINE
  5
964
  8
0
  6
CONTINUOUS
 10
265.63735744735283
 20
142.1403001013974
 30
0.0
 11
265.4699311400928
 21
142.6003001034174
 31
0.0
  0
LINE
  5
965
  8
0
  6
CONTINUOUS
 10
265.4699311400928
 20
142.6003001034174
 30
0.0
 11
264.70993113863278
 21
142.6003001034174
 31
0.0
  0
LINE
  5
966
  8
0
  6
CONTINUOUS
 10
264.70993113863278
 20
142.6003001034174
 30
0.0
 11
264.54250483137281
 21
142.1403001013974
 31
0.0
  0
LINE
  5
967
  8
0
  6
CONTINUOUS
 10
264.54250483137281
 20
142.1403001013974
 30
0.0
 11
263.60735744843271
 21
142.1403001013974
 31
0.0
  0
LINE
  5
968
  8
0
  6
CONTINUOUS
 10
263.60735744843271
 20
142.1403001013974
 30
0.0
 11
263.4399311386328
 21
142.6003001034174
 31
0.0
  0
LINE
  5
969
  8
0
  6
CONTINUOUS
 10
263.4399311386328
 20
142.6003001034174
 30
0.0
 11
262.67993113971272
 21
142.6003001034174
 31
0.0
  0
LINE
  5
96A
  8
0
  6
CONTINUOUS
 10
262.67993113971272
 20
142.6003001034174
 30
0.0
 11
262.51250483245281
 21
142.1403001013974
 31
0.0
  0
LINE
  5
96B
  8
0
  6
CONTINUOUS
 10
262.51250483245281
 20
142.1403001013974
 30
0.0
 11
261.57735744697283
 21
142.1403001013974
 31
0.0
  0
LINE
  5
96C
  8
0
  6
CONTINUOUS
 10
261.57735744697283
 20
142.1403001013974
 30
0.0
 11
261.4099311397128
 21
142.6003001034174
 31
0.0
  0
LINE
  5
96D
  8
0
  6
CONTINUOUS
 10
261.4099311397128
 20
142.6003001034174
 30
0.0
 11
260.64993114079277
 21
142.6003001034174
 31
0.0
  0
LINE
  5
96E
  8
0
  6
CONTINUOUS
 10
260.64993114079277
 20
142.6003001034174
 30
0.0
 11
260.48250483099281
 21
142.1403001013974
 31
0.0
  0
LINE
  5
96F
  8
0
  6
CONTINUOUS
 10
260.48250483099281
 20
142.1403001013974
 30
0.0
 11
259.54735744805271
 21
142.1403001013974
 31
0.0
  0
LINE
  5
970
  8
0
  6
CONTINUOUS
 10
259.54735744805271
 20
142.1403001013974
 30
0.0
 11
259.37993114079279
 21
142.6003001034174
 31
0.0
  0
LINE
  5
971
  8
0
  6
CONTINUOUS
 10
259.37993114079279
 20
142.6003001034174
 30
0.0
 11
258.61993113933289
 21
142.6003001034174
 31
0.0
  0
LINE
  5
972
  8
0
  6
CONTINUOUS
 10
258.61993113933289
 20
142.6003001034174
 30
0.0
 11
258.4525048320728
 21
142.1403001013974
 31
0.0
  0
LINE
  5
973
  8
0
  6
CONTINUOUS
 10
258.4525048320728
 20
142.1403001013974
 30
0.0
 11
257.51735744659283
 21
142.1403001013974
 31
0.0
  0
LINE
  5
974
  8
0
  6
CONTINUOUS
 10
257.51735744659283
 20
142.1403001013974
 30
0.0
 11
257.34993113933268
 21
142.6003001034174
 31
0.0
  0
LINE
  5
975
  8
0
  6
CONTINUOUS
 10
257.34993113933268
 20
142.6003001034174
 30
0.0
 11
256.58993114041277
 21
142.6003001034174
 31
0.0
  0
LINE
  5
976
  8
0
  6
CONTINUOUS
 10
256.58993114041277
 20
142.6003001034174
 30
0.0
 11
256.4225048331528
 21
142.1403001013974
 31
0.0
  0
LINE
  5
977
  8
0
  6
CONTINUOUS
 10
256.4225048331528
 20
142.1403001013974
 30
0.0
 11
256.4225048331528
 21
141.3903001027974
 31
0.0
  0
LINE
  5
978
  8
0
  6
CONTINUOUS
 10
256.4225048331528
 20
141.3903001027974
 30
0.0
 11
272.22735744741271
 21
141.3903001027974
 31
0.0
  0
ARC
  5
979
  8
0
  6
CONTINUOUS
 10
268.22735744641273
 20
144.39030010227739
 30
0.0
 40
5.0000000000000346
 50
270.0
 51
323.13010235419961
  0
LINE
  5
97A
  8
0
  6
CONTINUOUS
 10
268.22735744641273
 20
139.39030010229749
 30
0.0
 11
261.7677442086927
 21
139.39030010229749
 31
0.0
  0
ARC
  5
97B
  8
0
  6
CONTINUOUS
 10
261.7677442086927
 20
130.39030010131739
 30
0.0
 40
8.9999999999999787
 50
90.0
 51
126.4353581251994
  0
LINE
  5
97C
  8
0
  6
CONTINUOUS
 10
256.4225048331528
 20
137.63104702695739
 30
0.0
 11
256.4225048331528
 21
98.350300102197437
 31
0.0
  0
LINE
  5
97D
  8
0
  6
CONTINUOUS
 10
256.4225048331528
 20
98.350300102197437
 30
0.0
 11
243.7225048331527
 21
98.350300102197437
 31
0.0
  0
LINE
  5
97E
  8
0
  6
CONTINUOUS
 10
243.7225048331527
 20
98.350300102197437
 30
0.0
 11
243.7225048331527
 21
149.15030010219741
 31
0.0
  0
LINE
  5
97F
  8
0
  6
CONTINUOUS
 10
243.7225048331527
 20
149.15030010219741
 30
0.0
 11
205.62250483315279
 21
149.15030010219741
 31
0.0
  0
LINE
  5
980
  8
0
  6
CONTINUOUS
 10
205.62250483315279
 20
149.15030010219741
 30
0.0
 11
205.62250483315279
 21
98.350300102197437
 31
0.0
  0
LINE
  5
981
  8
0
  6
CONTINUOUS
 10
205.62250483315279
 20
98.350300102197437
 30
0.0
 11
192.9225048331528
 21
98.350300102197437
 31
0.0
  0
CIRCLE
  5
982
  8
0
  6
CONTINUOUS
 10
199.27250483315271
 20
104.2878001016974
 30
0.0
 40
1.7500000000000531
  0
CIRCLE
  5
983
  8
0
  6
CONTINUOUS
 10
199.27250483315271
 20
155.91280010269739
 30
0.0
 40
1.7499999999999609
  0
CIRCLE
  5
984
  8
0
  6
CONTINUOUS
 10
250.07250483315281
 20
155.91280010269739
 30
0.0
 40
1.7499999999999609
  0
CIRCLE
  5
985
  8
0
  6
CONTINUOUS
 10
250.07250483315281
 20
104.2878001016974
 30
0.0
 40
1.7500000000000531
  0
LINE
  5
986
  8
0
  6
CONTINUOUS
 10
301.13739944555817
 20
98.988057833759825
 30
0.0
 11
301.13739944555817
 21
113.26880475861979
 31
0.0
  0
ARC
  5
987
  8
0
  6
CONTINUOUS
 10
295.79216007001821
 20
106.0280578329798
 30
0.0
 40
9.0000000000000302
 50
53.564641874800607
 51
90.0
  0
LINE
  5
988
  8
0
  6
CONTINUOUS
 10
295.79216007001821
 20
115.02805783395981
 30
0.0
 11
289.33254682975809
 21
115.02805783395981
 31
0.0
  0
ARC
  5
989
  8
0
  6
CONTINUOUS
 10
289.33254682975809
 20
120.0280578339398
 30
0.0
 40
4.999999999999992
 50
216.86989764580039
 51
270.0
  0
LINE
  5
98A
  8
0
  6
CONTINUOUS
 10
285.3325468287581
 20
117.0280578344598
 30
0.0
 11
301.13739944555817
 21
117.0280578344598
 31
0.0
  0
LINE
  5
98B
  8
0
  6
CONTINUOUS
 10
301.13739944555817
 20
117.0280578344598
 30
0.0
 11
301.13739944555817
 21
117.7780578330598
 31
0.0
  0
LINE
  5
98C
  8
0
  6
CONTINUOUS
 10
301.13739944555817
 20
117.7780578330598
 30
0.0
 11
300.96997313575821
 21
118.23805783253979
 31
0.0
  0
LINE
  5
98D
  8
0
  6
CONTINUOUS
 10
300.96997313575821
 20
118.23805783253979
 30
0.0
 11
300.20997313683807
 21
118.23805783253979
 31
0.0
  0
LINE
  5
98E
  8
0
  6
CONTINUOUS
 10
300.20997313683807
 20
118.23805783253979
 30
0.0
 11
300.04254682957821
 21
117.7780578330598
 31
0.0
  0
LINE
  5
98F
  8
0
  6
CONTINUOUS
 10
300.04254682957821
 20
117.7780578330598
 30
0.0
 11
299.10739944409818
 21
117.7780578330598
 31
0.0
  0
LINE
  5
990
  8
0
  6
CONTINUOUS
 10
299.10739944409818
 20
117.7780578330598
 30
0.0
 11
298.93997313683809
 21
118.23805783253979
 31
0.0
  0
LINE
  5
991
  8
0
  6
CONTINUOUS
 10
298.93997313683809
 20
118.23805783253979
 30
0.0
 11
298.17997313791818
 21
118.23805783253979
 31
0.0
  0
LINE
  5
992
  8
0
  6
CONTINUOUS
 10
298.17997313791818
 20
118.23805783253979
 30
0.0
 11
298.0125468281181
 21
117.7780578330598
 31
0.0
  0
LINE
  5
993
  8
0
  6
CONTINUOUS
 10
298.0125468281181
 20
117.7780578330598
 30
0.0
 11
297.07739944517817
 21
117.7780578330598
 31
0.0
  0
LINE
  5
994
  8
0
  6
CONTINUOUS
 10
297.07739944517817
 20
117.7780578330598
 30
0.0
 11
296.9099731379182
 21
118.23805783253979
 31
0.0
  0
LINE
  5
995
  8
0
  6
CONTINUOUS
 10
296.9099731379182
 20
118.23805783253979
 30
0.0
 11
296.14997313645807
 21
118.23805783253979
 31
0.0
  0
LINE
  5
996
  8
0
  6
CONTINUOUS
 10
296.14997313645807
 20
118.23805783253979
 30
0.0
 11
295.98254682919821
 21
117.7780578330598
 31
0.0
  0
LINE
  5
997
  8
0
  6
CONTINUOUS
 10
295.98254682919821
 20
117.7780578330598
 30
0.0
 11
295.04739944371818
 21
117.7780578330598
 31
0.0
  0
LINE
  5
998
  8
0
  6
CONTINUOUS
 10
295.04739944371818
 20
117.7780578330598
 30
0.0
 11
294.8799731364582
 21
118.23805783253979
 31
0.0
  0
LINE
  5
999
  8
0
  6
CONTINUOUS
 10
294.8799731364582
 20
118.23805783253979
 30
0.0
 11
294.11997313753818
 21
118.23805783253979
 31
0.0
  0
LINE
  5
99A
  8
0
  6
CONTINUOUS
 10
294.11997313753818
 20
118.23805783253979
 30
0.0
 11
293.9525468277381
 21
117.7780578330598
 31
0.0
  0
LINE
  5
99B
  8
0
  6
CONTINUOUS
 10
293.9525468277381
 20
117.7780578330598
 30
0.0
 11
293.01739944479812
 21
117.7780578330598
 31
0.0
  0
LINE
  5
99C
  8
0
  6
CONTINUOUS
 10
293.01739944479812
 20
117.7780578330598
 30
0.0
 11
292.8499731375382
 21
118.23805783253979
 31
0.0
  0
LINE
  5
99D
  8
0
  6
CONTINUOUS
 10
292.8499731375382
 20
118.23805783253979
 30
0.0
 11
292.08997313607819
 21
118.23805783253979
 31
0.0
  0
LINE
  5
99E
  8
0
  6
CONTINUOUS
 10
292.08997313607819
 20
118.23805783253979
 30
0.0
 11
291.92254682881821
 21
117.7780578330598
 31
0.0
  0
LINE
  5
99F
  8
0
  6
CONTINUOUS
 10
291.92254682881821
 20
117.7780578330598
 30
0.0
 11
290.98739944333818
 21
117.7780578330598
 31
0.0
  0
LINE
  5
9A0
  8
0
  6
CONTINUOUS
 10
290.98739944333818
 20
117.7780578330598
 30
0.0
 11
290.81997313607809
 21
118.23805783253979
 31
0.0
  0
LINE
  5
9A1
  8
0
  6
CONTINUOUS
 10
290.81997313607809
 20
118.23805783253979
 30
0.0
 11
290.05997313715818
 21
118.23805783253979
 31
0.0
  0
LINE
  5
9A2
  8
0
  6
CONTINUOUS
 10
290.05997313715818
 20
118.23805783253979
 30
0.0
 11
289.89254682989821
 21
117.7780578330598
 31
0.0
  0
LINE
  5
9A3
  8
0
  6
CONTINUOUS
 10
289.89254682989821
 20
117.7780578330598
 30
0.0
 11
288.95739944441817
 21
117.7780578330598
 31
0.0
  0
LINE
  5
9A4
  8
0
  6
CONTINUOUS
 10
288.95739944441817
 20
117.7780578330598
 30
0.0
 11
288.7899731371582
 21
118.23805783253979
 31
0.0
  0
LINE
  5
9A5
  8
0
  6
CONTINUOUS
 10
288.7899731371582
 20
118.23805783253979
 30
0.0
 11
288.02997313569813
 21
118.23805783253979
 31
0.0
  0
LINE
  5
9A6
  8
0
  6
CONTINUOUS
 10
288.02997313569813
 20
118.23805783253979
 30
0.0
 11
287.86254682843821
 21
117.7780578330598
 31
0.0
  0
LINE
  5
9A7
  8
0
  6
CONTINUOUS
 10
287.86254682843821
 20
117.7780578330598
 30
0.0
 11
286.92739944549822
 21
117.7780578330598
 31
0.0
  0
LINE
  5
9A8
  8
0
  6
CONTINUOUS
 10
286.92739944549822
 20
117.7780578330598
 30
0.0
 11
286.75997313569809
 21
118.23805783253979
 31
0.0
  0
LINE
  5
9A9
  8
0
  6
CONTINUOUS
 10
286.75997313569809
 20
118.23805783253979
 30
0.0
 11
285.99997313677818
 21
118.23805783253979
 31
0.0
  0
LINE
  5
9AA
  8
0
  6
CONTINUOUS
 10
285.99997313677818
 20
118.23805783253979
 30
0.0
 11
285.83254682951809
 21
117.7780578330598
 31
0.0
  0
LINE
  5
9AB
  8
0
  6
CONTINUOUS
 10
285.83254682951809
 20
117.7780578330598
 30
0.0
 11
285.3325468287581
 21
117.7780578330598
 31
0.0
  0
LINE
  5
9AC
  8
0
  6
CONTINUOUS
 10
285.3325468287581
 20
117.7780578330598
 30
0.0
 11
285.3325468287581
 21
119.2380578340598
 31
0.0
  0
ARC
  5
9AD
  8
0
  6
CONTINUOUS
 10
290.33254682873809
 20
119.2380578340598
 30
0.0
 40
4.9999999999999458
 50
90.0
 51
180.0
  0
LINE
  5
9AE
  8
0
  6
CONTINUOUS
 10
290.33254682873809
 20
124.23805783403969
 30
0.0
 11
299.3365152622182
 21
124.23805783403969
 31
0.0
  0
POLYLINE
  5
9AF
  8
0
  6
CONTINUOUS
 66
     1
 10
0.0
 20
0.0
 30
0.0
  0
VERTEX
  5
C07
  8
0
  6
CONTINUOUS
 10
299.3365152622182
 20
124.23805783403969
 30
0.0
  0
VERTEX
  5
C08
  8
0
  6
CONTINUOUS
 10
300.23695735007823
 20
124.2692659758398
 30
0.0
  0
VERTEX
  5
C09
  8
0
  6
CONTINUOUS
 10
301.13739944047808
 20
124.4604060431398
 30
0.0
  0
SEQEND
  5
C0A
  8
0
  6
CONTINUOUS
  0
LINE
  5
9B0
  8
0
  6
CONTINUOUS
 10
301.13739944301813
 20
124.4604060431398
 30
0.0
 11
301.13739944555817
 21
162.4880578337598
 31
0.0
  0
LINE
  5
9B1
  8
0
  6
CONTINUOUS
 10
301.13739944555817
 20
162.4880578337598
 30
0.0
 11
364.63739944555812
 21
162.4880578337598
 31
0.0
  0
LINE
  5
9B2
  8
0
  6
CONTINUOUS
 10
364.63739944555812
 20
162.4880578337598
 30
0.0
 11
364.63739944555812
 21
149.4604060455799
 31
0.0
  0
POLYLINE
  5
9B3
  8
0
  6
CONTINUOUS
 66
     1
 10
0.0
 20
0.0
 30
0.0
  0
VERTEX
  5
C0B
  8
0
  6
CONTINUOUS
 10
364.63739944555812
 20
149.4604060455799
 30
0.0
  0
VERTEX
  5
C0C
  8
0
  6
CONTINUOUS
 10
365.51084972049819
 20
149.27201412111989
 30
0.0
  0
VERTEX
  5
C0D
  8
0
  6
CONTINUOUS
 10
366.43828362635821
 20
149.23805783393979
 30
0.0
  0
SEQEND
  5
C0E
  8
0
  6
CONTINUOUS
  0
LINE
  5
9B4
  8
0
  6
CONTINUOUS
 10
366.43828362635821
 20
149.23805783393979
 30
0.0
 11
375.4422520598381
 21
149.23805783393979
 31
0.0
  0
ARC
  5
9B5
  8
0
  6
CONTINUOUS
 10
375.4422520598381
 20
144.23805783395969
 30
0.0
 40
4.999999999999992
 50
0.0
 51
90.0
  0
LINE
  5
9B6
  8
0
  6
CONTINUOUS
 10
380.4422520598182
 20
144.23805783395969
 30
0.0
 11
380.4422520598182
 21
142.7780578329598
 31
0.0
  0
LINE
  5
9B7
  8
0
  6
CONTINUOUS
 10
380.4422520598182
 20
142.7780578329598
 30
0.0
 11
379.94225205905821
 21
142.7780578329598
 31
0.0
  0
LINE
  5
9B8
  8
0
  6
CONTINUOUS
 10
379.94225205905821
 20
142.7780578329598
 30
0.0
 11
379.77482575179818
 21
143.2380578349798
 31
0.0
  0
LINE
  5
9B9
  8
0
  6
CONTINUOUS
 10
379.77482575179818
 20
143.2380578349798
 30
0.0
 11
379.0148257528781
 21
143.2380578349798
 31
0.0
  0
LINE
  5
9BA
  8
0
  6
CONTINUOUS
 10
379.0148257528781
 20
143.2380578349798
 30
0.0
 11
378.84739944561818
 21
142.7780578329598
 31
0.0
  0
LINE
  5
9BB
  8
0
  6
CONTINUOUS
 10
378.84739944561818
 20
142.7780578329598
 30
0.0
 11
377.9122520601382
 21
142.7780578329598
 31
0.0
  0
LINE
  5
9BC
  8
0
  6
CONTINUOUS
 10
377.9122520601382
 20
142.7780578329598
 30
0.0
 11
377.74482575287823
 21
143.2380578349798
 31
0.0
  0
LINE
  5
9BD
  8
0
  6
CONTINUOUS
 10
377.74482575287823
 20
143.2380578349798
 30
0.0
 11
376.98482575141821
 21
143.2380578349798
 31
0.0
  0
LINE
  5
9BE
  8
0
  6
CONTINUOUS
 10
376.98482575141821
 20
143.2380578349798
 30
0.0
 11
376.81739944415818
 21
142.7780578329598
 31
0.0
  0
LINE
  5
9BF
  8
0
  6
CONTINUOUS
 10
376.81739944415818
 20
142.7780578329598
 30
0.0
 11
375.8822520586782
 21
142.7780578329598
 31
0.0
  0
LINE
  5
9C0
  8
0
  6
CONTINUOUS
 10
375.8822520586782
 20
142.7780578329598
 30
0.0
 11
375.71482575141818
 21
143.2380578349798
 31
0.0
  0
LINE
  5
9C1
  8
0
  6
CONTINUOUS
 10
375.71482575141818
 20
143.2380578349798
 30
0.0
 11
374.95482575249821
 21
143.2380578349798
 31
0.0
  0
LINE
  5
9C2
  8
0
  6
CONTINUOUS
 10
374.95482575249821
 20
143.2380578349798
 30
0.0
 11
374.78739944523818
 21
142.7780578329598
 31
0.0
  0
LINE
  5
9C3
  8
0
  6
CONTINUOUS
 10
374.78739944523818
 20
142.7780578329598
 30
0.0
 11
373.8522520597582
 21
142.7780578329598
 31
0.0
  0
LINE
  5
9C4
  8
0
  6
CONTINUOUS
 10
373.8522520597582
 20
142.7780578329598
 30
0.0
 11
373.68482575249811
 21
143.2380578349798
 31
0.0
  0
LINE
  5
9C5
  8
0
  6
CONTINUOUS
 10
373.68482575249811
 20
143.2380578349798
 30
0.0
 11
372.92482575103833
 21
143.2380578349798
 31
0.0
  0
LINE
  5
9C6
  8
0
  6
CONTINUOUS
 10
372.92482575103833
 20
143.2380578349798
 30
0.0
 11
372.75739944377818
 21
142.7780578329598
 31
0.0
  0
LINE
  5
9C7
  8
0
  6
CONTINUOUS
 10
372.75739944377818
 20
142.7780578329598
 30
0.0
 11
371.8222520608382
 21
142.7780578329598
 31
0.0
  0
LINE
  5
9C8
  8
0
  6
CONTINUOUS
 10
371.8222520608382
 20
142.7780578329598
 30
0.0
 11
371.65482575103817
 21
143.2380578349798
 31
0.0
  0
LINE
  5
9C9
  8
0
  6
CONTINUOUS
 10
371.65482575103817
 20
143.2380578349798
 30
0.0
 11
370.89482575211821
 21
143.2380578349798
 31
0.0
  0
LINE
  5
9CA
  8
0
  6
CONTINUOUS
 10
370.89482575211821
 20
143.2380578349798
 30
0.0
 11
370.72739944485818
 21
142.7780578329598
 31
0.0
  0
LINE
  5
9CB
  8
0
  6
CONTINUOUS
 10
370.72739944485818
 20
142.7780578329598
 30
0.0
 11
369.7922520593782
 21
142.7780578329598
 31
0.0
  0
LINE
  5
9CC
  8
0
  6
CONTINUOUS
 10
369.7922520593782
 20
142.7780578329598
 30
0.0
 11
369.62482575211823
 21
143.2380578349798
 31
0.0
  0
LINE
  5
9CD
  8
0
  6
CONTINUOUS
 10
369.62482575211823
 20
143.2380578349798
 30
0.0
 11
368.8648257531982
 21
143.2380578349798
 31
0.0
  0
LINE
  5
9CE
  8
0
  6
CONTINUOUS
 10
368.8648257531982
 20
143.2380578349798
 30
0.0
 11
368.69739944339813
 21
142.7780578329598
 31
0.0
  0
LINE
  5
9CF
  8
0
  6
CONTINUOUS
 10
368.69739944339813
 20
142.7780578329598
 30
0.0
 11
367.7622520604582
 21
142.7780578329598
 31
0.0
  0
LINE
  5
9D0
  8
0
  6
CONTINUOUS
 10
367.7622520604582
 20
142.7780578329598
 30
0.0
 11
367.59482575319811
 21
143.2380578349798
 31
0.0
  0
LINE
  5
9D1
  8
0
  6
CONTINUOUS
 10
367.59482575319811
 20
143.2380578349798
 30
0.0
 11
366.83482575173821
 21
143.2380578349798
 31
0.0
  0
LINE
  5
9D2
  8
0
  6
CONTINUOUS
 10
366.83482575173821
 20
143.2380578349798
 30
0.0
 11
366.66739944447818
 21
142.7780578329598
 31
0.0
  0
LINE
  5
9D3
  8
0
  6
CONTINUOUS
 10
366.66739944447818
 20
142.7780578329598
 30
0.0
 11
365.73225205899809
 21
142.7780578329598
 31
0.0
  0
LINE
  5
9D4
  8
0
  6
CONTINUOUS
 10
365.73225205899809
 20
142.7780578329598
 30
0.0
 11
365.56482575173823
 21
143.2380578349798
 31
0.0
  0
LINE
  5
9D5
  8
0
  6
CONTINUOUS
 10
365.56482575173823
 20
143.2380578349798
 30
0.0
 11
364.8048257528182
 21
143.2380578349798
 31
0.0
  0
LINE
  5
9D6
  8
0
  6
CONTINUOUS
 10
364.8048257528182
 20
143.2380578349798
 30
0.0
 11
364.63739944555812
 21
142.7780578329598
 31
0.0
  0
LINE
  5
9D7
  8
0
  6
CONTINUOUS
 10
364.63739944555812
 20
142.7780578329598
 30
0.0
 11
364.63739944555812
 21
142.0280578343598
 31
0.0
  0
LINE
  5
9D8
  8
0
  6
CONTINUOUS
 10
364.63739944555812
 20
142.0280578343598
 30
0.0
 11
380.4422520598182
 21
142.0280578343598
 31
0.0
  0
ARC
  5
9D9
  8
0
  6
CONTINUOUS
 10
376.44225205881821
 20
145.0280578338398
 30
0.0
 40
5.0000000000000346
 50
270.0
 51
323.13010235419961
  0
LINE
  5
9DA
  8
0
  6
CONTINUOUS
 10
376.44225205881821
 20
140.0280578338598
 30
0.0
 11
369.98263882109808
 21
140.0280578338598
 31
0.0
  0
ARC
  5
9DB
  8
0
  6
CONTINUOUS
 10
369.98263882109808
 20
131.0280578328798
 30
0.0
 40
8.9999999999999787
 50
90.0
 51
126.4353581251994
  0
LINE
  5
9DC
  8
0
  6
CONTINUOUS
 10
364.63739944555812
 20
138.26880475851979
 30
0.0
 11
364.63739944555812
 21
98.988057833759825
 31
0.0
  0
LINE
  5
9DD
  8
0
  6
CONTINUOUS
 10
364.63739944555812
 20
98.988057833759825
 30
0.0
 11
351.93739944555819
 21
98.988057833759825
 31
0.0
  0
LINE
  5
9DE
  8
0
  6
CONTINUOUS
 10
351.93739944555819
 20
98.988057833759825
 30
0.0
 11
351.93739944555819
 21
149.78805783375981
 31
0.0
  0
LINE
  5
9DF
  8
0
  6
CONTINUOUS
 10
351.93739944555819
 20
149.78805783375981
 30
0.0
 11
313.83739944555811
 21
149.78805783375981
 31
0.0
  0
LINE
  5
9E0
  8
0
  6
CONTINUOUS
 10
313.83739944555811
 20
149.78805783375981
 30
0.0
 11
313.83739944555811
 21
98.988057833759825
 31
0.0
  0
LINE
  5
9E1
  8
0
  6
CONTINUOUS
 10
313.83739944555811
 20
98.988057833759825
 30
0.0
 11
301.13739944555817
 21
98.988057833759825
 31
0.0
  0
CIRCLE
  5
9E2
  8
0
  6
CONTINUOUS
 10
307.4873994455582
 20
104.9255578332598
 30
0.0
 40
1.7500000000000531
  0
CIRCLE
  5
9E3
  8
0
  6
CONTINUOUS
 10
307.4873994455582
 20
156.55055783425979
 30
0.0
 40
1.7499999999999609
  0
CIRCLE
  5
9E4
  8
0
  6
CONTINUOUS
 10
358.28739944555821
 20
156.55055783425979
 30
0.0
 40
1.7499999999999609
  0
CIRCLE
  5
9E5
  8
0
  6
CONTINUOUS
 10
358.28739944555821
 20
104.9255578332598
 30
0.0
 40
1.7500000000000531
  0
LINE
  5
AA0
  8
0
  6
CONTINUOUS
 10
11.72877229461456
 20
18.412646854211221
 30
0.0
 11
11.72877229461456
 21
21.412646853691101
 31
0.0
  0
LINE
  5
AA1
  8
0
  6
CONTINUOUS
 10
11.72877229461456
 20
21.412646853691101
 30
0.0
 11
10.46877229493456
 21
21.412646853691101
 31
0.0
  0
LINE
  5
AA2
  8
0
  6
CONTINUOUS
 10
10.46877229493456
 20
21.412646853691101
 30
0.0
 11
10.46877229493456
 21
24.212646854391139
 31
0.0
  0
LINE
  5
AA3
  8
0
  6
CONTINUOUS
 10
10.46877229493456
 20
24.212646854391139
 30
0.0
 11
11.72877229461456
 21
24.212646854391139
 31
0.0
  0
LINE
  5
AA4
  8
0
  6
CONTINUOUS
 10
11.72877229461456
 20
24.212646854391139
 30
0.0
 11
11.72877229461456
 21
25.912646852911209
 31
0.0
  0
ARC
  5
AA5
  8
0
  6
CONTINUOUS
 10
12.22877229537456
 20
25.912646852911209
 30
0.0
 40
0.5000000000000219
 50
90.0
 51
180.0
  0
LINE
  5
AA6
  8
0
  6
CONTINUOUS
 10
12.22877229537456
 20
26.412646853671209
 30
0.0
 11
14.42877229465455
 21
26.412646853671209
 31
0.0
  0
ARC
  5
AA7
  8
0
  6
CONTINUOUS
 10
14.42877229465455
 20
25.912646852911209
 30
0.0
 40
0.5000000000000219
 50
0.0
 51
90.0
  0
LINE
  5
AA8
  8
0
  6
CONTINUOUS
 10
14.928772295414561
 20
25.912646852911209
 30
0.0
 11
14.928772295414561
 21
24.212646854391139
 31
0.0
  0
LINE
  5
AA9
  8
0
  6
CONTINUOUS
 10
14.928772295414561
 20
24.212646854391139
 30
0.0
 11
16.188772295094552
 21
24.212646854391139
 31
0.0
  0
LINE
  5
AAA
  8
0
  6
CONTINUOUS
 10
16.188772295094552
 20
24.212646854391139
 30
0.0
 11
16.188772295094552
 21
21.412646853691101
 31
0.0
  0
LINE
  5
AAB
  8
0
  6
CONTINUOUS
 10
16.188772295094552
 20
21.412646853691101
 30
0.0
 11
14.928772295414561
 21
21.412646853691101
 31
0.0
  0
LINE
  5
AAC
  8
0
  6
CONTINUOUS
 10
14.928772295414561
 20
21.412646853691101
 30
0.0
 11
14.928772295414561
 21
18.412646854211221
 31
0.0
  0
LINE
  5
AAD
  8
0
  6
CONTINUOUS
 10
36.403751216119531
 20
18.412646854211221
 30
0.0
 11
36.403751216119531
 21
18.912646852431109
 31
0.0
  0
ARC
  5
AAE
  8
0
  6
CONTINUOUS
 10
36.903751214339543
 20
18.912646852431109
 30
0.0
 40
0.4999999999999991
 50
90.0
 51
180.0
  0
LINE
  5
AAF
  8
0
  6
CONTINUOUS
 10
36.903751214339543
 20
19.412646853191099
 30
0.0
 11
40.40375121457955
 21
19.412646853191099
 31
0.0
  0
ARC
  5
AB0
  8
0
  6
CONTINUOUS
 10
40.40375121457955
 20
18.912646852431109
 30
0.0
 40
0.4999999999999991
 50
0.0
 51
90.0
  0
LINE
  5
AB1
  8
0
  6
CONTINUOUS
 10
40.903751215339547
 20
18.912646852431109
 30
0.0
 11
40.903751215339547
 21
18.412646854211221
 31
0.0
  0
LINE
  5
AB2
  8
0
  6
CONTINUOUS
 10
52.728772293434517
 20
18.412646854211221
 30
0.0
 11
52.728772293434517
 21
21.412646853691101
 31
0.0
  0
LINE
  5
AB3
  8
0
  6
CONTINUOUS
 10
52.728772293434517
 20
21.412646853691101
 30
0.0
 11
51.468772293754498
 21
21.412646853691101
 31
0.0
  0
LINE
  5
AB4
  8
0
  6
CONTINUOUS
 10
51.468772293754498
 20
21.412646853691101
 30
0.0
 11
51.468772293754498
 21
24.212646854391139
 31
0.0
  0
LINE
  5
AB5
  8
0
  6
CONTINUOUS
 10
51.468772293754498
 20
24.212646854391139
 30
0.0
 11
52.728772293434517
 21
24.212646854391139
 31
0.0
  0
LINE
  5
AB6
  8
0
  6
CONTINUOUS
 10
52.728772293434517
 20
24.212646854391139
 30
0.0
 11
52.728772293434517
 21
25.912646852911209
 31
0.0
  0
ARC
  5
AB7
  8
0
  6
CONTINUOUS
 10
53.228772294194513
 20
25.912646852911209
 30
0.0
 40
0.5000000000000219
 50
90.0
 51
180.0
  0
LINE
  5
AB8
  8
0
  6
CONTINUOUS
 10
53.228772294194513
 20
26.412646853671209
 30
0.0
 11
55.428772293474523
 21
26.412646853671209
 31
0.0
  0
ARC
  5
AB9
  8
0
  6
CONTINUOUS
 10
55.428772293474523
 20
25.912646852911209
 30
0.0
 40
0.5000000000000219
 50
0.0
 51
90.0
  0
LINE
  5
ABA
  8
0
  6
CONTINUOUS
 10
55.928772294234491
 20
25.912646852911209
 30
0.0
 11
55.928772294234491
 21
24.212646854391139
 31
0.0
  0
LINE
  5
ABB
  8
0
  6
CONTINUOUS
 10
55.928772294234491
 20
24.212646854391139
 30
0.0
 11
57.188772293914511
 21
24.212646854391139
 31
0.0
  0
LINE
  5
ABC
  8
0
  6
CONTINUOUS
 10
57.188772293914511
 20
24.212646854391139
 30
0.0
 11
57.188772293914511
 21
21.412646853691101
 31
0.0
  0
LINE
  5
ABD
  8
0
  6
CONTINUOUS
 10
57.188772293914511
 20
21.412646853691101
 30
0.0
 11
55.928772294234491
 21
21.412646853691101
 31
0.0
  0
LINE
  5
ABE
  8
0
  6
CONTINUOUS
 10
55.928772294234491
 20
21.412646853691101
 30
0.0
 11
55.928772294234491
 21
18.412646854211221
 31
0.0
  0
LINE
  5
ABF
  8
0
  6
CONTINUOUS
 10
191.5520739073973
 20
18.412646854211221
 30
0.0
 11
191.5520739073973
 21
21.412646853691101
 31
0.0
  0
LINE
  5
AC0
  8
0
  6
CONTINUOUS
 10
191.5520739073973
 20
21.412646853691101
 30
0.0
 11
190.2920739077172
 21
21.412646853691101
 31
0.0
  0
LINE
  5
AC1
  8
0
  6
CONTINUOUS
 10
190.2920739077172
 20
21.412646853691101
 30
0.0
 11
190.2920739077172
 21
24.212646854391139
 31
0.0
  0
LINE
  5
AC2
  8
0
  6
CONTINUOUS
 10
190.2920739077172
 20
24.212646854391139
 30
0.0
 11
191.5520739073973
 21
24.212646854391139
 31
0.0
  0
LINE
  5
AC3
  8
0
  6
CONTINUOUS
 10
191.5520739073973
 20
24.212646854391139
 30
0.0
 11
191.5520739073973
 21
25.912646852911209
 31
0.0
  0
ARC
  5
AC4
  8
0
  6
CONTINUOUS
 10
192.0520739081573
 20
25.912646852911209
 30
0.0
 40
0.5000000000000219
 50
90.0
 51
180.0
  0
LINE
  5
AC5
  8
0
  6
CONTINUOUS
 10
192.0520739081573
 20
26.412646853671209
 30
0.0
 11
194.25207390743731
 21
26.412646853671209
 31
0.0
  0
ARC
  5
AC6
  8
0
  6
CONTINUOUS
 10
194.25207390743731
 20
25.912646852911209
 30
0.0
 40
0.5000000000000219
 50
0.0
 51
90.0
  0
LINE
  5
AC7
  8
0
  6
CONTINUOUS
 10
194.7520739081973
 20
25.912646852911209
 30
0.0
 11
194.7520739081973
 21
24.212646854391139
 31
0.0
  0
LINE
  5
AC8
  8
0
  6
CONTINUOUS
 10
194.7520739081973
 20
24.212646854391139
 30
0.0
 11
196.01207390787729
 21
24.212646854391139
 31
0.0
  0
LINE
  5
AC9
  8
0
  6
CONTINUOUS
 10
196.01207390787729
 20
24.212646854391139
 30
0.0
 11
196.01207390787729
 21
21.412646853691101
 31
0.0
  0
LINE
  5
ACA
  8
0
  6
CONTINUOUS
 10
196.01207390787729
 20
21.412646853691101
 30
0.0
 11
194.7520739081973
 21
21.412646853691101
 31
0.0
  0
LINE
  5
ACB
  8
0
  6
CONTINUOUS
 10
194.7520739081973
 20
21.412646853691101
 30
0.0
 11
194.7520739081973
 21
18.412646854211221
 31
0.0
  0
LINE
  5
ACC
  8
0
  6
CONTINUOUS
 10
330.45288203481408
 20
18.412646854211221
 30
0.0
 11
330.45288203481408
 21
21.412646853691101
 31
0.0
  0
LINE
  5
ACD
  8
0
  6
CONTINUOUS
 10
330.45288203481408
 20
21.412646853691101
 30
0.0
 11
329.19288203513401
 21
21.412646853691101
 31
0.0
  0
LINE
  5
ACE
  8
0
  6
CONTINUOUS
 10
329.19288203513401
 20
21.412646853691101
 30
0.0
 11
329.19288203513401
 21
24.212646854391139
 31
0.0
  0
LINE
  5
ACF
  8
0
  6
CONTINUOUS
 10
329.19288203513401
 20
24.212646854391139
 30
0.0
 11
330.45288203481408
 21
24.212646854391139
 31
0.0
  0
LINE
  5
AD0
  8
0
  6
CONTINUOUS
 10
330.45288203481408
 20
24.212646854391139
 30
0.0
 11
330.45288203481408
 21
25.912646852911209
 31
0.0
  0
ARC
  5
AD1
  8
0
  6
CONTINUOUS
 10
330.95288203557408
 20
25.912646852911209
 30
0.0
 40
0.5000000000000219
 50
90.0
 51
180.0
  0
LINE
  5
AD2
  8
0
  6
CONTINUOUS
 10
330.95288203557408
 20
26.412646853671209
 30
0.0
 11
333.15288203485397
 21
26.412646853671209
 31
0.0
  0
ARC
  5
AD3
  8
0
  6
CONTINUOUS
 10
333.15288203485397
 20
25.912646852911209
 30
0.0
 40
0.5000000000000219
 50
0.0
 51
90.0
  0
LINE
  5
AD4
  8
0
  6
CONTINUOUS
 10
333.65288203561403
 20
25.912646852911209
 30
0.0
 11
333.65288203561403
 21
24.212646854391139
 31
0.0
  0
LINE
  5
AD5
  8
0
  6
CONTINUOUS
 10
333.65288203561403
 20
24.212646854391139
 30
0.0
 11
334.91288203529399
 21
24.212646854391139
 31
0.0
  0
LINE
  5
AD6
  8
0
  6
CONTINUOUS
 10
334.91288203529399
 20
24.212646854391139
 30
0.0
 11
334.91288203529399
 21
21.412646853691101
 31
0.0
  0
LINE
  5
AD7
  8
0
  6
CONTINUOUS
 10
334.91288203529399
 20
21.412646853691101
 30
0.0
 11
333.65288203561403
 21
21.412646853691101
 31
0.0
  0
LINE
  5
AD8
  8
0
  6
CONTINUOUS
 10
333.65288203561403
 20
21.412646853691101
 30
0.0
 11
333.65288203561403
 21
18.412646854211221
 31
0.0
  0
LINE
  5
AD9
  8
0
  6
CONTINUOUS
 10
345.29260229430741
 20
18.412646854211221
 30
0.0
 11
345.29260229430741
 21
18.912646852431109
 31
0.0
  0
ARC
  5
ADA
  8
0
  6
CONTINUOUS
 10
345.79260229252742
 20
18.912646852431109
 30
0.0
 40
0.4999999999999761
 50
90.0
 51
180.0
  0
LINE
  5
ADB
  8
0
  6
CONTINUOUS
 10
345.79260229252742
 20
19.412646853191099
 30
0.0
 11
349.29260229276741
 21
19.412646853191099
 31
0.0
  0
ARC
  5
ADC
  8
0
  6
CONTINUOUS
 10
349.29260229276741
 20
18.912646852431109
 30
0.0
 40
0.5000000000000219
 50
0.0
 51
90.0
  0
LINE
  5
ADD
  8
0
  6
CONTINUOUS
 10
349.79260229352741
 20
18.912646852431109
 30
0.0
 11
349.79260229352741
 21
18.412646854211221
 31
0.0
  0
LINE
  5
ADE
  8
0
  6
CONTINUOUS
 10
372.17019168966402
 20
18.412646854211221
 30
0.0
 11
372.17019168966402
 21
21.412646853691101
 31
0.0
  0
LINE
  5
ADF
  8
0
  6
CONTINUOUS
 10
372.17019168966402
 20
21.412646853691101
 30
0.0
 11
370.910191689984
 21
21.412646853691101
 31
0.0
  0
LINE
  5
AE0
  8
0
  6
CONTINUOUS
 10
370.910191689984
 20
21.412646853691101
 30
0.0
 11
370.910191689984
 21
24.212646854391139
 31
0.0
  0
LINE
  5
AE1
  8
0
  6
CONTINUOUS
 10
370.910191689984
 20
24.212646854391139
 30
0.0
 11
372.17019168966402
 21
24.212646854391139
 31
0.0
  0
LINE
  5
AE2
  8
0
  6
CONTINUOUS
 10
372.17019168966402
 20
24.212646854391139
 30
0.0
 11
372.17019168966402
 21
25.912646852911209
 31
0.0
  0
ARC
  5
AE3
  8
0
  6
CONTINUOUS
 10
372.67019169042402
 20
25.912646852911209
 30
0.0
 40
0.5000000000000219
 50
90.0
 51
180.0
  0
LINE
  5
AE4
  8
0
  6
CONTINUOUS
 10
372.67019169042402
 20
26.412646853671209
 30
0.0
 11
374.87019168970409
 21
26.412646853671209
 31
0.0
  0
ARC
  5
AE5
  8
0
  6
CONTINUOUS
 10
374.87019168970409
 20
25.912646852911209
 30
0.0
 40
0.5000000000000219
 50
0.0
 51
90.0
  0
LINE
  5
AE6
  8
0
  6
CONTINUOUS
 10
375.37019169046408
 20
25.912646852911209
 30
0.0
 11
375.37019169046408
 21
24.212646854391139
 31
0.0
  0
LINE
  5
AE7
  8
0
  6
CONTINUOUS
 10
375.37019169046408
 20
24.212646854391139
 30
0.0
 11
376.63019169014399
 21
24.212646854391139
 31
0.0
  0
LINE
  5
AE8
  8
0
  6
CONTINUOUS
 10
376.63019169014399
 20
24.212646854391139
 30
0.0
 11
376.63019169014399
 21
21.412646853691101
 31
0.0
  0
LINE
  5
AE9
  8
0
  6
CONTINUOUS
 10
376.63019169014399
 20
21.412646853691101
 30
0.0
 11
375.37019169046408
 21
21.412646853691101
 31
0.0
  0
LINE
  5
AEA
  8
0
  6
CONTINUOUS
 10
375.37019169046408
 20
21.412646853691101
 30
0.0
 11
375.37019169046408
 21
18.412646854211221
 31
0.0
  0
LINE
  5
AEB
  8
0
  6
CONTINUOUS
 10
363.90510229300742
 20
38.412646854131289
 30
0.0
 11
380.90510229294739
 21
28.597692277318561
 31
0.0
  0
LINE
  5
AEC
  8
0
  6
CONTINUOUS
 10
5.2912512141595371
 20
28.597692277318561
 30
0.0
 11
22.291251214099528
 21
38.412646854131289
 31
0.0
  0
LINE
  5
AED
  8
0
  6
CONTINUOUS
 10
30.85377229447451
 20
22.925146853831212
 30
0.0
 11
30.85377229447451
 21
18.412646854211221
 31
0.0
  0
LINE
  5
AEE
  8
0
  6
CONTINUOUS
 10
333.65288203561403
 20
18.412646854211221
 30
0.0
 11
345.29260229430741
 21
18.412646854211221
 31
0.0
  0
LINE
  5
AEF
  8
0
  6
CONTINUOUS
 10
355.34258121263241
 20
18.412646854211221
 30
0.0
 11
355.34258121263241
 21
22.925146853831212
 31
0.0
  0
ARC
  5
AF0
  8
0
  6
CONTINUOUS
 10
360.1050812126324
 20
22.925146853831212
 30
0.0
 40
4.7624999999999993
 50
0.0
 51
180.0
  0
LINE
  5
AF1
  8
0
  6
CONTINUOUS
 10
364.86758121263239
 20
22.925146853831212
 30
0.0
 11
364.86758121263239
 21
18.412646854211221
 31
0.0
  0
LINE
  5
AF2
  8
0
  6
CONTINUOUS
 10
375.37019169046408
 20
18.412646854211221
 30
0.0
 11
380.90510229294739
 21
18.412646854211221
 31
0.0
  0
LINE
  5
AF3
  8
0
  6
CONTINUOUS
 10
363.90510229300742
 20
38.412646854131289
 30
0.0
 11
22.291251214099528
 21
38.412646854131289
 31
0.0
  0
LINE
  5
AF4
  8
0
  6
CONTINUOUS
 10
14.928772295414561
 20
18.412646854211221
 30
0.0
 11
21.328772294474501
 21
18.412646854211221
 31
0.0
  0
LINE
  5
AF5
  8
0
  6
CONTINUOUS
 10
21.328772294474501
 20
18.412646854211221
 30
0.0
 11
21.328772294474501
 21
22.925146853831212
 31
0.0
  0
ARC
  5
AF6
  8
0
  6
CONTINUOUS
 10
26.091272294474489
 20
22.925146853831212
 30
0.0
 40
4.7625000000000091
 50
0.0
 51
180.0
  0
LINE
  5
AF7
  8
0
  6
CONTINUOUS
 10
30.85377229447451
 20
18.412646854211221
 30
0.0
 11
36.403751216119531
 21
18.412646854211221
 31
0.0
  0
LINE
  5
AF8
  8
0
  6
CONTINUOUS
 10
5.2912512141595371
 20
18.412646854211221
 30
0.0
 11
11.72877229461456
 21
18.412646854211221
 31
0.0
  0
LINE
  5
AF9
  8
0
  6
CONTINUOUS
 10
55.928772294234491
 20
18.412646854211221
 30
0.0
 11
122.7287722934345
 21
18.412646854211221
 31
0.0
  0
LINE
  5
AFA
  8
0
  6
CONTINUOUS
 10
125.92877229423441
 20
18.412646854211221
 30
0.0
 11
191.5520739073973
 21
18.412646854211221
 31
0.0
  0
LINE
  5
AFB
  8
0
  6
CONTINUOUS
 10
194.7520739081973
 20
18.412646854211221
 30
0.0
 11
260.41987333580278
 21
18.412646854211221
 31
0.0
  0
LINE
  5
AFC
  8
0
  6
CONTINUOUS
 10
263.61987333660272
 20
18.412646854211221
 30
0.0
 11
330.45288203481408
 21
18.412646854211221
 31
0.0
  0
LINE
  5
AFD
  8
0
  6
CONTINUOUS
 10
364.86758121263239
 20
18.412646854211221
 30
0.0
 11
372.17019168966402
 21
18.412646854211221
 31
0.0
  0
LINE
  5
AFE
  8
0
  6
CONTINUOUS
 10
40.903751215339547
 20
18.412646854211221
 30
0.0
 11
52.728772293434517
 21
18.412646854211221
 31
0.0
  0
LINE
  5
AFF
  8
0
  6
CONTINUOUS
 10
349.79260229352741
 20
18.412646854211221
 30
0.0
 11
355.34258121263241
 21
18.412646854211221
 31
0.0
  0
LINE
  5
B00
  8
0
  6
CONTINUOUS
 10
122.7287722934345
 20
18.412646854211221
 30
0.0
 11
122.7287722934345
 21
21.474107483446961
 31
0.0
  0
LINE
  5
B01
  8
0
  6
CONTINUOUS
 10
122.7287722934345
 20
21.474107483446961
 30
0.0
 11
121.4687722937545
 21
21.474107483446961
 31
0.0
  0
LINE
  5
B02
  8
0
  6
CONTINUOUS
 10
121.4687722937545
 20
21.474107483446961
 30
0.0
 11
121.4687722937545
 21
24.274107484146999
 31
0.0
  0
LINE
  5
B03
  8
0
  6
CONTINUOUS
 10
121.4687722937545
 20
24.274107484146999
 30
0.0
 11
122.7287722934345
 21
24.274107484146999
 31
0.0
  0
LINE
  5
B04
  8
0
  6
CONTINUOUS
 10
122.7287722934345
 20
24.274107484146999
 30
0.0
 11
122.7287722934345
 21
25.974107482667069
 31
0.0
  0
ARC
  5
B05
  8
0
  6
CONTINUOUS
 10
123.2287722941945
 20
25.974107482667069
 30
0.0
 40
0.5000000000000219
 50
90.0
 51
180.0
  0
LINE
  5
B06
  8
0
  6
CONTINUOUS
 10
123.2287722941945
 20
26.474107483427058
 30
0.0
 11
125.42877229347449
 21
26.474107483427058
 31
0.0
  0
ARC
  5
B07
  8
0
  6
CONTINUOUS
 10
125.42877229347449
 20
25.974107482667069
 30
0.0
 40
0.5000000000000219
 50
0.0
 51
90.0
  0
LINE
  5
B08
  8
0
  6
CONTINUOUS
 10
125.92877229423441
 20
25.974107482667069
 30
0.0
 11
125.92877229423441
 21
24.274107484146999
 31
0.0
  0
LINE
  5
B09
  8
0
  6
CONTINUOUS
 10
125.92877229423441
 20
24.274107484146999
 30
0.0
 11
127.1887722939144
 21
24.274107484146999
 31
0.0
  0
LINE
  5
B0A
  8
0
  6
CONTINUOUS
 10
127.1887722939144
 20
24.274107484146999
 30
0.0
 11
127.1887722939144
 21
21.474107483446961
 31
0.0
  0
LINE
  5
B0B
  8
0
  6
CONTINUOUS
 10
127.1887722939144
 20
21.474107483446961
 30
0.0
 11
125.92877229423441
 21
21.474107483446961
 31
0.0
  0
LINE
  5
B0C
  8
0
  6
CONTINUOUS
 10
125.92877229423441
 20
21.474107483446961
 30
0.0
 11
125.92877229423441
 21
18.412646854211221
 31
0.0
  0
LINE
  5
B0D
  8
0
  6
CONTINUOUS
 10
260.41987333580278
 20
18.412646854211221
 30
0.0
 11
260.41987333580278
 21
21.547333003052401
 31
0.0
  0
LINE
  5
B0E
  8
0
  6
CONTINUOUS
 10
260.41987333580278
 20
21.547333003052401
 30
0.0
 11
259.15987333612281
 21
21.547333003052401
 31
0.0
  0
LINE
  5
B0F
  8
0
  6
CONTINUOUS
 10
259.15987333612281
 20
21.547333003052401
 30
0.0
 11
259.15987333612281
 21
24.347333003752439
 31
0.0
  0
LINE
  5
B10
  8
0
  6
CONTINUOUS
 10
259.15987333612281
 20
24.347333003752439
 30
0.0
 11
260.41987333580278
 21
24.347333003752439
 31
0.0
  0
LINE
  5
B11
  8
0
  6
CONTINUOUS
 10
260.41987333580278
 20
24.347333003752439
 30
0.0
 11
260.41987333580278
 21
26.047333002272509
 31
0.0
  0
ARC
  5
B12
  8
0
  6
CONTINUOUS
 10
260.91987333656277
 20
26.047333002272509
 30
0.0
 40
0.5000000000000219
 50
90.0
 51
180.0
  0
LINE
  5
B13
  8
0
  6
CONTINUOUS
 10
260.91987333656277
 20
26.547333003032509
 30
0.0
 11
263.1198733358429
 21
26.547333003032509
 31
0.0
  0
ARC
  5
B14
  8
0
  6
CONTINUOUS
 10
263.1198733358429
 20
26.047333002272509
 30
0.0
 40
0.5000000000000219
 50
0.0
 51
90.0
  0
LINE
  5
B15
  8
0
  6
CONTINUOUS
 10
263.61987333660272
 20
26.047333002272509
 30
0.0
 11
263.61987333660272
 21
24.347333003752439
 31
0.0
  0
LINE
  5
B16
  8
0
  6
CONTINUOUS
 10
263.61987333660272
 20
24.347333003752439
 30
0.0
 11
264.8798733362828
 21
24.347333003752439
 31
0.0
  0
LINE
  5
B17
  8
0
  6
CONTINUOUS
 10
264.8798733362828
 20
24.347333003752439
 30
0.0
 11
264.8798733362828
 21
21.547333003052401
 31
0.0
  0
LINE
  5
B18
  8
0
  6
CONTINUOUS
 10
264.8798733362828
 20
21.547333003052401
 30
0.0
 11
263.61987333660272
 21
21.547333003052401
 31
0.0
  0
LINE
  5
B19
  8
0
  6
CONTINUOUS
 10
263.61987333660272
 20
21.547333003052401
 30
0.0
 11
263.61987333660272
 21
18.412646854211221
 31
0.0
  0
LINE
  5
B1A
  8
0
 10
380.90510229294739
 20
18.412646854211221
 30
0.0
 11
380.90510229294739
 21
28.597692277318561
 31
0.0
  0
LINE
  5
B1B
  8
0
 10
5.2912512141595371
 20
18.412646854211221
 30
0.0
 11
5.2912512141595371
 21
28.597692277318561
 31
0.0
  0
ENDSEC
  0
EOF
