  0
SECTION
  2
HEADER
  9
$ACADVER
  1
AC1003
  9
$EXTMIN
 10
1.302512
 20
6.991878
  9
$EXTMAX
 10
14.989155
 20
10.499357
  0
ENDSEC
  0
TABLE
  2
LAYER
 70
	256
  0
LAYER
  2
1
 70
	0
  6
CONTINUOUS
 62
1
  0
ENDTAB
  0
SECTION
  2
ENTITIES
  0
LINE
  8
1
  6
CONTINUOUS
 10
206.9042
 11
33.5918
 20
180.1337
 21
180.1337
 30
0.0000
 31
0.0000
 62
8
  0
LINE
  8
1
  6
CONTINUOUS
 10
380.2165
 11
380.2165
 20
266.6837
 21
224.3107
 30
0.0000
 31
0.0000
 62
8
  0
LINE
  8
1
  6
CONTINUOUS
 10
347.2665
 11
347.2665
 20
257.1587
 21
189.6587
 30
0.0000
 31
0.0000
 62
8
  0
LINE
  8
1
  6
CONTINUOUS
 10
66.5418
 11
347.2665
 20
257.1587
 21
257.1587
 30
0.0000
 31
0.0000
 62
8
  0
LINE
  8
1
  6
CONTINUOUS
 10
66.5418
 11
66.5418
 20
189.6587
 21
257.1587
 30
0.0000
 31
0.0000
 62
8
  0
LINE
  8
1
  6
CONTINUOUS
 10
347.2665
 11
206.9042
 20
189.6587
 21
189.6587
 30
0.0000
 31
0.0000
 62
8
  0
LINE
  8
1
  6
CONTINUOUS
 10
33.5918
 11
33.5918
 20
180.1337
 21
224.4507
 30
0.0000
 31
0.0000
 62
8
  0
LINE
  8
1
  6
CONTINUOUS
 10
33.5918
 11
380.2165
 20
266.6837
 21
266.6837
 30
0.0000
 31
0.0000
 62
8
  0
LINE
  8
1
  6
CONTINUOUS
 10
225.9969
 11
206.9469
 20
204.3587
 21
204.3587
 30
0.0000
 31
0.0000
 62
8
  0
LINE
  8
1
  6
CONTINUOUS
 10
225.9969
 11
225.9969
 20
208.4177
 21
204.3587
 30
0.0000
 31
0.0000
 62
8
  0
LINE
  8
1
  6
CONTINUOUS
 10
187.8969
 11
225.9969
 20
242.4587
 21
242.4587
 30
0.0000
 31
0.0000
 62
8
  0
LINE
  8
1
  6
CONTINUOUS
 10
187.8969
 11
187.8969
 20
238.3997
 21
242.4587
 30
0.0000
 31
0.0000
 62
8
  0
LINE
  8
1
  6
CONTINUOUS
 10
175.1969
 11
238.6969
 20
255.1587
 21
255.1587
 30
0.0000
 31
0.0000
 62
8
  0
LINE
  8
1
  6
CONTINUOUS
 10
238.6969
 11
238.6969
 20
255.1587
 21
225.6068
 30
0.0000
 31
0.0000
 62
8
  0
LINE
  8
1
  6
CONTINUOUS
 10
206.9469
 11
175.1969
 20
191.6587
 21
191.6587
 30
0.0000
 31
0.0000
 62
8
  0
LINE
  8
1
  6
CONTINUOUS
 10
175.1969
 11
175.1969
 20
191.6587
 21
224.0187
 30
0.0000
 31
0.0000
 62
8
  0
LINE
  8
1
  6
CONTINUOUS
 10
187.8969
 11
187.8969
 20
204.3587
 21
208.4177
 30
0.0000
 31
0.0000
 62
8
  0
LINE
  8
1
  6
CONTINUOUS
 10
187.8969
 11
187.8969
 20
218.3997
 21
228.4177
 30
0.0000
 31
0.0000
 62
8
  0
LINE
  8
1
  6
CONTINUOUS
 10
225.9969
 11
225.9969
 20
242.4587
 21
238.3997
 30
0.0000
 31
0.0000
 62
8
  0
LINE
  8
1
  6
CONTINUOUS
 10
225.9969
 11
225.9969
 20
228.4177
 21
218.3997
 30
0.0000
 31
0.0000
 62
8
  0
LINE
  8
1
  6
CONTINUOUS
 10
33.5918
 11
33.5918
 20
224.9587
 21
266.6837
 30
0.0000
 31
0.0000
 62
8
  0
LINE
  8
1
  6
CONTINUOUS
 10
33.5918
 11
33.0838
 20
224.9587
 21
224.9587
 30
0.0000
 31
0.0000
 62
8
  0
LINE
  8
1
  6
CONTINUOUS
 10
33.5918
 11
33.0838
 20
224.4507
 21
224.4507
 30
0.0000
 31
0.0000
 62
8
  0
LINE
  8
1
  6
CONTINUOUS
 10
33.0838
 11
33.0838
 20
224.9587
 21
224.4507
 30
0.0000
 31
0.0000
 62
8
  0
LINE
  8
1
  6
CONTINUOUS
 10
380.2165
 11
380.2165
 20
223.8027
 21
180.1337
 30
0.0000
 31
0.0000
 62
8
  0
LINE
  8
1
  6
CONTINUOUS
 10
380.2165
 11
380.7245
 20
223.8027
 21
223.8027
 30
0.0000
 31
0.0000
 62
8
  0
LINE
  8
1
  6
CONTINUOUS
 10
380.2165
 11
380.7245
 20
224.3107
 21
224.3107
 30
0.0000
 31
0.0000
 62
8
  0
LINE
  8
1
  6
CONTINUOUS
 10
380.7245
 11
380.7245
 20
223.8027
 21
224.3107
 30
0.0000
 31
0.0000
 62
8
  0
LINE
  8
1
  6
CONTINUOUS
 10
175.1969
 11
175.1969
 20
224.5267
 21
255.1587
 30
0.0000
 31
0.0000
 62
8
  0
LINE
  8
1
  6
CONTINUOUS
 10
175.1969
 11
174.6889
 20
224.5267
 21
224.5267
 30
0.0000
 31
0.0000
 62
8
  0
LINE
  8
1
  6
CONTINUOUS
 10
175.1969
 11
174.6889
 20
224.0187
 21
224.0187
 30
0.0000
 31
0.0000
 62
8
  0
LINE
  8
1
  6
CONTINUOUS
 10
174.6889
 11
174.6889
 20
224.5267
 21
224.0187
 30
0.0000
 31
0.0000
 62
8
  0
LINE
  8
1
  6
CONTINUOUS
 10
238.6969
 11
238.6969
 20
225.0988
 21
191.6587
 30
0.0000
 31
0.0000
 62
8
  0
LINE
  8
1
  6
CONTINUOUS
 10
238.6969
 11
239.2049
 20
225.0988
 21
225.0988
 30
0.0000
 31
0.0000
 62
8
  0
LINE
  8
1
  6
CONTINUOUS
 10
238.6969
 11
239.2049
 20
225.6068
 21
225.6068
 30
0.0000
 31
0.0000
 62
8
  0
LINE
  8
1
  6
CONTINUOUS
 10
239.2049
 11
239.2049
 20
225.0988
 21
225.6068
 30
0.0000
 31
0.0000
 62
8
  0
LINE
  8
1
  6
CONTINUOUS
 10
51.2418
 11
51.2418
 20
187.4237
 21
184.8837
 30
0.0000
 31
0.0000
 62
8
  0
LINE
  8
1
  6
CONTINUOUS
 10
51.2418
 11
51.2418
 20
184.8837
 21
186.9157
 30
0.0000
 31
0.0000
 62
8
  0
LINE
  8
1
  6
CONTINUOUS
 10
51.2418
 11
62.0418
 20
186.9157
 21
188.5362
 30
0.0000
 31
0.0000
 62
3
  0
LINE
  8
1
  6
CONTINUOUS
 10
62.0418
 11
62.0418
 20
188.5362
 21
185.9962
 30
0.0000
 31
0.0000
 62
8
  0
LINE
  8
1
  6
CONTINUOUS
 10
62.0418
 11
62.0418
 20
185.9962
 21
188.0282
 30
0.0000
 31
0.0000
 62
8
  0
LINE
  8
1
  6
CONTINUOUS
 10
62.0418
 11
51.5418
 20
188.0282
 21
205.5487
 30
0.0000
 31
0.0000
 62
3
  0
LINE
  8
1
  6
CONTINUOUS
 10
51.5418
 11
51.5418
 20
205.5487
 21
203.0087
 30
0.0000
 31
0.0000
 62
8
  0
LINE
  8
1
  6
CONTINUOUS
 10
51.5418
 11
51.5418
 20
203.0087
 21
205.0407
 30
0.0000
 31
0.0000
 62
8
  0
LINE
  8
1
  6
CONTINUOUS
 10
51.5418
 11
62.0418
 20
205.0407
 21
224.3487
 30
0.0000
 31
0.0000
 62
3
  0
LINE
  8
1
  6
CONTINUOUS
 10
62.0418
 11
62.0418
 20
224.3487
 21
221.8087
 30
0.0000
 31
0.0000
 62
8
  0
LINE
  8
1
  6
CONTINUOUS
 10
62.0418
 11
62.0418
 20
221.8087
 21
223.8407
 30
0.0000
 31
0.0000
 62
8
  0
LINE
  8
1
  6
CONTINUOUS
 10
62.0418
 11
51.5418
 20
223.8407
 21
242.1487
 30
0.0000
 31
0.0000
 62
3
  0
LINE
  8
1
  6
CONTINUOUS
 10
51.5418
 11
51.5418
 20
242.1487
 21
239.6087
 30
0.0000
 31
0.0000
 62
8
  0
LINE
  8
1
  6
CONTINUOUS
 10
51.5418
 11
51.5418
 20
239.6087
 21
241.6407
 30
0.0000
 31
0.0000
 62
8
  0
LINE
  8
1
  6
CONTINUOUS
 10
51.5418
 11
51.2418
 20
241.6407
 21
261.2737
 30
0.0000
 31
0.0000
 62
3
  0
LINE
  8
1
  6
CONTINUOUS
 10
51.2418
 11
51.2418
 20
261.2737
 21
258.7337
 30
0.0000
 31
0.0000
 62
8
  0
LINE
  8
1
  6
CONTINUOUS
 10
51.2418
 11
51.2418
 20
258.7337
 21
260.7657
 30
0.0000
 31
0.0000
 62
8
  0
LINE
  8
1
  6
CONTINUOUS
 10
51.2418
 11
62.0418
 20
260.7657
 21
260.1612
 30
0.0000
 31
0.0000
 62
3
  0
LINE
  8
1
  6
CONTINUOUS
 10
62.0418
 11
62.0418
 20
260.1612
 21
257.6212
 30
0.0000
 31
0.0000
 62
8
  0
LINE
  8
1
  6
CONTINUOUS
 10
62.0418
 11
62.0418
 20
257.6212
 21
259.6532
 30
0.0000
 31
0.0000
 62
8
  0
LINE
  8
1
  6
CONTINUOUS
 10
62.0418
 11
181.5469
 20
259.6532
 21
197.3562
 30
0.0000
 31
0.0000
 62
3
  0
LINE
  8
1
  6
CONTINUOUS
 10
181.5469
 11
181.5469
 20
197.3562
 21
196.7212
 30
0.0000
 31
0.0000
 62
8
  0
LINE
  8
1
  6
CONTINUOUS
 10
181.5469
 11
181.5469
 20
196.7212
 21
197.7372
 30
0.0000
 31
0.0000
 62
8
  0
LINE
  8
1
  6
CONTINUOUS
 10
181.5469
 11
232.3469
 20
197.7372
 21
197.3562
 30
0.0000
 31
0.0000
 62
3
  0
LINE
  8
1
  6
CONTINUOUS
 10
232.3469
 11
232.3469
 20
197.3562
 21
196.7212
 30
0.0000
 31
0.0000
 62
8
  0
LINE
  8
1
  6
CONTINUOUS
 10
232.3469
 11
232.3469
 20
196.7212
 21
197.7372
 30
0.0000
 31
0.0000
 62
8
  0
LINE
  8
1
  6
CONTINUOUS
 10
232.3469
 11
234.6969
 20
197.7372
 21
213.1687
 30
0.0000
 31
0.0000
 62
3
  0
LINE
  8
1
  6
CONTINUOUS
 10
234.6969
 11
234.6969
 20
213.1687
 21
212.5337
 30
0.0000
 31
0.0000
 62
8
  0
LINE
  8
1
  6
CONTINUOUS
 10
234.6969
 11
234.6969
 20
212.5337
 21
213.5497
 30
0.0000
 31
0.0000
 62
8
  0
LINE
  8
1
  6
CONTINUOUS
 10
234.6969
 11
179.1969
 20
213.5497
 21
213.1687
 30
0.0000
 31
0.0000
 62
3
  0
LINE
  8
1
  6
CONTINUOUS
 10
179.1969
 11
179.1969
 20
213.1687
 21
212.5337
 30
0.0000
 31
0.0000
 62
8
  0
LINE
  8
1
  6
CONTINUOUS
 10
179.1969
 11
179.1969
 20
212.5337
 21
213.5497
 30
0.0000
 31
0.0000
 62
8
  0
LINE
  8
1
  6
CONTINUOUS
 10
179.1969
 11
179.1969
 20
213.5497
 21
233.1687
 30
0.0000
 31
0.0000
 62
3
  0
LINE
  8
1
  6
CONTINUOUS
 10
179.1969
 11
179.1969
 20
233.1687
 21
232.5337
 30
0.0000
 31
0.0000
 62
8
  0
LINE
  8
1
  6
CONTINUOUS
 10
179.1969
 11
179.1969
 20
232.5337
 21
233.5497
 30
0.0000
 31
0.0000
 62
8
  0
LINE
  8
1
  6
CONTINUOUS
 10
179.1969
 11
206.9469
 20
233.5497
 21
206.8987
 30
0.0000
 31
0.0000
 62
3
  0
LINE
  8
1
  6
CONTINUOUS
 10
206.9469
 11
206.9469
 20
206.8987
 21
204.3587
 30
0.0000
 31
0.0000
 62
8
  0
LINE
  8
1
  6
CONTINUOUS
 10
206.9469
 11
187.8969
 20
204.3587
 21
204.3587
 30
0.0000
 31
0.0000
 62
8
  0
LINE
  8
1
  6
CONTINUOUS
 10
206.9469
 11
206.9469
 20
204.3587
 21
206.3907
 30
0.0000
 31
0.0000
 62
8
  0
LINE
  8
1
  6
CONTINUOUS
 10
206.9469
 11
234.6969
 20
206.3907
 21
233.1687
 30
0.0000
 31
0.0000
 62
3
  0
LINE
  8
1
  6
CONTINUOUS
 10
234.6969
 11
234.6969
 20
233.1687
 21
232.5337
 30
0.0000
 31
0.0000
 62
8
  0
LINE
  8
1
  6
CONTINUOUS
 10
234.6969
 11
234.6969
 20
232.5337
 21
233.5497
 30
0.0000
 31
0.0000
 62
8
  0
LINE
  8
1
  6
CONTINUOUS
 10
234.6969
 11
232.3469
 20
233.5497
 21
248.9812
 30
0.0000
 31
0.0000
 62
3
  0
LINE
  8
1
  6
CONTINUOUS
 10
232.3469
 11
232.3469
 20
248.9812
 21
248.3462
 30
0.0000
 31
0.0000
 62
8
  0
LINE
  8
1
  6
CONTINUOUS
 10
232.3469
 11
232.3469
 20
248.3462
 21
249.3622
 30
0.0000
 31
0.0000
 62
8
  0
LINE
  8
1
  6
CONTINUOUS
 10
232.3469
 11
181.5469
 20
249.3622
 21
248.9812
 30
0.0000
 31
0.0000
 62
3
  0
LINE
  8
1
  6
CONTINUOUS
 10
181.5469
 11
181.5469
 20
248.9812
 21
248.3462
 30
0.0000
 31
0.0000
 62
8
  0
LINE
  8
1
  6
CONTINUOUS
 10
181.5469
 11
181.5469
 20
248.3462
 21
249.3622
 30
0.0000
 31
0.0000
 62
8
  0
LINE
  8
1
  6
CONTINUOUS
 10
181.5469
 11
206.9469
 20
249.3622
 21
190.3887
 30
0.0000
 31
0.0000
 62
3
  0
LINE
  8
1
  6
CONTINUOUS
 10
206.9469
 11
206.9469
 20
190.3887
 21
191.6587
 30
0.0000
 31
0.0000
 62
8
  0
LINE
  8
1
  6
CONTINUOUS
 10
206.9469
 11
238.6969
 20
191.6587
 21
191.6587
 30
0.0000
 31
0.0000
 62
8
  0
LINE
  8
1
  6
CONTINUOUS
 10
206.9469
 11
206.9469
 20
191.6587
 21
190.6427
 30
0.0000
 31
0.0000
 62
8
  0
LINE
  8
1
  6
CONTINUOUS
 10
206.9469
 11
206.9042
 20
190.6427
 21
189.9762
 30
0.0000
 31
0.0000
 62
3
  0
LINE
  8
1
  6
CONTINUOUS
 10
206.9042
 11
206.9042
 20
189.9762
 21
189.6587
 30
0.0000
 31
0.0000
 62
8
  0
LINE
  8
1
  6
CONTINUOUS
 10
206.9042
 11
66.5418
 20
189.6587
 21
189.6587
 30
0.0000
 31
0.0000
 62
8
  0
LINE
  8
1
  6
CONTINUOUS
 10
206.9042
 11
206.9042
 20
189.6587
 21
190.1667
 30
0.0000
 31
0.0000
 62
8
  0
LINE
  8
1
  6
CONTINUOUS
 10
206.9042
 11
351.7665
 20
190.1667
 21
188.5362
 30
0.0000
 31
0.0000
 62
3
  0
LINE
  8
1
  6
CONTINUOUS
 10
351.7665
 11
351.7665
 20
188.5362
 21
185.9962
 30
0.0000
 31
0.0000
 62
8
  0
LINE
  8
1
  6
CONTINUOUS
 10
351.7665
 11
351.7665
 20
185.9962
 21
188.0282
 30
0.0000
 31
0.0000
 62
8
  0
LINE
  8
1
  6
CONTINUOUS
 10
351.7665
 11
362.2665
 20
188.0282
 21
205.5487
 30
0.0000
 31
0.0000
 62
3
  0
LINE
  8
1
  6
CONTINUOUS
 10
362.2665
 11
362.2665
 20
205.5487
 21
203.0087
 30
0.0000
 31
0.0000
 62
8
  0
LINE
  8
1
  6
CONTINUOUS
 10
362.2665
 11
362.2665
 20
203.0087
 21
205.0407
 30
0.0000
 31
0.0000
 62
8
  0
LINE
  8
1
  6
CONTINUOUS
 10
362.2665
 11
362.5665
 20
205.0407
 21
224.3487
 30
0.0000
 31
0.0000
 62
3
  0
LINE
  8
1
  6
CONTINUOUS
 10
362.5665
 11
362.5665
 20
224.3487
 21
221.8087
 30
0.0000
 31
0.0000
 62
8
  0
LINE
  8
1
  6
CONTINUOUS
 10
362.5665
 11
362.5665
 20
221.8087
 21
223.8407
 30
0.0000
 31
0.0000
 62
8
  0
LINE
  8
1
  6
CONTINUOUS
 10
362.5665
 11
351.7665
 20
223.8407
 21
224.3487
 30
0.0000
 31
0.0000
 62
3
  0
LINE
  8
1
  6
CONTINUOUS
 10
351.7665
 11
351.7665
 20
224.3487
 21
221.8087
 30
0.0000
 31
0.0000
 62
8
  0
LINE
  8
1
  6
CONTINUOUS
 10
351.7665
 11
351.7665
 20
221.8087
 21
223.8407
 30
0.0000
 31
0.0000
 62
8
  0
LINE
  8
1
  6
CONTINUOUS
 10
351.7665
 11
362.2665
 20
223.8407
 21
242.1487
 30
0.0000
 31
0.0000
 62
3
  0
LINE
  8
1
  6
CONTINUOUS
 10
362.2665
 11
362.2665
 20
242.1487
 21
239.6087
 30
0.0000
 31
0.0000
 62
8
  0
LINE
  8
1
  6
CONTINUOUS
 10
362.2665
 11
362.2665
 20
239.6087
 21
241.6407
 30
0.0000
 31
0.0000
 62
8
  0
LINE
  8
1
  6
CONTINUOUS
 10
362.2665
 11
351.7665
 20
241.6407
 21
260.1612
 30
0.0000
 31
0.0000
 62
3
  0
LINE
  8
1
  6
CONTINUOUS
 10
351.7665
 11
351.7665
 20
260.1612
 21
257.6212
 30
0.0000
 31
0.0000
 62
8
  0
LINE
  8
1
  6
CONTINUOUS
 10
351.7665
 11
351.7665
 20
257.6212
 21
259.6532
 30
0.0000
 31
0.0000
 62
8
  0
LINE
  8
1
  6
CONTINUOUS
 10
351.7665
 11
206.9042
 20
259.6532
 21
177.5937
 30
0.0000
 31
0.0000
 62
3
  0
LINE
  8
1
  6
CONTINUOUS
 10
206.9042
 11
206.9042
 20
177.5937
 21
180.1337
 30
0.0000
 31
0.0000
 62
8
  0
LINE
  8
1
  6
CONTINUOUS
 10
206.9042
 11
380.2165
 20
180.1337
 21
180.1337
 30
0.0000
 31
0.0000
 62
8
  0
LINE
  8
1
  6
CONTINUOUS
 10
206.9042
 11
206.9042
 20
180.1337
 21
178.1017
 30
0.0000
 31
0.0000
 62
8
  0
ARC
  8
1
  6
CONTINUOUS
 10
62.0418
 20
223.4087
 30
0.0000
 40
1.6000
 50
0.0000
 51
180.0000
 62
8
  0
ARC
  8
1
  6
CONTINUOUS
 10
62.0418
 20
223.4087
 30
0.0000
 40
1.6000
 50
270.0000
 51
0.0000
 62
8
  0
ARC
  8
1
  6
CONTINUOUS
 10
62.0418
 20
259.2212
 30
0.0000
 40
1.6000
 50
0.0000
 51
180.0000
 62
8
  0
ARC
  8
1
  6
CONTINUOUS
 10
62.0418
 20
259.2212
 30
0.0000
 40
1.6000
 50
270.0000
 51
0.0000
 62
8
  0
ARC
  8
1
  6
CONTINUOUS
 10
62.0418
 20
187.5962
 30
0.0000
 40
1.6000
 50
0.0000
 51
180.0000
 62
8
  0
ARC
  8
1
  6
CONTINUOUS
 10
62.0418
 20
187.5962
 30
0.0000
 40
1.6000
 50
270.0000
 51
0.0000
 62
8
  0
ARC
  8
1
  6
CONTINUOUS
 10
351.7665
 20
187.5962
 30
0.0000
 40
1.6000
 50
0.0000
 51
180.0000
 62
8
  0
ARC
  8
1
  6
CONTINUOUS
 10
351.7665
 20
187.5962
 30
0.0000
 40
1.6000
 50
270.0000
 51
0.0000
 62
8
  0
ARC
  8
1
  6
CONTINUOUS
 10
351.7665
 20
223.4087
 30
0.0000
 40
1.6000
 50
0.0000
 51
180.0000
 62
8
  0
ARC
  8
1
  6
CONTINUOUS
 10
351.7665
 20
223.4087
 30
0.0000
 40
1.6000
 50
270.0000
 51
0.0000
 62
8
  0
ARC
  8
1
  6
CONTINUOUS
 10
351.7665
 20
259.2212
 30
0.0000
 40
1.6000
 50
0.0000
 51
180.0000
 62
8
  0
ARC
  8
1
  6
CONTINUOUS
 10
351.7665
 20
259.2212
 30
0.0000
 40
1.6000
 50
270.0000
 51
0.0000
 62
8
  0
ARC
  8
1
  6
CONTINUOUS
 10
51.2418
 20
186.4837
 30
0.0000
 40
1.6000
 50
0.0000
 51
180.0000
 62
8
  0
ARC
  8
1
  6
CONTINUOUS
 10
51.2418
 20
186.4837
 30
0.0000
 40
1.6000
 50
270.0000
 51
0.0000
 62
8
  0
ARC
  8
1
  6
CONTINUOUS
 10
51.2418
 20
260.3337
 30
0.0000
 40
1.6000
 50
0.0000
 51
180.0000
 62
8
  0
ARC
  8
1
  6
CONTINUOUS
 10
51.2418
 20
260.3337
 30
0.0000
 40
1.6000
 50
270.0000
 51
0.0000
 62
8
  0
ARC
  8
1
  6
CONTINUOUS
 10
362.5665
 20
223.4087
 30
0.0000
 40
1.6000
 50
0.0000
 51
180.0000
 62
8
  0
ARC
  8
1
  6
CONTINUOUS
 10
362.5665
 20
223.4087
 30
0.0000
 40
1.6000
 50
270.0000
 51
0.0000
 62
8
  0
ARC
  8
1
  6
CONTINUOUS
 10
51.5418
 20
205.1087
 30
0.0000
 40
2.1000
 50
0.0000
 51
180.0000
 62
8
  0
ARC
  8
1
  6
CONTINUOUS
 10
51.5418
 20
205.1087
 30
0.0000
 40
2.1000
 50
270.0000
 51
0.0000
 62
8
  0
ARC
  8
1
  6
CONTINUOUS
 10
362.2665
 20
205.1087
 30
0.0000
 40
2.1000
 50
0.0000
 51
180.0000
 62
8
  0
ARC
  8
1
  6
CONTINUOUS
 10
362.2665
 20
205.1087
 30
0.0000
 40
2.1000
 50
270.0000
 51
0.0000
 62
8
  0
ARC
  8
1
  6
CONTINUOUS
 10
362.2665
 20
241.7087
 30
0.0000
 40
2.1000
 50
0.0000
 51
180.0000
 62
8
  0
ARC
  8
1
  6
CONTINUOUS
 10
362.2665
 20
241.7087
 30
0.0000
 40
2.1000
 50
270.0000
 51
0.0000
 62
8
  0
ARC
  8
1
  6
CONTINUOUS
 10
51.5418
 20
241.7087
 30
0.0000
 40
2.1000
 50
0.0000
 51
180.0000
 62
8
  0
ARC
  8
1
  6
CONTINUOUS
 10
51.5418
 20
241.7087
 30
0.0000
 40
2.1000
 50
270.0000
 51
0.0000
 62
8
  0
ARC
  8
1
  6
CONTINUOUS
 10
227.4969
 20
208.4177
 30
0.0000
 40
1.5000
 50
93.4409
 51
180.0000
 62
8
  0
ARC
  8
1
  6
CONTINUOUS
 10
227.1969
 20
213.4087
 30
0.0000
 40
3.5000
 50
273.4396
 51
86.5599
 62
8
  0
ARC
  8
1
  6
CONTINUOUS
 10
227.4969
 20
218.3997
 30
0.0000
 40
1.5000
 50
180.0000
 51
266.5603
 62
8
  0
ARC
  8
1
  6
CONTINUOUS
 10
227.4969
 20
228.4177
 30
0.0000
 40
1.5000
 50
93.4409
 51
180.0000
 62
8
  0
ARC
  8
1
  6
CONTINUOUS
 10
227.1969
 20
233.4087
 30
0.0000
 40
3.5000
 50
273.4396
 51
86.5598
 62
8
  0
ARC
  8
1
  6
CONTINUOUS
 10
227.4969
 20
238.3997
 30
0.0000
 40
1.5000
 50
180.0000
 51
266.5603
 62
8
  0
ARC
  8
1
  6
CONTINUOUS
 10
186.3969
 20
238.3997
 30
0.0000
 40
1.5000
 50
273.4403
 51
0.0000
 62
8
  0
ARC
  8
1
  6
CONTINUOUS
 10
186.6969
 20
233.4087
 30
0.0000
 40
3.5000
 50
93.4397
 51
266.5604
 62
8
  0
ARC
  8
1
  6
CONTINUOUS
 10
186.3969
 20
228.4177
 30
0.0000
 40
1.5000
 50
0.0000
 51
86.5597
 62
8
  0
ARC
  8
1
  6
CONTINUOUS
 10
186.3969
 20
218.3997
 30
0.0000
 40
1.5000
 50
273.4403
 51
0.0000
 62
8
  0
ARC
  8
1
  6
CONTINUOUS
 10
186.6969
 20
213.4087
 30
0.0000
 40
3.5000
 50
93.4397
 51
266.5604
 62
8
  0
ARC
  8
1
  6
CONTINUOUS
 10
186.3969
 20
208.4177
 30
0.0000
 40
1.5000
 50
0.0000
 51
86.5597
 62
8
  0
ARC
  8
1
  6
CONTINUOUS
 10
181.5469
 20
197.5962
 30
0.0000
 40
0.8750
 50
0.0000
 51
180.0000
 62
8
  0
ARC
  8
1
  6
CONTINUOUS
 10
181.5469
 20
197.5962
 30
0.0000
 40
0.8750
 50
270.0000
 51
0.0000
 62
8
  0
ARC
  8
1
  6
CONTINUOUS
 10
232.3469
 20
197.5962
 30
0.0000
 40
0.8750
 50
0.0000
 51
180.0000
 62
8
  0
ARC
  8
1
  6
CONTINUOUS
 10
232.3469
 20
197.5962
 30
0.0000
 40
0.8750
 50
270.0000
 51
0.0000
 62
8
  0
ARC
  8
1
  6
CONTINUOUS
 10
232.3469
 20
249.2212
 30
0.0000
 40
0.8750
 50
0.0000
 51
180.0000
 62
8
  0
ARC
  8
1
  6
CONTINUOUS
 10
232.3469
 20
249.2212
 30
0.0000
 40
0.8750
 50
270.0000
 51
0.0000
 62
8
  0
ARC
  8
1
  6
CONTINUOUS
 10
181.5469
 20
249.2212
 30
0.0000
 40
0.8750
 50
0.0000
 51
180.0000
 62
8
  0
ARC
  8
1
  6
CONTINUOUS
 10
181.5469
 20
249.2212
 30
0.0000
 40
0.8750
 50
270.0000
 51
0.0000
 62
8
  0
ARC
  8
1
  6
CONTINUOUS
 10
179.1969
 20
233.4087
 30
0.0000
 40
0.8750
 50
0.0000
 51
180.0000
 62
8
  0
ARC
  8
1
  6
CONTINUOUS
 10
179.1969
 20
233.4087
 30
0.0000
 40
0.8750
 50
270.0000
 51
0.0000
 62
8
  0
ARC
  8
1
  6
CONTINUOUS
 10
234.6969
 20
233.4087
 30
0.0000
 40
0.8750
 50
0.0000
 51
180.0000
 62
8
  0
ARC
  8
1
  6
CONTINUOUS
 10
234.6969
 20
233.4087
 30
0.0000
 40
0.8750
 50
270.0000
 51
0.0000
 62
8
  0
ARC
  8
1
  6
CONTINUOUS
 10
234.6969
 20
213.4087
 30
0.0000
 40
0.8750
 50
0.0000
 51
180.0000
 62
8
  0
ARC
  8
1
  6
CONTINUOUS
 10
234.6969
 20
213.4087
 30
0.0000
 40
0.8750
 50
270.0000
 51
0.0000
 62
8
  0
ARC
  8
1
  6
CONTINUOUS
 10
179.1969
 20
213.4087
 30
0.0000
 40
0.8750
 50
0.0000
 51
180.0000
 62
8
  0
ARC
  8
1
  6
CONTINUOUS
 10
179.1969
 20
213.4087
 30
0.0000
 40
0.8750
 50
270.0000
 51
0.0000
 62
8
  0
ARC
  8
1
  6
CONTINUOUS
 10
51.2418
 20
186.4837
 30
0.0000
 40
1.6000
 50
180.0000
 51
270.0000
 62
8
  0
ARC
  8
1
  6
CONTINUOUS
 10
62.0418
 20
187.5962
 30
0.0000
 40
1.6000
 50
180.0000
 51
270.0000
 62
8
  0
ARC
  8
1
  6
CONTINUOUS
 10
51.5418
 20
205.1087
 30
0.0000
 40
2.1000
 50
180.0000
 51
270.0000
 62
8
  0
ARC
  8
1
  6
CONTINUOUS
 10
62.0418
 20
223.4087
 30
0.0000
 40
1.6000
 50
180.0000
 51
270.0000
 62
8
  0
ARC
  8
1
  6
CONTINUOUS
 10
51.5418
 20
241.7087
 30
0.0000
 40
2.1000
 50
180.0000
 51
270.0000
 62
8
  0
ARC
  8
1
  6
CONTINUOUS
 10
51.2418
 20
260.3337
 30
0.0000
 40
1.6000
 50
180.0000
 51
270.0000
 62
8
  0
ARC
  8
1
  6
CONTINUOUS
 10
62.0418
 20
259.2212
 30
0.0000
 40
1.6000
 50
180.0000
 51
270.0000
 62
8
  0
ARC
  8
1
  6
CONTINUOUS
 10
181.5469
 20
197.5962
 30
0.0000
 40
0.8750
 50
180.0000
 51
270.0000
 62
8
  0
ARC
  8
1
  6
CONTINUOUS
 10
232.3469
 20
197.5962
 30
0.0000
 40
0.8750
 50
180.0000
 51
270.0000
 62
8
  0
ARC
  8
1
  6
CONTINUOUS
 10
234.6969
 20
213.4087
 30
0.0000
 40
0.8750
 50
180.0000
 51
270.0000
 62
8
  0
ARC
  8
1
  6
CONTINUOUS
 10
179.1969
 20
213.4087
 30
0.0000
 40
0.8750
 50
180.0000
 51
270.0000
 62
8
  0
ARC
  8
1
  6
CONTINUOUS
 10
179.1969
 20
233.4087
 30
0.0000
 40
0.8750
 50
180.0000
 51
270.0000
 62
8
  0
ARC
  8
1
  6
CONTINUOUS
 10
234.6969
 20
233.4087
 30
0.0000
 40
0.8750
 50
180.0000
 51
270.0000
 62
8
  0
ARC
  8
1
  6
CONTINUOUS
 10
232.3469
 20
249.2212
 30
0.0000
 40
0.8750
 50
180.0000
 51
270.0000
 62
8
  0
ARC
  8
1
  6
CONTINUOUS
 10
181.5469
 20
249.2212
 30
0.0000
 40
0.8750
 50
180.0000
 51
270.0000
 62
8
  0
ARC
  8
1
  6
CONTINUOUS
 10
351.7665
 20
187.5962
 30
0.0000
 40
1.6000
 50
180.0000
 51
270.0000
 62
8
  0
ARC
  8
1
  6
CONTINUOUS
 10
362.2665
 20
205.1087
 30
0.0000
 40
2.1000
 50
180.0000
 51
270.0000
 62
8
  0
ARC
  8
1
  6
CONTINUOUS
 10
362.5665
 20
223.4087
 30
0.0000
 40
1.6000
 50
180.0000
 51
270.0000
 62
8
  0
ARC
  8
1
  6
CONTINUOUS
 10
351.7665
 20
223.4087
 30
0.0000
 40
1.6000
 50
180.0000
 51
270.0000
 62
8
  0
ARC
  8
1
  6
CONTINUOUS
 10
362.2665
 20
241.7087
 30
0.0000
 40
2.1000
 50
180.0000
 51
270.0000
 62
8
  0
ARC
  8
1
  6
CONTINUOUS
 10
351.7665
 20
259.2212
 30
0.0000
 40
1.6000
 50
180.0000
 51
270.0000
 62
8
  0
ENDSEC
  0
EOF
